<svg xmlns="http://www.w3.org/2000/svg" xmlns:xlink="http://www.w3.org/1999/xlink" width="400" zoomAndPan="magnify" viewBox="0 0 300 135.000003" height="180" preserveAspectRatio="xMidYMid meet" version="1.0"><defs><g/><clipPath id="5cd7edc51e"><path d="M 78.796875 9.261719 L 234.394531 9.261719 L 234.394531 79.988281 L 78.796875 79.988281 Z M 78.796875 9.261719 " clip-rule="nonzero"/></clipPath></defs><g clip-path="url(#5cd7edc51e)"><path fill="#000000" d="M 187.078125 9.480469 C 187.238281 9.980469 186.964844 10.34375 186.808594 10.71875 C 185.140625 14.6875 183.066406 18.460938 181.167969 22.320312 C 177.976562 28.804688 174.679688 35.230469 171.972656 41.949219 C 170.367188 45.929688 168.578125 49.84375 166.933594 53.816406 C 166.808594 54.128906 166.691406 54.746094 166.3125 54.574219 C 165.84375 54.359375 166.285156 53.882812 166.421875 53.554688 C 168.464844 48.605469 170.480469 43.644531 172.582031 38.722656 C 174.71875 33.722656 177.289062 28.929688 179.683594 24.046875 C 181.96875 19.382812 184.292969 14.730469 186.605469 10.078125 C 186.707031 9.871094 186.75 9.617188 187.078125 9.480469 Z M 128.21875 9.921875 C 128.609375 11.234375 128.988281 12.550781 129.519531 13.816406 C 131.398438 18.289062 133.480469 22.695312 134.992188 27.296875 C 138.03125 36.542969 141.964844 45.449219 145.21875 54.609375 C 145.320312 54.890625 145.339844 55.453125 145.800781 55.28125 C 146.203125 55.128906 145.839844 54.726562 145.757812 54.457031 C 145.007812 51.957031 144.023438 49.535156 143.0625 47.113281 C 138.167969 34.769531 133.605469 22.292969 128.761719 9.929688 C 128.660156 9.675781 128.625 9.351562 128.21875 9.261719 C 128.089844 9.519531 128.160156 9.71875 128.21875 9.921875 Z M 183.871094 69 C 187.699219 67.257812 191.511719 65.496094 195.328125 63.734375 C 201.183594 61.03125 206.976562 58.191406 212.867188 55.554688 C 217.402344 53.523438 222.019531 51.671875 226.375 49.257812 C 226.695312 49.082031 227.109375 49.007812 227.355469 48.402344 C 212.117188 55.15625 197.296875 62.363281 182.339844 69.292969 C 182.929688 69.464844 183.40625 69.210938 183.871094 69 Z M 187.082031 79.746094 C 192.324219 79.585938 197.570312 79.914062 202.816406 79.726562 C 206.574219 79.589844 210.335938 79.839844 214.097656 79.90625 C 218.789062 79.988281 223.46875 79.71875 228.152344 79.542969 C 230.058594 79.46875 231.964844 79.414062 233.871094 79.347656 C 234.078125 79.339844 234.378906 79.339844 234.371094 79.082031 C 234.359375 78.773438 234.042969 78.898438 233.859375 78.902344 C 232.773438 78.9375 231.691406 78.996094 230.605469 79.039062 C 221.417969 79.394531 212.222656 79.085938 203.035156 79.378906 C 197.34375 79.5625 191.648438 79.015625 185.953125 79.28125 C 185.625 79.292969 185.269531 79.195312 184.949219 79.554688 C 185.679688 79.78125 186.386719 79.769531 187.082031 79.746094 Z M 127.230469 79.09375 C 126.144531 79.0625 125.058594 79.050781 123.972656 79.023438 C 119.46875 78.914062 114.980469 79.429688 110.476562 79.367188 C 106.324219 79.308594 102.167969 79.144531 98.011719 79.085938 C 91.84375 79 85.671875 79.125 79.503906 79.214844 C 79.257812 79.21875 78.863281 79.121094 78.847656 79.46875 C 78.832031 79.878906 79.242188 79.707031 79.46875 79.710938 C 82.433594 79.730469 85.398438 79.765625 88.367188 79.734375 C 99.035156 79.632812 109.707031 79.792969 120.375 79.550781 C 122.574219 79.5 124.773438 79.546875 126.96875 79.53125 C 127.292969 79.527344 127.664062 79.632812 127.941406 79.324219 C 127.765625 79.042969 127.476562 79.101562 127.230469 79.09375 Z M 87.515625 48.808594 C 92.792969 51.265625 98.070312 53.703125 103.140625 56.585938 C 110.0625 60.527344 117.433594 63.601562 124.449219 67.375 C 126.285156 68.363281 128.230469 69.15625 130.128906 70.023438 C 130.285156 70.097656 130.523438 70.351562 130.652344 70.027344 C 130.742188 69.8125 130.476562 69.742188 130.320312 69.660156 C 129.804688 69.386719 129.292969 69.109375 128.773438 68.855469 C 124.355469 66.683594 119.910156 64.574219 115.523438 62.34375 C 106.089844 57.550781 96.648438 52.769531 87.15625 48.097656 C 86.929688 47.984375 86.71875 47.769531 86.335938 47.972656 C 86.636719 48.449219 87.097656 48.617188 87.515625 48.808594 Z M 156.800781 19.269531 C 156.753906 22.722656 156.691406 26.179688 156.660156 29.632812 C 156.597656 37.285156 156.492188 44.933594 156.625 52.585938 C 156.628906 52.921875 156.5 53.484375 156.996094 53.46875 C 157.445312 53.453125 157.25 52.910156 157.257812 52.601562 C 157.460938 46.984375 157.027344 41.371094 157.207031 35.75 C 157.378906 30.449219 157.25 25.140625 157.25 19.835938 C 157.246094 19.511719 157.347656 19.148438 157.019531 18.832031 C 156.808594 18.953125 156.800781 19.105469 156.800781 19.269531 Z M 200.824219 36.316406 C 200.640625 36.410156 200.472656 36.542969 200.320312 36.6875 C 198.230469 38.667969 196.164062 40.671875 194.050781 42.632812 C 191.59375 44.914062 189.066406 47.125 186.625 49.425781 C 183.167969 52.691406 179.820312 56.066406 176.53125 59.5 C 176.3125 59.730469 176.105469 59.96875 175.90625 60.214844 C 175.804688 60.339844 175.726562 60.507812 175.859375 60.644531 C 176.03125 60.820312 176.199219 60.707031 176.339844 60.570312 C 176.714844 60.199219 177.078125 59.816406 177.453125 59.445312 C 179.445312 57.476562 181.535156 55.597656 183.410156 53.523438 C 186.089844 50.554688 188.945312 47.785156 191.992188 45.199219 C 194.960938 42.683594 197.695312 39.925781 200.492188 37.230469 C 200.71875 37.015625 200.910156 36.761719 201.089844 36.5625 C 201.078125 36.320312 200.945312 36.257812 200.824219 36.316406 Z M 113.292969 35.585938 C 113.433594 36.003906 113.773438 36.273438 114.070312 36.5625 C 120.5 42.878906 126.585938 49.535156 133.007812 55.855469 C 134.441406 57.265625 135.800781 58.742188 137.152344 60.226562 C 137.300781 60.394531 137.496094 60.652344 137.746094 60.429688 C 137.996094 60.203125 137.753906 60 137.597656 59.828125 C 137.027344 59.207031 136.460938 58.578125 135.875 57.964844 C 132.070312 54 128.078125 50.214844 124.226562 46.292969 C 121.191406 43.203125 118.335938 39.9375 115.15625 36.980469 C 114.59375 36.457031 114.019531 35.9375 113.449219 35.414062 C 113.394531 35.472656 113.34375 35.527344 113.292969 35.585938 Z M 141.761719 57.214844 C 141.695312 56.601562 141.3125 56.121094 140.992188 55.628906 C 138.367188 51.601562 135.785156 47.550781 133.023438 43.617188 C 132.449219 42.792969 131.882812 41.964844 131.300781 41.148438 C 131.199219 41.007812 131.058594 40.8125 130.851562 40.96875 C 130.683594 41.09375 130.828125 41.257812 130.894531 41.390625 C 130.957031 41.507812 131.03125 41.617188 131.105469 41.726562 C 133.992188 45.957031 137.03125 50.085938 139.589844 54.53125 C 140.160156 55.519531 140.898438 56.410156 141.558594 57.34375 C 141.625 57.300781 141.695312 57.257812 141.761719 57.214844 Z M 151.851562 53.5 C 151.851562 52.671875 151.527344 51.90625 151.375 51.105469 C 150.363281 45.804688 149.367188 40.5 148.351562 35.199219 C 148.285156 34.835938 148.292969 34.160156 147.914062 34.242188 C 147.441406 34.339844 147.707031 34.949219 147.785156 35.332031 C 148.792969 40.175781 150 44.980469 150.613281 49.902344 C 150.777344 51.253906 151.171875 52.5625 151.582031 53.898438 C 151.878906 53.765625 151.855469 53.621094 151.851562 53.5 Z M 133.441406 63.597656 C 132.640625 62.859375 131.730469 62.269531 130.835938 61.65625 C 127.875 59.617188 124.910156 57.585938 122.070312 55.371094 C 121.175781 54.675781 120.226562 54.046875 119.289062 53.402344 C 119.109375 53.277344 118.828125 53.105469 118.671875 53.390625 C 118.546875 53.617188 118.816406 53.757812 118.976562 53.875 C 119.511719 54.261719 120.054688 54.640625 120.605469 55.011719 C 121.546875 55.644531 122.515625 56.242188 123.441406 56.898438 C 126.679688 59.191406 129.722656 61.742188 133.039062 63.925781 C 133.304688 64.101562 133.515625 64.453125 133.953125 64.28125 C 133.898438 63.953125 133.644531 63.789062 133.441406 63.597656 Z M 128.707031 74.203125 C 128.589844 74.144531 128.480469 74.050781 128.359375 74.03125 C 125.882812 73.613281 123.5 72.800781 121.039062 72.328125 C 118.078125 71.761719 115.234375 70.734375 112.289062 70.121094 C 111.765625 70.011719 111.214844 69.746094 110.609375 70.023438 C 110.886719 70.414062 111.269531 70.4375 111.621094 70.527344 C 113.972656 71.125 116.339844 71.664062 118.710938 72.183594 C 121.132812 72.714844 123.503906 73.453125 125.910156 74.054688 C 126.808594 74.277344 127.734375 74.476562 128.667969 74.398438 C 128.679688 74.332031 128.691406 74.265625 128.707031 74.203125 Z M 180.496094 64.820312 C 181.226562 64.300781 181.945312 63.761719 182.675781 63.238281 C 186.175781 60.738281 189.679688 58.246094 193.179688 55.738281 C 193.582031 55.445312 193.949219 55.097656 194.320312 54.757812 C 194.441406 54.648438 194.660156 54.507812 194.46875 54.308594 C 194.332031 54.167969 194.171875 54.316406 194.046875 54.398438 C 193.4375 54.816406 192.839844 55.25 192.230469 55.667969 C 190.15625 57.085938 188.367188 58.871094 186.222656 60.195312 C 184.222656 61.433594 182.304688 62.789062 180.449219 64.238281 C 180.164062 64.460938 179.824219 64.640625 179.726562 65.082031 C 180.109375 65.203125 180.292969 64.964844 180.496094 64.820312 Z M 173.011719 55.59375 C 174.984375 52.414062 176.972656 49.242188 179.21875 46.238281 C 180.070312 45.097656 180.828125 43.890625 181.535156 42.652344 C 181.664062 42.429688 181.890625 42.105469 181.632812 41.945312 C 181.347656 41.765625 181.199219 42.148438 181.070312 42.355469 C 178.34375 46.871094 175.25 51.144531 172.402344 55.582031 C 172.054688 56.121094 171.636719 56.628906 171.523438 57.300781 C 172.226562 56.890625 172.613281 56.234375 173.011719 55.59375 Z M 161.953125 53.640625 C 162.023438 53.367188 162.113281 53.09375 162.164062 52.820312 C 163.195312 47.550781 164.121094 42.261719 165.355469 37.035156 C 165.480469 36.5 165.5625 35.949219 165.640625 35.402344 C 165.671875 35.199219 165.6875 34.925781 165.414062 34.890625 C 165.140625 34.859375 165.125 35.148438 165.058594 35.335938 C 165.023438 35.433594 165.027344 35.546875 165.011719 35.648438 C 164.289062 40.492188 163.195312 45.265625 162.234375 50.0625 C 162.003906 51.226562 161.769531 52.410156 161.746094 53.609375 C 161.8125 53.621094 161.882812 53.628906 161.953125 53.640625 Z M 201.757812 70.636719 C 195.992188 71.84375 190.222656 73.023438 184.539062 74.597656 C 185.722656 74.773438 201.394531 71.152344 201.757812 70.636719 Z M 108.613281 69.648438 C 108.691406 69.660156 108.824219 69.574219 108.855469 69.5 C 108.921875 69.34375 108.792969 69.257812 108.664062 69.222656 C 107.75 68.964844 106.851562 68.609375 105.855469 68.722656 C 106.710938 69.230469 107.628906 69.539062 108.613281 69.648438 Z M 128.285156 37.15625 C 128.21875 37.140625 128.085938 37.148438 128.078125 37.175781 C 128.046875 37.265625 128.023438 37.386719 128.066406 37.460938 C 128.425781 38.140625 128.871094 38.761719 129.375 39.339844 C 129.46875 39.449219 129.59375 39.503906 129.726562 39.4375 C 129.78125 39.410156 129.796875 39.3125 129.8125 39.285156 C 129.816406 38.972656 128.539062 37.222656 128.285156 37.15625 Z M 196.1875 52.722656 C 196.058594 52.824219 195.976562 52.996094 196.078125 53.140625 C 196.195312 53.308594 196.367188 53.214844 196.5 53.136719 C 197.171875 52.726562 197.769531 52.234375 198.195312 51.542969 C 197.421875 51.789062 196.792969 52.242188 196.1875 52.722656 Z M 147.328125 32.042969 C 147.363281 32.1875 147.414062 32.371094 147.621094 32.34375 C 147.773438 32.324219 147.839844 32.191406 147.804688 32.050781 C 147.613281 31.207031 147.578125 30.3125 146.980469 29.589844 C 146.910156 30.4375 147.136719 31.238281 147.328125 32.042969 Z M 166.429688 30.617188 C 166.4375 30.539062 166.359375 30.402344 166.289062 30.367188 C 166.128906 30.296875 166.046875 30.441406 166.015625 30.558594 C 165.824219 31.328125 165.539062 32.089844 165.820312 32.917969 C 166.339844 32.226562 166.3125 31.402344 166.429688 30.617188 Z M 184.367188 37.878906 C 183.765625 38.65625 182.972656 39.308594 182.78125 40.347656 C 183.453125 39.617188 184.152344 38.898438 184.367188 37.878906 Z M 114.101562 50.375 C 114.644531 51.136719 115.421875 51.578125 116.300781 51.894531 C 115.726562 51.164062 115.046875 50.578125 114.101562 50.375 Z M 203.746094 70.273438 C 204.609375 70.125 205.53125 70.175781 206.234375 69.507812 C 205.363281 69.640625 204.429688 69.570312 203.746094 70.273438 Z M 203.746094 70.273438 " fill-opacity="1" fill-rule="nonzero"/><path fill="#000000" d="M 187.078125 9.480469 C 187.238281 9.980469 186.964844 10.34375 186.808594 10.71875 C 185.140625 14.6875 183.066406 18.460938 181.167969 22.320312 C 177.976562 28.804688 174.679688 35.230469 171.972656 41.949219 C 170.367188 45.929688 168.578125 49.84375 166.933594 53.816406 C 166.808594 54.128906 166.691406 54.746094 166.3125 54.574219 C 165.84375 54.359375 166.285156 53.882812 166.421875 53.554688 C 168.464844 48.605469 170.480469 43.644531 172.582031 38.722656 C 174.71875 33.722656 177.289062 28.929688 179.683594 24.046875 C 181.96875 19.382812 184.292969 14.730469 186.605469 10.078125 C 186.707031 9.871094 186.75 9.617188 187.078125 9.480469 Z M 128.21875 9.921875 C 128.609375 11.234375 128.988281 12.550781 129.519531 13.816406 C 131.398438 18.289062 133.480469 22.695312 134.992188 27.296875 C 138.03125 36.542969 141.964844 45.449219 145.21875 54.609375 C 145.320312 54.890625 145.339844 55.453125 145.800781 55.28125 C 146.203125 55.128906 145.839844 54.726562 145.757812 54.457031 C 145.007812 51.957031 144.023438 49.535156 143.0625 47.113281 C 138.167969 34.769531 133.605469 22.292969 128.761719 9.929688 C 128.660156 9.675781 128.625 9.351562 128.21875 9.261719 C 128.089844 9.519531 128.160156 9.71875 128.21875 9.921875 Z M 183.871094 69 C 187.699219 67.257812 191.511719 65.496094 195.328125 63.734375 C 201.183594 61.03125 206.976562 58.191406 212.867188 55.554688 C 217.402344 53.523438 222.019531 51.671875 226.375 49.257812 C 226.695312 49.082031 227.109375 49.007812 227.355469 48.402344 C 212.117188 55.15625 197.296875 62.363281 182.339844 69.292969 C 182.929688 69.464844 183.40625 69.210938 183.871094 69 Z M 187.082031 79.746094 C 192.324219 79.585938 197.570312 79.914062 202.816406 79.726562 C 206.574219 79.589844 210.335938 79.839844 214.097656 79.90625 C 218.789062 79.988281 223.46875 79.71875 228.152344 79.542969 C 230.058594 79.46875 231.964844 79.414062 233.871094 79.347656 C 234.078125 79.339844 234.378906 79.339844 234.371094 79.082031 C 234.359375 78.773438 234.042969 78.898438 233.859375 78.902344 C 232.773438 78.9375 231.691406 78.996094 230.605469 79.039062 C 221.417969 79.394531 212.222656 79.085938 203.035156 79.378906 C 197.34375 79.5625 191.648438 79.015625 185.953125 79.28125 C 185.625 79.292969 185.269531 79.195312 184.949219 79.554688 C 185.679688 79.78125 186.386719 79.769531 187.082031 79.746094 Z M 127.230469 79.09375 C 126.144531 79.0625 125.058594 79.050781 123.972656 79.023438 C 119.46875 78.914062 114.980469 79.429688 110.476562 79.367188 C 106.324219 79.308594 102.167969 79.144531 98.011719 79.085938 C 91.84375 79 85.671875 79.125 79.503906 79.214844 C 79.257812 79.21875 78.863281 79.121094 78.847656 79.46875 C 78.832031 79.878906 79.242188 79.707031 79.46875 79.710938 C 82.433594 79.730469 85.398438 79.765625 88.367188 79.734375 C 99.035156 79.632812 109.707031 79.792969 120.375 79.550781 C 122.574219 79.5 124.773438 79.546875 126.96875 79.53125 C 127.292969 79.527344 127.664062 79.632812 127.941406 79.324219 C 127.765625 79.042969 127.476562 79.101562 127.230469 79.09375 Z M 87.515625 48.808594 C 92.792969 51.265625 98.070312 53.703125 103.140625 56.585938 C 110.0625 60.527344 117.433594 63.601562 124.449219 67.375 C 126.285156 68.363281 128.230469 69.15625 130.128906 70.023438 C 130.285156 70.097656 130.523438 70.351562 130.652344 70.027344 C 130.742188 69.8125 130.476562 69.742188 130.320312 69.660156 C 129.804688 69.386719 129.292969 69.109375 128.773438 68.855469 C 124.355469 66.683594 119.910156 64.574219 115.523438 62.34375 C 106.089844 57.550781 96.648438 52.769531 87.15625 48.097656 C 86.929688 47.984375 86.71875 47.769531 86.335938 47.972656 C 86.636719 48.449219 87.097656 48.617188 87.515625 48.808594 Z M 156.800781 19.269531 C 156.753906 22.722656 156.691406 26.179688 156.660156 29.632812 C 156.597656 37.285156 156.492188 44.933594 156.625 52.585938 C 156.628906 52.921875 156.5 53.484375 156.996094 53.46875 C 157.445312 53.453125 157.25 52.910156 157.257812 52.601562 C 157.460938 46.984375 157.027344 41.371094 157.207031 35.75 C 157.378906 30.449219 157.25 25.140625 157.25 19.835938 C 157.246094 19.511719 157.347656 19.148438 157.019531 18.832031 C 156.808594 18.953125 156.800781 19.105469 156.800781 19.269531 Z M 200.824219 36.316406 C 200.640625 36.410156 200.472656 36.542969 200.320312 36.6875 C 198.230469 38.667969 196.164062 40.671875 194.050781 42.632812 C 191.59375 44.914062 189.066406 47.125 186.625 49.425781 C 183.167969 52.691406 179.820312 56.066406 176.53125 59.5 C 176.3125 59.730469 176.105469 59.96875 175.90625 60.214844 C 175.804688 60.339844 175.726562 60.507812 175.859375 60.644531 C 176.03125 60.820312 176.199219 60.707031 176.339844 60.570312 C 176.714844 60.199219 177.078125 59.816406 177.453125 59.445312 C 179.445312 57.476562 181.535156 55.597656 183.410156 53.523438 C 186.089844 50.554688 188.945312 47.785156 191.992188 45.199219 C 194.960938 42.683594 197.695312 39.925781 200.492188 37.230469 C 200.71875 37.015625 200.910156 36.761719 201.089844 36.5625 C 201.078125 36.320312 200.945312 36.257812 200.824219 36.316406 Z M 113.292969 35.585938 C 113.433594 36.003906 113.773438 36.273438 114.070312 36.5625 C 120.5 42.878906 126.585938 49.535156 133.007812 55.855469 C 134.441406 57.265625 135.800781 58.742188 137.152344 60.226562 C 137.300781 60.394531 137.496094 60.652344 137.746094 60.429688 C 137.996094 60.203125 137.753906 60 137.597656 59.828125 C 137.027344 59.207031 136.460938 58.578125 135.875 57.964844 C 132.070312 54 128.078125 50.214844 124.226562 46.292969 C 121.191406 43.203125 118.335938 39.9375 115.15625 36.980469 C 114.59375 36.457031 114.019531 35.9375 113.449219 35.414062 C 113.394531 35.472656 113.34375 35.527344 113.292969 35.585938 Z M 141.761719 57.214844 C 141.695312 56.601562 141.3125 56.121094 140.992188 55.628906 C 138.367188 51.601562 135.785156 47.550781 133.023438 43.617188 C 132.449219 42.792969 131.882812 41.964844 131.300781 41.148438 C 131.199219 41.007812 131.058594 40.8125 130.851562 40.96875 C 130.683594 41.09375 130.828125 41.257812 130.894531 41.390625 C 130.957031 41.507812 131.03125 41.617188 131.105469 41.726562 C 133.992188 45.957031 137.03125 50.085938 139.589844 54.53125 C 140.160156 55.519531 140.898438 56.410156 141.558594 57.34375 C 141.625 57.300781 141.695312 57.257812 141.761719 57.214844 Z M 151.851562 53.5 C 151.851562 52.671875 151.527344 51.90625 151.375 51.105469 C 150.363281 45.804688 149.367188 40.5 148.351562 35.199219 C 148.285156 34.835938 148.292969 34.160156 147.914062 34.242188 C 147.441406 34.339844 147.707031 34.949219 147.785156 35.332031 C 148.792969 40.175781 150 44.980469 150.613281 49.902344 C 150.777344 51.253906 151.171875 52.5625 151.582031 53.898438 C 151.878906 53.765625 151.855469 53.621094 151.851562 53.5 Z M 133.441406 63.597656 C 132.640625 62.859375 131.730469 62.269531 130.835938 61.65625 C 127.875 59.617188 124.910156 57.585938 122.070312 55.371094 C 121.175781 54.675781 120.226562 54.046875 119.289062 53.402344 C 119.109375 53.277344 118.828125 53.105469 118.671875 53.390625 C 118.546875 53.617188 118.816406 53.757812 118.976562 53.875 C 119.511719 54.261719 120.054688 54.640625 120.605469 55.011719 C 121.546875 55.644531 122.515625 56.242188 123.441406 56.898438 C 126.679688 59.191406 129.722656 61.742188 133.039062 63.925781 C 133.304688 64.101562 133.515625 64.453125 133.953125 64.28125 C 133.898438 63.953125 133.644531 63.789062 133.441406 63.597656 Z M 128.707031 74.203125 C 128.589844 74.144531 128.480469 74.050781 128.359375 74.03125 C 125.882812 73.613281 123.5 72.800781 121.039062 72.328125 C 118.078125 71.761719 115.234375 70.734375 112.289062 70.121094 C 111.765625 70.011719 111.214844 69.746094 110.609375 70.023438 C 110.886719 70.414062 111.269531 70.4375 111.621094 70.527344 C 113.972656 71.125 116.339844 71.664062 118.710938 72.183594 C 121.132812 72.714844 123.503906 73.453125 125.910156 74.054688 C 126.808594 74.277344 127.734375 74.476562 128.667969 74.398438 C 128.679688 74.332031 128.691406 74.265625 128.707031 74.203125 Z M 180.496094 64.820312 C 181.226562 64.300781 181.945312 63.761719 182.675781 63.238281 C 186.175781 60.738281 189.679688 58.246094 193.179688 55.738281 C 193.582031 55.445312 193.949219 55.097656 194.320312 54.757812 C 194.441406 54.648438 194.660156 54.507812 194.46875 54.308594 C 194.332031 54.167969 194.171875 54.316406 194.046875 54.398438 C 193.4375 54.816406 192.839844 55.25 192.230469 55.667969 C 190.15625 57.085938 188.367188 58.871094 186.222656 60.195312 C 184.222656 61.433594 182.304688 62.789062 180.449219 64.238281 C 180.164062 64.460938 179.824219 64.640625 179.726562 65.082031 C 180.109375 65.203125 180.292969 64.964844 180.496094 64.820312 Z M 173.011719 55.59375 C 174.984375 52.414062 176.972656 49.242188 179.21875 46.238281 C 180.070312 45.097656 180.828125 43.890625 181.535156 42.652344 C 181.664062 42.429688 181.890625 42.105469 181.632812 41.945312 C 181.347656 41.765625 181.199219 42.148438 181.070312 42.355469 C 178.34375 46.871094 175.25 51.144531 172.402344 55.582031 C 172.054688 56.121094 171.636719 56.628906 171.523438 57.300781 C 172.226562 56.890625 172.613281 56.234375 173.011719 55.59375 Z M 161.953125 53.640625 C 162.023438 53.367188 162.113281 53.09375 162.164062 52.820312 C 163.195312 47.550781 164.121094 42.261719 165.355469 37.035156 C 165.480469 36.5 165.5625 35.949219 165.640625 35.402344 C 165.671875 35.199219 165.6875 34.925781 165.414062 34.890625 C 165.140625 34.859375 165.125 35.148438 165.058594 35.335938 C 165.023438 35.433594 165.027344 35.546875 165.011719 35.648438 C 164.289062 40.492188 163.195312 45.265625 162.234375 50.0625 C 162.003906 51.226562 161.769531 52.410156 161.746094 53.609375 C 161.8125 53.621094 161.882812 53.628906 161.953125 53.640625 Z M 201.757812 70.636719 C 195.992188 71.84375 190.222656 73.023438 184.539062 74.597656 C 185.722656 74.773438 201.394531 71.152344 201.757812 70.636719 Z M 108.613281 69.648438 C 108.691406 69.660156 108.824219 69.574219 108.855469 69.5 C 108.921875 69.34375 108.792969 69.257812 108.664062 69.222656 C 107.75 68.964844 106.851562 68.609375 105.855469 68.722656 C 106.710938 69.230469 107.628906 69.539062 108.613281 69.648438 Z M 128.285156 37.15625 C 128.21875 37.140625 128.085938 37.148438 128.078125 37.175781 C 128.046875 37.265625 128.023438 37.386719 128.066406 37.460938 C 128.425781 38.140625 128.871094 38.761719 129.375 39.339844 C 129.46875 39.449219 129.59375 39.503906 129.726562 39.4375 C 129.78125 39.410156 129.796875 39.3125 129.8125 39.285156 C 129.816406 38.972656 128.539062 37.222656 128.285156 37.15625 Z M 196.1875 52.722656 C 196.058594 52.824219 195.976562 52.996094 196.078125 53.140625 C 196.195312 53.308594 196.367188 53.214844 196.5 53.136719 C 197.171875 52.726562 197.769531 52.234375 198.195312 51.542969 C 197.421875 51.789062 196.792969 52.242188 196.1875 52.722656 Z M 147.328125 32.042969 C 147.363281 32.1875 147.414062 32.371094 147.621094 32.34375 C 147.773438 32.324219 147.839844 32.191406 147.804688 32.050781 C 147.613281 31.207031 147.578125 30.3125 146.980469 29.589844 C 146.910156 30.4375 147.136719 31.238281 147.328125 32.042969 Z M 166.429688 30.617188 C 166.4375 30.539062 166.359375 30.402344 166.289062 30.367188 C 166.128906 30.296875 166.046875 30.441406 166.015625 30.558594 C 165.824219 31.328125 165.539062 32.089844 165.820312 32.917969 C 166.339844 32.226562 166.3125 31.402344 166.429688 30.617188 Z M 184.367188 37.878906 C 183.765625 38.65625 182.972656 39.308594 182.78125 40.347656 C 183.453125 39.617188 184.152344 38.898438 184.367188 37.878906 Z M 114.101562 50.375 C 114.644531 51.136719 115.421875 51.578125 116.300781 51.894531 C 115.726562 51.164062 115.046875 50.578125 114.101562 50.375 Z M 203.746094 70.273438 C 204.609375 70.125 205.53125 70.175781 206.234375 69.507812 C 205.363281 69.640625 204.429688 69.570312 203.746094 70.273438 Z M 203.746094 70.273438 " fill-opacity="1" fill-rule="nonzero"/></g><g fill="#000000" fill-opacity="1"><g transform="translate(48.017441, 103.126836)"><g><path d="M 0.457031 0 L 11.457031 0 C 11.109375 -1.578125 10.941406 -2.824219 10.835938 -4.644531 C 9.96875 -1.789062 7.421875 -0.457031 4.660156 -0.457031 C 4.265625 -2.429688 4.066406 -4.582031 4.066406 -6.296875 C 4.066406 -6.433594 4.15625 -6.523438 4.308594 -6.523438 L 5.433594 -6.523438 C 6.796875 -6.523438 7.84375 -6.085938 9.011719 -4.414062 C 8.878906 -6.25 8.878906 -7.269531 9.011719 -9.089844 C 7.816406 -7.390625 6.8125 -6.980469 5.433594 -6.980469 L 4.308594 -6.980469 C 4.171875 -6.980469 4.082031 -7.085938 4.082031 -7.222656 C 4.128906 -9.589844 4.324219 -11.394531 4.660156 -13.050781 C 7.433594 -13.050781 9.96875 -11.730469 10.835938 -8.863281 C 10.941406 -10.683594 11.109375 -11.925781 11.457031 -13.503906 L 0.457031 -13.503906 C 1.382812 -9.363281 1.382812 -4.144531 0.457031 0 Z M 0.457031 0 "/></g></g></g><g fill="#000000" fill-opacity="1"><g transform="translate(60.399174, 103.126836)"><g><path d="M 0.457031 0 L 3.566406 0 C 2.09375 -2.503906 1.53125 -4.917969 1.625 -7.769531 C 1.652344 -8.753906 1.714844 -9.742188 1.820312 -10.699219 C 4.824219 -6.464844 6.738281 -1.578125 7.175781 0 L 11.640625 -10.714844 C 12.046875 -7.175781 11.898438 -3.246094 11.167969 0 L 15.460938 0 C 14.550781 -4.144531 14.550781 -9.363281 15.460938 -13.503906 L 12.320312 -13.503906 L 8.96875 -5.339844 C 7.148438 -7.738281 5.449219 -10.851562 4.75 -13.503906 L 0.457031 -13.503906 C 1.382812 -9.363281 1.382812 -4.144531 0.457031 0 Z M 0.457031 0 "/></g></g></g><g fill="#000000" fill-opacity="1"><g transform="translate(76.938702, 103.126836)"><g><path d="M 0.457031 0 L 4.75 0 C 4.429688 -1.472656 4.21875 -3.066406 4.128906 -4.703125 L 5.871094 -4.703125 C 13.855469 -4.71875 14.277344 -13.488281 5.871094 -13.503906 L 0.46875 -13.503906 C 1.382812 -9.363281 1.382812 -4.144531 0.457031 0 Z M 4.082031 -7.558594 C 4.082031 -9.179688 4.15625 -13.003906 6.34375 -13.003906 C 7.511719 -13.003906 8.179688 -12.140625 8.527344 -11.09375 C 9.574219 -8.027344 7.570312 -5.25 5.570312 -5.25 L 4.097656 -5.25 C 4.066406 -6.28125 4.082031 -6.660156 4.082031 -7.558594 Z M 4.082031 -7.558594 "/></g></g></g><g fill="#000000" fill-opacity="1"><g transform="translate(89.593575, 103.126836)"><g><path d="M 7.054688 0.304688 C 10.957031 0.304688 13.65625 -2.851562 13.65625 -6.753906 C 13.65625 -10.652344 10.957031 -13.808594 7.054688 -13.808594 C 3.15625 -13.808594 0.457031 -10.652344 0.457031 -6.753906 C 0.457031 -2.851562 3.15625 0.304688 7.054688 0.304688 Z M 4.1875 -6.980469 C 4.992188 -11.289062 6.617188 -13.230469 7.9375 -13.230469 C 9.4375 -13.230469 10.578125 -10.773438 9.773438 -6.417969 C 9.210938 -3.292969 7.664062 -0.273438 5.539062 -0.273438 C 3.824219 -0.273438 3.566406 -3.671875 4.1875 -6.980469 Z M 4.1875 -6.980469 "/></g></g></g><g fill="#000000" fill-opacity="1"><g transform="translate(104.327346, 103.126836)"><g><path d="M 4.050781 0.304688 L 6.980469 0 L 9.148438 -7.90625 C 9.195312 -8.089844 9.242188 -8.253906 9.300781 -8.4375 C 10.441406 -5.449219 11.714844 -1.367188 11.714844 0.304688 L 14.597656 0 L 16.117188 -5.539062 C 17.390625 -10.183594 18.164062 -11.804688 19.4375 -13.503906 L 14.917969 -13.503906 C 16.875 -11.957031 16.890625 -9.953125 15.660156 -5.449219 L 14.6875 -1.898438 C 14.113281 -3.082031 11.457031 -9.9375 12.519531 -13.503906 L 6.949219 -13.503906 C 7.707031 -12.503906 8.101562 -11.53125 8.46875 -10.578125 C 8.785156 -9.710938 8.878906 -8.632812 8.664062 -7.875 C 8.648438 -7.828125 8.648438 -7.800781 8.632812 -7.753906 L 7.027344 -1.898438 C 7.027344 -3.203125 3.992188 -10.589844 4.855469 -13.503906 L -0.546875 -13.503906 C 1.09375 -10.742188 4.050781 -4.460938 4.050781 0.304688 Z M 4.050781 0.304688 "/></g></g></g><g fill="#000000" fill-opacity="1"><g transform="translate(123.825892, 103.126836)"><g><path d="M 0.457031 0 L 11.457031 0 C 11.109375 -1.578125 10.941406 -2.824219 10.835938 -4.644531 C 9.96875 -1.789062 7.421875 -0.457031 4.660156 -0.457031 C 4.265625 -2.429688 4.066406 -4.582031 4.066406 -6.296875 C 4.066406 -6.433594 4.15625 -6.523438 4.308594 -6.523438 L 5.433594 -6.523438 C 6.796875 -6.523438 7.84375 -6.085938 9.011719 -4.414062 C 8.878906 -6.25 8.878906 -7.269531 9.011719 -9.089844 C 7.816406 -7.390625 6.8125 -6.980469 5.433594 -6.980469 L 4.308594 -6.980469 C 4.171875 -6.980469 4.082031 -7.085938 4.082031 -7.222656 C 4.128906 -9.589844 4.324219 -11.394531 4.660156 -13.050781 C 7.433594 -13.050781 9.96875 -11.730469 10.835938 -8.863281 C 10.941406 -10.683594 11.109375 -11.925781 11.457031 -13.503906 L 0.457031 -13.503906 C 1.382812 -9.363281 1.382812 -4.144531 0.457031 0 Z M 0.457031 0 "/></g></g></g><g fill="#000000" fill-opacity="1"><g transform="translate(136.207628, 103.126836)"><g><path d="M 4.75 0 C 4.429688 -1.472656 4.097656 -3.808594 4.082031 -5.933594 L 5.570312 -5.933594 C 6.84375 -3.734375 7.328125 -1.394531 7.207031 0 L 12.550781 0 C 11.320312 -1.183594 9.574219 -4.007812 8.421875 -6.238281 C 13.992188 -7.617188 13.308594 -13.488281 5.871094 -13.503906 L 0.46875 -13.503906 C 1.382812 -9.363281 1.382812 -4.144531 0.457031 0 Z M 4.066406 -6.480469 C 4.066406 -9.667969 4.523438 -12.988281 6.417969 -12.988281 C 7.785156 -12.988281 8.46875 -11.609375 8.710938 -10.457031 C 9.164062 -8.210938 7.980469 -6.480469 5.523438 -6.480469 Z M 4.066406 -6.480469 "/></g></g></g><g fill="#000000" fill-opacity="1"><g transform="translate(149.287388, 103.126836)"><g><path d="M 0.457031 0 L 11.457031 0 C 11.109375 -1.578125 10.941406 -2.824219 10.835938 -4.644531 C 9.96875 -1.789062 7.421875 -0.457031 4.660156 -0.457031 C 4.265625 -2.429688 4.066406 -4.582031 4.066406 -6.296875 C 4.066406 -6.433594 4.15625 -6.523438 4.308594 -6.523438 L 5.433594 -6.523438 C 6.796875 -6.523438 7.84375 -6.085938 9.011719 -4.414062 C 8.878906 -6.25 8.878906 -7.269531 9.011719 -9.089844 C 7.816406 -7.390625 6.8125 -6.980469 5.433594 -6.980469 L 4.308594 -6.980469 C 4.171875 -6.980469 4.082031 -7.085938 4.082031 -7.222656 C 4.128906 -9.589844 4.324219 -11.394531 4.660156 -13.050781 C 7.433594 -13.050781 9.96875 -11.730469 10.835938 -8.863281 C 10.941406 -10.683594 11.109375 -11.925781 11.457031 -13.503906 L 0.457031 -13.503906 C 1.382812 -9.363281 1.382812 -4.144531 0.457031 0 Z M 0.457031 0 "/></g></g></g><g fill="#000000" fill-opacity="1"><g transform="translate(161.669124, 103.126836)"><g><path d="M 6.707031 0 C 14.933594 0.015625 15.039062 -13.488281 6.8125 -13.503906 L 0.457031 -13.503906 C 1.382812 -9.363281 1.382812 -4.144531 0.457031 0 Z M 4.066406 -2.851562 L 4.066406 -7.101562 C 4.066406 -10.289062 5.386719 -12.988281 7.328125 -12.988281 C 7.496094 -12.988281 7.664062 -12.972656 7.828125 -12.929688 C 9.148438 -12.625 10.183594 -10.578125 9.726562 -6.707031 C 9.273438 -2.851562 7.070312 -0.5 5.554688 -0.5 C 4.703125 -0.5 4.066406 -1.230469 4.066406 -2.851562 Z M 4.066406 -2.851562 "/></g></g></g><g fill="#000000" fill-opacity="1"><g transform="translate(175.674525, 103.126836)"><g/></g></g><g fill="#000000" fill-opacity="1"><g transform="translate(180.241425, 103.126836)"><g><path d="M 0.457031 0 L 4.75 0 C 4.308594 -2.003906 4.082031 -4.265625 4.066406 -6.539062 L 9.273438 -6.539062 C 9.257812 -4.265625 9.027344 -2.003906 8.574219 0 L 12.867188 0 C 11.957031 -4.144531 11.957031 -9.363281 12.867188 -13.503906 L 8.574219 -13.503906 C 9.011719 -11.503906 9.257812 -9.257812 9.273438 -6.996094 L 4.066406 -6.996094 C 4.082031 -9.257812 4.308594 -11.503906 4.75 -13.503906 L 0.457031 -13.503906 C 1.382812 -9.363281 1.382812 -4.144531 0.457031 0 Z M 0.457031 0 "/></g></g></g><g fill="#000000" fill-opacity="1"><g transform="translate(194.186129, 103.126836)"><g><path d="M 0.457031 0 L 11.457031 0 C 11.109375 -1.578125 10.941406 -2.824219 10.835938 -4.644531 C 9.96875 -1.789062 7.421875 -0.457031 4.660156 -0.457031 C 4.265625 -2.429688 4.066406 -4.582031 4.066406 -6.296875 C 4.066406 -6.433594 4.15625 -6.523438 4.308594 -6.523438 L 5.433594 -6.523438 C 6.796875 -6.523438 7.84375 -6.085938 9.011719 -4.414062 C 8.878906 -6.25 8.878906 -7.269531 9.011719 -9.089844 C 7.816406 -7.390625 6.8125 -6.980469 5.433594 -6.980469 L 4.308594 -6.980469 C 4.171875 -6.980469 4.082031 -7.085938 4.082031 -7.222656 C 4.128906 -9.589844 4.324219 -11.394531 4.660156 -13.050781 C 7.433594 -13.050781 9.96875 -11.730469 10.835938 -8.863281 C 10.941406 -10.683594 11.109375 -11.925781 11.457031 -13.503906 L 0.457031 -13.503906 C 1.382812 -9.363281 1.382812 -4.144531 0.457031 0 Z M 0.457031 0 "/></g></g></g><g fill="#000000" fill-opacity="1"><g transform="translate(206.567864, 103.126836)"><g><path d="M 0 0 L 4.476562 0 C 3.125 -1.078125 2.730469 -2.398438 3.171875 -4.523438 L 8.390625 -4.523438 C 8.832031 -2.761719 9.011719 -1.078125 8.695312 0 L 14.113281 0 C 11.09375 -4.992188 8.742188 -12.898438 8.742188 -13.808594 L 6.085938 -13.503906 L 3.777344 -7.800781 C 2.019531 -3.414062 1.230469 -1.609375 0 0 Z M 3.277344 -4.992188 C 3.488281 -5.84375 3.839844 -6.8125 4.292969 -7.953125 L 5.554688 -11.09375 C 6.511719 -9.878906 7.601562 -7.40625 8.269531 -4.992188 Z M 3.277344 -4.992188 "/></g></g></g><g fill="#000000" fill-opacity="1"><g transform="translate(220.876754, 103.126836)"><g><path d="M 0.457031 -13.503906 C 1.382812 -9.363281 1.382812 -4.144531 0.457031 0 L 10.53125 0 C 10.183594 -1.910156 10.046875 -2.566406 9.894531 -4.644531 C 9.179688 -2.292969 6.539062 -0.457031 5.007812 -0.457031 L 4.660156 -0.457031 C 3.824219 -4.597656 3.855469 -9.453125 4.75 -13.503906 Z M 0.457031 -13.503906 "/></g></g></g><g fill="#000000" fill-opacity="1"><g transform="translate(231.938314, 103.126836)"><g><path d="M 4.75 0 C 3.839844 -4.144531 3.839844 -9.363281 4.75 -13.503906 L 0.457031 -13.503906 C 1.382812 -9.363281 1.382812 -4.144531 0.457031 0 Z M 4.75 0 "/></g></g></g><g fill="#000000" fill-opacity="1"><g transform="translate(237.764693, 103.126836)"><g><path d="M 3.566406 0 C 2.550781 -1.746094 1.625 -4.234375 1.609375 -6.496094 C 1.59375 -7.953125 1.667969 -9.40625 1.835938 -10.804688 C 5.144531 -6.890625 9.558594 -1.578125 10 0 L 12.867188 0 C 11.941406 -4.144531 11.941406 -9.363281 12.867188 -13.503906 L 9.757812 -13.503906 C 10.789062 -11.851562 11.683594 -9.40625 11.714844 -7.238281 C 11.730469 -6.480469 11.714844 -5.707031 11.667969 -4.960938 C 10.46875 -5.855469 5.449219 -10.851562 4.75 -13.503906 L 0.457031 -13.503906 C 1.382812 -9.363281 1.382812 -4.144531 0.457031 0 Z M 3.566406 0 "/></g></g></g><g fill="#000000" fill-opacity="1"><g transform="translate(251.709384, 103.126836)"><g><path d="M 7.207031 0.304688 C 8.4375 0.304688 8.96875 0.136719 9.53125 -0.046875 L 10.273438 -0.273438 C 10.5625 -0.347656 10.878906 -0.394531 11.214844 -0.394531 C 11.640625 -0.394531 12.078125 -0.320312 12.441406 -0.183594 L 12.914062 0 C 11.988281 -1.59375 11.988281 -4.355469 12.914062 -5.933594 L 8.617188 -5.933594 C 9.484375 -4.445312 9.53125 -1.925781 8.769531 -0.304688 C 8.542969 -0.242188 8.300781 -0.210938 8.042969 -0.210938 C 6.328125 -0.210938 4.355469 -1.730469 4.355469 -6.085938 C 4.355469 -10.257812 6.617188 -13.171875 8.679688 -13.171875 C 10.0625 -13.171875 11.367188 -11.851562 11.804688 -8.695312 C 11.910156 -10.394531 12.125 -12.003906 12.441406 -13.503906 L 12.292969 -13.460938 C 11.957031 -13.382812 11.578125 -13.339844 11.183594 -13.339844 C 10.699219 -13.339844 10.195312 -13.398438 9.757812 -13.519531 C 8.847656 -13.761719 8.484375 -13.808594 7.496094 -13.808594 C 3.308594 -13.792969 0.457031 -10.441406 0.457031 -6.539062 C 0.457031 -3.082031 3.203125 0.304688 7.207031 0.304688 Z M 7.207031 0.304688 "/></g></g></g><g fill="#000000" fill-opacity="1"><g transform="translate(118.679759, 122.81048)"><g><path d="M 3.25 0.0625 C 2.6875 0.0625 2.195312 -0.0546875 1.78125 -0.296875 C 1.375 -0.535156 1.0625 -0.882812 0.84375 -1.34375 C 0.625 -1.800781 0.515625 -2.335938 0.515625 -2.953125 C 0.515625 -3.578125 0.625 -4.113281 0.84375 -4.5625 C 1.0625 -5.007812 1.375 -5.351562 1.78125 -5.59375 C 2.195312 -5.84375 2.6875 -5.96875 3.25 -5.96875 C 3.65625 -5.96875 4.023438 -5.90625 4.359375 -5.78125 C 4.703125 -5.65625 5 -5.46875 5.25 -5.21875 L 5 -4.703125 C 4.71875 -4.941406 4.4375 -5.113281 4.15625 -5.21875 C 3.882812 -5.320312 3.582031 -5.375 3.25 -5.375 C 2.601562 -5.375 2.101562 -5.160156 1.75 -4.734375 C 1.394531 -4.316406 1.21875 -3.722656 1.21875 -2.953125 C 1.21875 -2.171875 1.394531 -1.566406 1.75 -1.140625 C 2.101562 -0.722656 2.601562 -0.515625 3.25 -0.515625 C 3.582031 -0.515625 3.882812 -0.566406 4.15625 -0.671875 C 4.4375 -0.785156 4.71875 -0.960938 5 -1.203125 L 5.25 -0.671875 C 5 -0.429688 4.703125 -0.25 4.359375 -0.125 C 4.023438 0 3.65625 0.0625 3.25 0.0625 Z M 3.25 0.0625 "/></g></g></g><g fill="#000000" fill-opacity="1"><g transform="translate(126.834492, 122.81048)"><g><path d="M 3.203125 0.0625 C 2.648438 0.0625 2.171875 -0.0546875 1.765625 -0.296875 C 1.367188 -0.535156 1.0625 -0.882812 0.84375 -1.34375 C 0.625 -1.800781 0.515625 -2.335938 0.515625 -2.953125 C 0.515625 -3.566406 0.617188 -4.097656 0.828125 -4.546875 C 1.046875 -5.003906 1.359375 -5.351562 1.765625 -5.59375 C 2.171875 -5.84375 2.648438 -5.96875 3.203125 -5.96875 C 3.753906 -5.96875 4.226562 -5.84375 4.625 -5.59375 C 5.03125 -5.351562 5.335938 -5.003906 5.546875 -4.546875 C 5.765625 -4.097656 5.875 -3.566406 5.875 -2.953125 C 5.875 -2.335938 5.765625 -1.800781 5.546875 -1.34375 C 5.328125 -0.894531 5.015625 -0.546875 4.609375 -0.296875 C 4.210938 -0.0546875 3.742188 0.0625 3.203125 0.0625 Z M 3.203125 -0.515625 C 3.816406 -0.515625 4.296875 -0.722656 4.640625 -1.140625 C 4.992188 -1.566406 5.171875 -2.171875 5.171875 -2.953125 C 5.171875 -3.734375 5 -4.332031 4.65625 -4.75 C 4.3125 -5.164062 3.828125 -5.375 3.203125 -5.375 C 2.566406 -5.375 2.070312 -5.160156 1.71875 -4.734375 C 1.375 -4.316406 1.203125 -3.722656 1.203125 -2.953125 C 1.203125 -2.171875 1.375 -1.566406 1.71875 -1.140625 C 2.070312 -0.722656 2.566406 -0.515625 3.203125 -0.515625 Z M 3.203125 -0.515625 "/></g></g></g><g fill="#000000" fill-opacity="1"><g transform="translate(135.718516, 122.81048)"><g><path d="M 3.03125 0.0625 C 2.257812 0.0625 1.675781 -0.132812 1.28125 -0.53125 C 0.882812 -0.9375 0.6875 -1.53125 0.6875 -2.3125 L 0.6875 -5.890625 L 1.359375 -5.890625 L 1.359375 -2.25 C 1.359375 -1.675781 1.5 -1.242188 1.78125 -0.953125 C 2.0625 -0.660156 2.476562 -0.515625 3.03125 -0.515625 C 3.570312 -0.515625 3.984375 -0.660156 4.265625 -0.953125 C 4.546875 -1.242188 4.6875 -1.675781 4.6875 -2.25 L 4.6875 -5.890625 L 5.359375 -5.890625 L 5.359375 -2.3125 C 5.359375 -1.53125 5.160156 -0.9375 4.765625 -0.53125 C 4.367188 -0.132812 3.789062 0.0625 3.03125 0.0625 Z M 3.03125 0.0625 "/></g></g></g><g fill="#000000" fill-opacity="1"><g transform="translate(144.262759, 122.81048)"><g><path d="M 4.8125 -5.890625 L 5.453125 -5.890625 L 5.453125 0 L 4.921875 0 L 1.359375 -4.75 L 1.359375 0 L 0.734375 0 L 0.734375 -5.890625 L 1.25 -5.890625 L 4.8125 -1.15625 Z M 4.8125 -5.890625 "/></g></g></g><g fill="#000000" fill-opacity="1"><g transform="translate(152.931305, 122.81048)"><g><path d="M 2.59375 0.0625 C 1.675781 0.0625 0.941406 -0.179688 0.390625 -0.671875 L 0.65625 -1.203125 C 0.945312 -0.953125 1.242188 -0.773438 1.546875 -0.671875 C 1.847656 -0.566406 2.203125 -0.515625 2.609375 -0.515625 C 3.085938 -0.515625 3.453125 -0.601562 3.703125 -0.78125 C 3.960938 -0.96875 4.09375 -1.234375 4.09375 -1.578125 C 4.09375 -1.773438 4.03125 -1.9375 3.90625 -2.0625 C 3.78125 -2.1875 3.613281 -2.28125 3.40625 -2.34375 C 3.207031 -2.414062 2.941406 -2.492188 2.609375 -2.578125 C 2.148438 -2.671875 1.773438 -2.773438 1.484375 -2.890625 C 1.191406 -3.015625 0.953125 -3.179688 0.765625 -3.390625 C 0.585938 -3.609375 0.5 -3.894531 0.5 -4.25 C 0.5 -4.59375 0.585938 -4.890625 0.765625 -5.140625 C 0.941406 -5.398438 1.191406 -5.601562 1.515625 -5.75 C 1.835938 -5.894531 2.21875 -5.96875 2.65625 -5.96875 C 3.0625 -5.96875 3.441406 -5.898438 3.796875 -5.765625 C 4.148438 -5.640625 4.445312 -5.457031 4.6875 -5.21875 L 4.421875 -4.703125 C 4.148438 -4.929688 3.867188 -5.097656 3.578125 -5.203125 C 3.296875 -5.316406 2.988281 -5.375 2.65625 -5.375 C 2.195312 -5.375 1.835938 -5.273438 1.578125 -5.078125 C 1.316406 -4.890625 1.1875 -4.625 1.1875 -4.28125 C 1.1875 -3.976562 1.296875 -3.753906 1.515625 -3.609375 C 1.742188 -3.460938 2.09375 -3.332031 2.5625 -3.21875 C 3.070312 -3.101562 3.472656 -2.992188 3.765625 -2.890625 C 4.054688 -2.785156 4.296875 -2.628906 4.484375 -2.421875 C 4.679688 -2.210938 4.78125 -1.9375 4.78125 -1.59375 C 4.78125 -1.257812 4.691406 -0.96875 4.515625 -0.71875 C 4.335938 -0.46875 4.082031 -0.273438 3.75 -0.140625 C 3.425781 -0.00390625 3.039062 0.0625 2.59375 0.0625 Z M 2.59375 0.0625 "/></g></g></g><g fill="#000000" fill-opacity="1"><g transform="translate(160.580514, 122.81048)"><g><path d="M 0.734375 0 L 0.734375 -5.890625 L 4.453125 -5.890625 L 4.453125 -5.328125 L 1.40625 -5.328125 L 1.40625 -3.28125 L 4.296875 -3.28125 L 4.296875 -2.703125 L 1.40625 -2.703125 L 1.40625 -0.5625 L 4.453125 -0.5625 L 4.453125 0 Z M 0.734375 0 "/></g></g></g><g fill="#000000" fill-opacity="1"><g transform="translate(167.93966, 122.81048)"><g><path d="M 0.734375 0 L 0.734375 -5.890625 L 1.40625 -5.890625 L 1.40625 -0.578125 L 4.359375 -0.578125 L 4.359375 0 Z M 0.734375 0 "/></g></g></g><g fill="#000000" fill-opacity="1"><g transform="translate(174.942447, 122.81048)"><g><path d="M 0.734375 0 L 0.734375 -5.890625 L 1.40625 -5.890625 L 1.40625 0 Z M 0.734375 0 "/></g></g></g><g fill="#000000" fill-opacity="1"><g transform="translate(179.566771, 122.81048)"><g><path d="M 4.8125 -5.890625 L 5.453125 -5.890625 L 5.453125 0 L 4.921875 0 L 1.359375 -4.75 L 1.359375 0 L 0.734375 0 L 0.734375 -5.890625 L 1.25 -5.890625 L 4.8125 -1.15625 Z M 4.8125 -5.890625 "/></g></g></g><g fill="#000000" fill-opacity="1"><g transform="translate(188.235316, 122.81048)"><g><path d="M 5.390625 -3.078125 L 5.390625 -0.34375 C 5.160156 -0.21875 4.859375 -0.117188 4.484375 -0.046875 C 4.109375 0.0234375 3.726562 0.0625 3.34375 0.0625 C 2.75 0.0625 2.238281 -0.0546875 1.8125 -0.296875 C 1.394531 -0.535156 1.070312 -0.878906 0.84375 -1.328125 C 0.625 -1.785156 0.515625 -2.328125 0.515625 -2.953125 C 0.515625 -3.578125 0.625 -4.113281 0.84375 -4.5625 C 1.070312 -5.007812 1.394531 -5.351562 1.8125 -5.59375 C 2.226562 -5.84375 2.71875 -5.96875 3.28125 -5.96875 C 3.695312 -5.96875 4.078125 -5.90625 4.421875 -5.78125 C 4.765625 -5.65625 5.0625 -5.46875 5.3125 -5.21875 L 5.046875 -4.703125 C 4.765625 -4.941406 4.484375 -5.113281 4.203125 -5.21875 C 3.929688 -5.320312 3.625 -5.375 3.28125 -5.375 C 2.613281 -5.375 2.101562 -5.164062 1.75 -4.75 C 1.394531 -4.332031 1.21875 -3.734375 1.21875 -2.953125 C 1.21875 -2.148438 1.398438 -1.539062 1.765625 -1.125 C 2.128906 -0.707031 2.660156 -0.5 3.359375 -0.5 C 3.847656 -0.5 4.316406 -0.578125 4.765625 -0.734375 L 4.765625 -2.53125 L 3.296875 -2.53125 L 3.296875 -3.078125 Z M 5.390625 -3.078125 "/></g></g></g></svg>