<svg xmlns="http://www.w3.org/2000/svg" xmlns:xlink="http://www.w3.org/1999/xlink" width="500" zoomAndPan="magnify" viewBox="0 0 375 149.999998" height="200" preserveAspectRatio="xMidYMid meet" version="1.0"><defs><g/><clipPath id="bc6d5acc02"><path d="M 94.390625 1.949219 L 280.390625 1.949219 L 280.390625 86.699219 L 94.390625 86.699219 Z M 94.390625 1.949219 " clip-rule="nonzero"/></clipPath></defs><rect x="-37.5" width="450" fill="#ffffff" y="-15" height="179.999997" fill-opacity="1"/><rect x="-37.5" width="450" fill="#ffffff" y="-15" height="179.999997" fill-opacity="1"/><rect x="-37.5" width="450" fill="#ebdfc5" y="-15" height="179.999997" fill-opacity="1"/><g clip-path="url(#bc6d5acc02)"><path fill="#000000" d="M 223.828125 2.210938 C 224.015625 2.808594 223.691406 3.246094 223.503906 3.691406 C 221.511719 8.449219 219.03125 12.972656 216.765625 17.59375 C 212.949219 25.363281 209.007812 33.066406 205.773438 41.117188 C 203.855469 45.886719 201.710938 50.578125 199.75 55.339844 C 199.597656 55.710938 199.460938 56.453125 199.003906 56.242188 C 198.445312 55.988281 198.972656 55.414062 199.136719 55.023438 C 201.578125 49.09375 203.988281 43.148438 206.5 37.25 C 209.054688 31.261719 212.128906 25.515625 214.984375 19.667969 C 217.71875 14.074219 220.5 8.503906 223.261719 2.925781 C 223.382812 2.679688 223.429688 2.375 223.828125 2.210938 Z M 153.476562 2.738281 C 153.941406 4.3125 154.398438 5.890625 155.03125 7.40625 C 157.273438 12.765625 159.761719 18.042969 161.570312 23.558594 C 165.207031 34.636719 169.902344 45.308594 173.796875 56.285156 C 173.914062 56.621094 173.941406 57.296875 174.488281 57.09375 C 174.972656 56.910156 174.535156 56.425781 174.441406 56.105469 C 173.542969 53.109375 172.367188 50.207031 171.21875 47.304688 C 165.363281 32.511719 159.914062 17.5625 154.121094 2.746094 C 154.003906 2.445312 153.960938 2.054688 153.476562 1.949219 C 153.324219 2.257812 153.40625 2.496094 153.476562 2.738281 Z M 219.996094 73.53125 C 224.566406 71.445312 229.125 69.332031 233.6875 67.222656 C 240.683594 63.980469 247.609375 60.582031 254.648438 57.421875 C 260.070312 54.988281 265.589844 52.765625 270.792969 49.875 C 271.175781 49.664062 271.671875 49.574219 271.964844 48.847656 C 253.753906 56.941406 236.039062 65.582031 218.164062 73.882812 C 218.867188 74.089844 219.4375 73.785156 219.996094 73.53125 Z M 223.832031 86.410156 C 230.097656 86.214844 236.367188 86.609375 242.636719 86.382812 C 247.128906 86.222656 251.625 86.519531 256.117188 86.601562 C 261.726562 86.699219 267.320312 86.375 272.921875 86.164062 C 275.199219 86.078125 277.476562 86.007812 279.757812 85.929688 C 280.003906 85.921875 280.363281 85.921875 280.351562 85.613281 C 280.339844 85.242188 279.960938 85.390625 279.742188 85.398438 C 278.445312 85.4375 277.148438 85.507812 275.851562 85.558594 C 264.871094 85.984375 253.882812 85.617188 242.898438 85.96875 C 236.09375 86.1875 229.289062 85.535156 222.480469 85.847656 C 222.089844 85.867188 221.664062 85.75 221.28125 86.179688 C 222.15625 86.449219 223 86.433594 223.832031 86.410156 Z M 152.292969 85.628906 C 150.996094 85.585938 149.699219 85.574219 148.402344 85.542969 C 143.019531 85.410156 137.652344 86.027344 132.273438 85.953125 C 127.304688 85.882812 122.339844 85.6875 117.371094 85.617188 C 110 85.515625 102.625 85.664062 95.253906 85.769531 C 94.957031 85.773438 94.484375 85.660156 94.46875 86.074219 C 94.449219 86.566406 94.941406 86.363281 95.207031 86.363281 C 98.753906 86.386719 102.296875 86.429688 105.84375 86.394531 C 118.59375 86.273438 131.351562 86.464844 144.101562 86.171875 C 146.726562 86.113281 149.355469 86.167969 151.984375 86.152344 C 152.371094 86.148438 152.8125 86.273438 153.144531 85.902344 C 152.933594 85.566406 152.585938 85.636719 152.292969 85.628906 Z M 104.828125 49.339844 C 111.132812 52.28125 117.445312 55.203125 123.5 58.65625 C 131.777344 63.378906 140.585938 67.0625 148.972656 71.582031 C 151.167969 72.769531 153.488281 73.71875 155.757812 74.757812 C 155.945312 74.84375 156.230469 75.148438 156.386719 74.765625 C 156.492188 74.503906 156.171875 74.421875 155.988281 74.324219 C 155.375 73.996094 154.761719 73.664062 154.136719 73.355469 C 148.859375 70.757812 143.542969 68.226562 138.300781 65.554688 C 127.027344 59.808594 115.742188 54.085938 104.394531 48.484375 C 104.128906 48.351562 103.875 48.089844 103.414062 48.335938 C 103.777344 48.90625 104.328125 49.105469 104.828125 49.339844 Z M 187.636719 13.9375 C 187.582031 18.078125 187.507812 22.21875 187.472656 26.359375 C 187.394531 35.527344 187.265625 44.695312 187.425781 53.863281 C 187.433594 54.265625 187.277344 54.9375 187.871094 54.917969 C 188.40625 54.902344 188.171875 54.25 188.1875 53.882812 C 188.425781 47.148438 187.90625 40.425781 188.125 33.6875 C 188.328125 27.335938 188.175781 20.976562 188.171875 14.621094 C 188.171875 14.230469 188.289062 13.792969 187.902344 13.417969 C 187.648438 13.5625 187.640625 13.746094 187.636719 13.9375 Z M 240.253906 34.371094 C 240.035156 34.480469 239.832031 34.640625 239.652344 34.8125 C 237.15625 37.183594 234.683594 39.589844 232.160156 41.9375 C 229.222656 44.671875 226.199219 47.316406 223.285156 50.078125 C 219.152344 53.988281 215.148438 58.035156 211.21875 62.148438 C 210.957031 62.421875 210.710938 62.710938 210.472656 63.003906 C 210.351562 63.152344 210.261719 63.355469 210.417969 63.515625 C 210.621094 63.726562 210.824219 63.59375 210.988281 63.429688 C 211.4375 62.984375 211.875 62.527344 212.324219 62.082031 C 214.703125 59.722656 217.203125 57.472656 219.441406 54.988281 C 222.644531 51.429688 226.058594 48.109375 229.703125 45.011719 C 233.25 42 236.515625 38.691406 239.859375 35.464844 C 240.128906 35.203125 240.359375 34.902344 240.574219 34.660156 C 240.558594 34.371094 240.402344 34.296875 240.253906 34.371094 Z M 135.632812 33.492188 C 135.804688 33.992188 136.210938 34.3125 136.566406 34.664062 C 144.25 42.230469 151.523438 50.203125 159.203125 57.78125 C 160.914062 59.46875 162.539062 61.242188 164.152344 63.019531 C 164.332031 63.21875 164.566406 63.527344 164.863281 63.257812 C 165.160156 62.988281 164.875 62.746094 164.6875 62.542969 C 164.003906 61.792969 163.328125 61.039062 162.628906 60.308594 C 158.078125 55.558594 153.308594 51.023438 148.703125 46.320312 C 145.078125 42.617188 141.660156 38.707031 137.863281 35.164062 C 137.1875 34.535156 136.503906 33.910156 135.824219 33.285156 C 135.761719 33.355469 135.699219 33.421875 135.632812 33.492188 Z M 169.664062 59.410156 C 169.585938 58.675781 169.128906 58.101562 168.742188 57.507812 C 165.609375 52.683594 162.519531 47.828125 159.21875 43.113281 C 158.53125 42.128906 157.855469 41.136719 157.160156 40.15625 C 157.039062 39.988281 156.867188 39.753906 156.621094 39.941406 C 156.421875 40.09375 156.59375 40.289062 156.675781 40.449219 C 156.746094 40.589844 156.839844 40.71875 156.925781 40.851562 C 160.375 45.917969 164.011719 50.867188 167.070312 56.195312 C 167.75 57.378906 168.628906 58.445312 169.417969 59.566406 C 169.5 59.511719 169.582031 59.460938 169.664062 59.410156 Z M 181.722656 54.957031 C 181.722656 53.964844 181.335938 53.046875 181.152344 52.089844 C 179.945312 45.734375 178.753906 39.382812 177.542969 33.03125 C 177.457031 32.59375 177.46875 31.785156 177.015625 31.878906 C 176.453125 31.996094 176.769531 32.730469 176.863281 33.183594 C 178.066406 38.992188 179.511719 44.746094 180.242188 50.648438 C 180.441406 52.265625 180.910156 53.832031 181.398438 55.433594 C 181.753906 55.277344 181.726562 55.105469 181.722656 54.957031 Z M 159.714844 67.058594 C 158.761719 66.175781 157.671875 65.46875 156.605469 64.730469 C 153.066406 62.289062 149.519531 59.851562 146.128906 57.199219 C 145.058594 56.363281 143.925781 55.609375 142.804688 54.839844 C 142.589844 54.691406 142.253906 54.484375 142.066406 54.824219 C 141.914062 55.097656 142.234375 55.265625 142.429688 55.40625 C 143.070312 55.871094 143.71875 56.324219 144.375 56.765625 C 145.503906 57.527344 146.660156 58.242188 147.769531 59.03125 C 151.636719 61.777344 155.273438 64.832031 159.238281 67.449219 C 159.554688 67.660156 159.804688 68.082031 160.328125 67.875 C 160.265625 67.484375 159.960938 67.289062 159.714844 67.058594 Z M 154.058594 79.765625 C 153.921875 79.695312 153.789062 79.582031 153.644531 79.558594 C 150.6875 79.058594 147.839844 78.082031 144.894531 77.519531 C 141.355469 76.839844 137.957031 75.609375 134.4375 74.871094 C 133.8125 74.742188 133.152344 74.425781 132.429688 74.757812 C 132.761719 75.226562 133.21875 75.253906 133.636719 75.359375 C 136.449219 76.078125 139.277344 76.722656 142.113281 77.34375 C 145.003906 77.980469 147.84375 78.867188 150.71875 79.589844 C 151.792969 79.855469 152.894531 80.09375 154.015625 80 C 154.027344 79.921875 154.042969 79.84375 154.058594 79.765625 Z M 215.957031 68.523438 C 216.832031 67.902344 217.6875 67.253906 218.5625 66.625 C 222.746094 63.628906 226.9375 60.644531 231.117188 57.640625 C 231.601562 57.289062 232.039062 56.871094 232.480469 56.46875 C 232.628906 56.332031 232.886719 56.164062 232.660156 55.929688 C 232.5 55.757812 232.300781 55.933594 232.15625 56.035156 C 231.425781 56.535156 230.710938 57.054688 229.984375 57.554688 C 227.507812 59.253906 225.363281 61.394531 222.804688 62.980469 C 220.410156 64.464844 218.121094 66.089844 215.902344 67.824219 C 215.5625 68.089844 215.152344 68.308594 215.042969 68.835938 C 215.496094 68.980469 215.714844 68.695312 215.957031 68.523438 Z M 207.011719 57.46875 C 209.371094 53.65625 211.75 49.855469 214.429688 46.257812 C 215.453125 44.886719 216.355469 43.441406 217.203125 41.960938 C 217.355469 41.695312 217.625 41.304688 217.320312 41.113281 C 216.976562 40.898438 216.796875 41.351562 216.648438 41.601562 C 213.386719 47.011719 209.6875 52.136719 206.285156 57.453125 C 205.871094 58.097656 205.367188 58.707031 205.234375 59.511719 C 206.078125 59.023438 206.539062 58.234375 207.011719 57.46875 Z M 193.792969 55.125 C 193.882812 54.796875 193.984375 54.472656 194.050781 54.140625 C 195.277344 47.828125 196.386719 41.492188 197.859375 35.230469 C 198.011719 34.585938 198.109375 33.925781 198.203125 33.273438 C 198.242188 33.027344 198.261719 32.699219 197.933594 32.660156 C 197.605469 32.621094 197.585938 32.964844 197.507812 33.195312 C 197.46875 33.3125 197.472656 33.441406 197.453125 33.566406 C 196.585938 39.371094 195.28125 45.089844 194.132812 50.839844 C 193.855469 52.234375 193.578125 53.652344 193.546875 55.089844 C 193.628906 55.101562 193.710938 55.113281 193.792969 55.125 Z M 241.371094 75.492188 C 234.480469 76.9375 227.585938 78.351562 220.792969 80.238281 C 222.207031 80.453125 240.9375 76.113281 241.371094 75.492188 Z M 130.042969 74.308594 C 130.136719 74.320312 130.292969 74.21875 130.332031 74.128906 C 130.414062 73.945312 130.257812 73.839844 130.105469 73.796875 C 129.007812 73.492188 127.9375 73.0625 126.746094 73.199219 C 127.769531 73.808594 128.867188 74.179688 130.042969 74.308594 Z M 153.554688 35.375 C 153.476562 35.351562 153.320312 35.363281 153.308594 35.398438 C 153.273438 35.503906 153.246094 35.652344 153.292969 35.742188 C 153.722656 36.550781 154.257812 37.296875 154.859375 37.992188 C 154.96875 38.121094 155.121094 38.1875 155.277344 38.105469 C 155.34375 38.070312 155.363281 37.957031 155.382812 37.921875 C 155.382812 37.550781 153.859375 35.453125 153.554688 35.375 Z M 234.714844 54.027344 C 234.5625 54.148438 234.460938 54.351562 234.585938 54.527344 C 234.722656 54.730469 234.929688 54.617188 235.085938 54.523438 C 235.890625 54.03125 236.605469 53.441406 237.113281 52.609375 C 236.191406 52.90625 235.441406 53.449219 234.714844 54.027344 Z M 176.316406 29.25 C 176.359375 29.421875 176.417969 29.640625 176.667969 29.605469 C 176.847656 29.582031 176.925781 29.425781 176.886719 29.257812 C 176.65625 28.246094 176.613281 27.171875 175.902344 26.304688 C 175.816406 27.324219 176.085938 28.285156 176.316406 29.25 Z M 199.144531 27.535156 C 199.15625 27.445312 199.0625 27.28125 198.976562 27.238281 C 198.789062 27.152344 198.6875 27.324219 198.652344 27.46875 C 198.425781 28.390625 198.085938 29.304688 198.417969 30.292969 C 199.042969 29.464844 199.007812 28.480469 199.144531 27.535156 Z M 220.585938 36.238281 C 219.863281 37.171875 218.917969 37.949219 218.6875 39.199219 C 219.496094 38.320312 220.328125 37.464844 220.585938 36.238281 Z M 136.601562 51.210938 C 137.25 52.128906 138.183594 52.65625 139.230469 53.03125 C 138.546875 52.160156 137.730469 51.457031 136.601562 51.210938 Z M 243.746094 75.054688 C 244.78125 74.878906 245.882812 74.941406 246.71875 74.136719 C 245.679688 74.300781 244.5625 74.214844 243.746094 75.054688 Z M 243.746094 75.054688 " fill-opacity="1" fill-rule="nonzero"/><path fill="#000000" d="M 223.828125 2.210938 C 224.015625 2.808594 223.691406 3.246094 223.503906 3.691406 C 221.511719 8.449219 219.03125 12.972656 216.765625 17.59375 C 212.949219 25.363281 209.007812 33.066406 205.773438 41.117188 C 203.855469 45.886719 201.710938 50.578125 199.75 55.339844 C 199.597656 55.710938 199.460938 56.453125 199.003906 56.242188 C 198.445312 55.988281 198.972656 55.414062 199.136719 55.023438 C 201.578125 49.09375 203.988281 43.148438 206.5 37.25 C 209.054688 31.261719 212.128906 25.515625 214.984375 19.667969 C 217.71875 14.074219 220.5 8.503906 223.261719 2.925781 C 223.382812 2.679688 223.429688 2.375 223.828125 2.210938 Z M 153.476562 2.738281 C 153.941406 4.3125 154.398438 5.890625 155.03125 7.40625 C 157.273438 12.765625 159.761719 18.042969 161.570312 23.558594 C 165.207031 34.636719 169.902344 45.308594 173.796875 56.285156 C 173.914062 56.621094 173.941406 57.296875 174.488281 57.09375 C 174.972656 56.910156 174.535156 56.425781 174.441406 56.105469 C 173.542969 53.109375 172.367188 50.207031 171.21875 47.304688 C 165.363281 32.511719 159.914062 17.5625 154.121094 2.746094 C 154.003906 2.445312 153.960938 2.054688 153.476562 1.949219 C 153.324219 2.257812 153.40625 2.496094 153.476562 2.738281 Z M 219.996094 73.53125 C 224.566406 71.445312 229.125 69.332031 233.6875 67.222656 C 240.683594 63.980469 247.609375 60.582031 254.648438 57.421875 C 260.070312 54.988281 265.589844 52.765625 270.792969 49.875 C 271.175781 49.664062 271.671875 49.574219 271.964844 48.847656 C 253.753906 56.941406 236.039062 65.582031 218.164062 73.882812 C 218.867188 74.089844 219.4375 73.785156 219.996094 73.53125 Z M 223.832031 86.410156 C 230.097656 86.214844 236.367188 86.609375 242.636719 86.382812 C 247.128906 86.222656 251.625 86.519531 256.117188 86.601562 C 261.726562 86.699219 267.320312 86.375 272.921875 86.164062 C 275.199219 86.078125 277.476562 86.007812 279.757812 85.929688 C 280.003906 85.921875 280.363281 85.921875 280.351562 85.613281 C 280.339844 85.242188 279.960938 85.390625 279.742188 85.398438 C 278.445312 85.4375 277.148438 85.507812 275.851562 85.558594 C 264.871094 85.984375 253.882812 85.617188 242.898438 85.96875 C 236.09375 86.1875 229.289062 85.535156 222.480469 85.847656 C 222.089844 85.867188 221.664062 85.75 221.28125 86.179688 C 222.15625 86.449219 223 86.433594 223.832031 86.410156 Z M 152.292969 85.628906 C 150.996094 85.585938 149.699219 85.574219 148.402344 85.542969 C 143.019531 85.410156 137.652344 86.027344 132.273438 85.953125 C 127.304688 85.882812 122.339844 85.6875 117.371094 85.617188 C 110 85.515625 102.625 85.664062 95.253906 85.769531 C 94.957031 85.773438 94.484375 85.660156 94.46875 86.074219 C 94.449219 86.566406 94.941406 86.363281 95.207031 86.363281 C 98.753906 86.386719 102.296875 86.429688 105.84375 86.394531 C 118.59375 86.273438 131.351562 86.464844 144.101562 86.171875 C 146.726562 86.113281 149.355469 86.167969 151.984375 86.152344 C 152.371094 86.148438 152.8125 86.273438 153.144531 85.902344 C 152.933594 85.566406 152.585938 85.636719 152.292969 85.628906 Z M 104.828125 49.339844 C 111.132812 52.28125 117.445312 55.203125 123.5 58.65625 C 131.777344 63.378906 140.585938 67.0625 148.972656 71.582031 C 151.167969 72.769531 153.488281 73.71875 155.757812 74.757812 C 155.945312 74.84375 156.230469 75.148438 156.386719 74.765625 C 156.492188 74.503906 156.171875 74.421875 155.988281 74.324219 C 155.375 73.996094 154.761719 73.664062 154.136719 73.355469 C 148.859375 70.757812 143.542969 68.226562 138.300781 65.554688 C 127.027344 59.808594 115.742188 54.085938 104.394531 48.484375 C 104.128906 48.351562 103.875 48.089844 103.414062 48.335938 C 103.777344 48.90625 104.328125 49.105469 104.828125 49.339844 Z M 187.636719 13.9375 C 187.582031 18.078125 187.507812 22.21875 187.472656 26.359375 C 187.394531 35.527344 187.265625 44.695312 187.425781 53.863281 C 187.433594 54.265625 187.277344 54.9375 187.871094 54.917969 C 188.40625 54.902344 188.171875 54.25 188.1875 53.882812 C 188.425781 47.148438 187.90625 40.425781 188.125 33.6875 C 188.328125 27.335938 188.175781 20.976562 188.171875 14.621094 C 188.171875 14.230469 188.289062 13.792969 187.902344 13.417969 C 187.648438 13.5625 187.640625 13.746094 187.636719 13.9375 Z M 240.253906 34.371094 C 240.035156 34.480469 239.832031 34.640625 239.652344 34.8125 C 237.15625 37.183594 234.683594 39.589844 232.160156 41.9375 C 229.222656 44.671875 226.199219 47.316406 223.285156 50.078125 C 219.152344 53.988281 215.148438 58.035156 211.21875 62.148438 C 210.957031 62.421875 210.710938 62.710938 210.472656 63.003906 C 210.351562 63.152344 210.261719 63.355469 210.417969 63.515625 C 210.621094 63.726562 210.824219 63.59375 210.988281 63.429688 C 211.4375 62.984375 211.875 62.527344 212.324219 62.082031 C 214.703125 59.722656 217.203125 57.472656 219.441406 54.988281 C 222.644531 51.429688 226.058594 48.109375 229.703125 45.011719 C 233.25 42 236.515625 38.691406 239.859375 35.464844 C 240.128906 35.203125 240.359375 34.902344 240.574219 34.660156 C 240.558594 34.371094 240.402344 34.296875 240.253906 34.371094 Z M 135.632812 33.492188 C 135.804688 33.992188 136.210938 34.3125 136.566406 34.664062 C 144.25 42.230469 151.523438 50.203125 159.203125 57.78125 C 160.914062 59.46875 162.539062 61.242188 164.152344 63.019531 C 164.332031 63.21875 164.566406 63.527344 164.863281 63.257812 C 165.160156 62.988281 164.875 62.746094 164.6875 62.542969 C 164.003906 61.792969 163.328125 61.039062 162.628906 60.308594 C 158.078125 55.558594 153.308594 51.023438 148.703125 46.320312 C 145.078125 42.617188 141.660156 38.707031 137.863281 35.164062 C 137.1875 34.535156 136.503906 33.910156 135.824219 33.285156 C 135.761719 33.355469 135.699219 33.421875 135.632812 33.492188 Z M 169.664062 59.410156 C 169.585938 58.675781 169.128906 58.101562 168.742188 57.507812 C 165.609375 52.683594 162.519531 47.828125 159.21875 43.113281 C 158.53125 42.128906 157.855469 41.136719 157.160156 40.15625 C 157.039062 39.988281 156.867188 39.753906 156.621094 39.941406 C 156.421875 40.09375 156.59375 40.289062 156.675781 40.449219 C 156.746094 40.589844 156.839844 40.71875 156.925781 40.851562 C 160.375 45.917969 164.011719 50.867188 167.070312 56.195312 C 167.75 57.378906 168.628906 58.445312 169.417969 59.566406 C 169.5 59.511719 169.582031 59.460938 169.664062 59.410156 Z M 181.722656 54.957031 C 181.722656 53.964844 181.335938 53.046875 181.152344 52.089844 C 179.945312 45.734375 178.753906 39.382812 177.542969 33.03125 C 177.457031 32.59375 177.46875 31.785156 177.015625 31.878906 C 176.453125 31.996094 176.769531 32.730469 176.863281 33.183594 C 178.066406 38.992188 179.511719 44.746094 180.242188 50.648438 C 180.441406 52.265625 180.910156 53.832031 181.398438 55.433594 C 181.753906 55.277344 181.726562 55.105469 181.722656 54.957031 Z M 159.714844 67.058594 C 158.761719 66.175781 157.671875 65.46875 156.605469 64.730469 C 153.066406 62.289062 149.519531 59.851562 146.128906 57.199219 C 145.058594 56.363281 143.925781 55.609375 142.804688 54.839844 C 142.589844 54.691406 142.253906 54.484375 142.066406 54.824219 C 141.914062 55.097656 142.234375 55.265625 142.429688 55.40625 C 143.070312 55.871094 143.71875 56.324219 144.375 56.765625 C 145.503906 57.527344 146.660156 58.242188 147.769531 59.03125 C 151.636719 61.777344 155.273438 64.832031 159.238281 67.449219 C 159.554688 67.660156 159.804688 68.082031 160.328125 67.875 C 160.265625 67.484375 159.960938 67.289062 159.714844 67.058594 Z M 154.058594 79.765625 C 153.921875 79.695312 153.789062 79.582031 153.644531 79.558594 C 150.6875 79.058594 147.839844 78.082031 144.894531 77.519531 C 141.355469 76.839844 137.957031 75.609375 134.4375 74.871094 C 133.8125 74.742188 133.152344 74.425781 132.429688 74.757812 C 132.761719 75.226562 133.21875 75.253906 133.636719 75.359375 C 136.449219 76.078125 139.277344 76.722656 142.113281 77.34375 C 145.003906 77.980469 147.84375 78.867188 150.71875 79.589844 C 151.792969 79.855469 152.894531 80.09375 154.015625 80 C 154.027344 79.921875 154.042969 79.84375 154.058594 79.765625 Z M 215.957031 68.523438 C 216.832031 67.902344 217.6875 67.253906 218.5625 66.625 C 222.746094 63.628906 226.9375 60.644531 231.117188 57.640625 C 231.601562 57.289062 232.039062 56.871094 232.480469 56.46875 C 232.628906 56.332031 232.886719 56.164062 232.660156 55.929688 C 232.5 55.757812 232.300781 55.933594 232.15625 56.035156 C 231.425781 56.535156 230.710938 57.054688 229.984375 57.554688 C 227.507812 59.253906 225.363281 61.394531 222.804688 62.980469 C 220.410156 64.464844 218.121094 66.089844 215.902344 67.824219 C 215.5625 68.089844 215.152344 68.308594 215.042969 68.835938 C 215.496094 68.980469 215.714844 68.695312 215.957031 68.523438 Z M 207.011719 57.46875 C 209.371094 53.65625 211.75 49.855469 214.429688 46.257812 C 215.453125 44.886719 216.355469 43.441406 217.203125 41.960938 C 217.355469 41.695312 217.625 41.304688 217.320312 41.113281 C 216.976562 40.898438 216.796875 41.351562 216.648438 41.601562 C 213.386719 47.011719 209.6875 52.136719 206.285156 57.453125 C 205.871094 58.097656 205.367188 58.707031 205.234375 59.511719 C 206.078125 59.023438 206.539062 58.234375 207.011719 57.46875 Z M 193.792969 55.125 C 193.882812 54.796875 193.984375 54.472656 194.050781 54.140625 C 195.277344 47.828125 196.386719 41.492188 197.859375 35.230469 C 198.011719 34.585938 198.109375 33.925781 198.203125 33.273438 C 198.242188 33.027344 198.261719 32.699219 197.933594 32.660156 C 197.605469 32.621094 197.585938 32.964844 197.507812 33.195312 C 197.46875 33.3125 197.472656 33.441406 197.453125 33.566406 C 196.585938 39.371094 195.28125 45.089844 194.132812 50.839844 C 193.855469 52.234375 193.578125 53.652344 193.546875 55.089844 C 193.628906 55.101562 193.710938 55.113281 193.792969 55.125 Z M 241.371094 75.492188 C 234.480469 76.9375 227.585938 78.351562 220.792969 80.238281 C 222.207031 80.453125 240.9375 76.113281 241.371094 75.492188 Z M 130.042969 74.308594 C 130.136719 74.320312 130.292969 74.21875 130.332031 74.128906 C 130.414062 73.945312 130.257812 73.839844 130.105469 73.796875 C 129.007812 73.492188 127.9375 73.0625 126.746094 73.199219 C 127.769531 73.808594 128.867188 74.179688 130.042969 74.308594 Z M 153.554688 35.375 C 153.476562 35.351562 153.320312 35.363281 153.308594 35.398438 C 153.273438 35.503906 153.246094 35.652344 153.292969 35.742188 C 153.722656 36.550781 154.257812 37.296875 154.859375 37.992188 C 154.96875 38.121094 155.121094 38.1875 155.277344 38.105469 C 155.34375 38.070312 155.363281 37.957031 155.382812 37.921875 C 155.382812 37.550781 153.859375 35.453125 153.554688 35.375 Z M 234.714844 54.027344 C 234.5625 54.148438 234.460938 54.351562 234.585938 54.527344 C 234.722656 54.730469 234.929688 54.617188 235.085938 54.523438 C 235.890625 54.03125 236.605469 53.441406 237.113281 52.609375 C 236.191406 52.90625 235.441406 53.449219 234.714844 54.027344 Z M 176.316406 29.25 C 176.359375 29.421875 176.417969 29.640625 176.667969 29.605469 C 176.847656 29.582031 176.925781 29.425781 176.886719 29.257812 C 176.65625 28.246094 176.613281 27.171875 175.902344 26.304688 C 175.816406 27.324219 176.085938 28.285156 176.316406 29.25 Z M 199.144531 27.535156 C 199.15625 27.445312 199.0625 27.28125 198.976562 27.238281 C 198.789062 27.152344 198.6875 27.324219 198.652344 27.46875 C 198.425781 28.390625 198.085938 29.304688 198.417969 30.292969 C 199.042969 29.464844 199.007812 28.480469 199.144531 27.535156 Z M 220.585938 36.238281 C 219.863281 37.171875 218.917969 37.949219 218.6875 39.199219 C 219.496094 38.320312 220.328125 37.464844 220.585938 36.238281 Z M 136.601562 51.210938 C 137.25 52.128906 138.183594 52.65625 139.230469 53.03125 C 138.546875 52.160156 137.730469 51.457031 136.601562 51.210938 Z M 243.746094 75.054688 C 244.78125 74.878906 245.882812 74.941406 246.71875 74.136719 C 245.679688 74.300781 244.5625 74.214844 243.746094 75.054688 Z M 243.746094 75.054688 " fill-opacity="1" fill-rule="nonzero"/></g><g fill="#000000" fill-opacity="1"><g transform="translate(57.506197, 122.143982)"><g><path d="M 0.546875 0 L 13.730469 0 C 13.3125 -1.890625 13.113281 -3.382812 12.984375 -5.566406 C 11.949219 -2.144531 8.890625 -0.546875 5.582031 -0.546875 C 5.109375 -2.910156 4.875 -5.492188 4.875 -7.546875 C 4.875 -7.710938 4.984375 -7.820312 5.164062 -7.820312 L 6.511719 -7.820312 C 8.148438 -7.820312 9.402344 -7.292969 10.800781 -5.292969 C 10.636719 -7.492188 10.636719 -8.710938 10.800781 -10.894531 C 9.367188 -8.855469 8.164062 -8.363281 6.511719 -8.363281 L 5.164062 -8.363281 C 5 -8.363281 4.890625 -8.492188 4.890625 -8.65625 C 4.945312 -11.492188 5.183594 -13.65625 5.582031 -15.640625 C 8.910156 -15.640625 11.949219 -14.058594 12.984375 -10.621094 C 13.113281 -12.800781 13.3125 -14.292969 13.730469 -16.183594 L 0.546875 -16.183594 C 1.65625 -11.21875 1.65625 -4.964844 0.546875 0 Z M 0.546875 0 "/></g></g></g><g fill="#000000" fill-opacity="1"><g transform="translate(72.344613, 122.143982)"><g><path d="M 0.546875 0 L 4.273438 0 C 2.507812 -3 1.835938 -5.890625 1.945312 -9.3125 C 1.980469 -10.492188 2.054688 -11.675781 2.183594 -12.820312 C 5.78125 -7.746094 8.074219 -1.890625 8.601562 0 L 13.949219 -12.839844 C 14.4375 -8.601562 14.257812 -3.890625 13.382812 0 L 18.53125 0 C 17.441406 -4.964844 17.441406 -11.21875 18.53125 -16.183594 L 14.765625 -16.183594 L 10.746094 -6.402344 C 8.566406 -9.273438 6.527344 -13.003906 5.691406 -16.183594 L 0.546875 -16.183594 C 1.65625 -11.21875 1.65625 -4.964844 0.546875 0 Z M 0.546875 0 "/></g></g></g><g fill="#000000" fill-opacity="1"><g transform="translate(92.165778, 122.143982)"><g><path d="M 0.546875 0 L 5.691406 0 C 5.308594 -1.765625 5.054688 -3.671875 4.945312 -5.636719 L 7.039062 -5.636719 C 16.601562 -5.65625 17.113281 -16.167969 7.039062 -16.183594 L 0.5625 -16.183594 C 1.65625 -11.21875 1.65625 -4.964844 0.546875 0 Z M 4.890625 -9.054688 C 4.890625 -11.003906 4.984375 -15.585938 7.601562 -15.585938 C 9 -15.585938 9.800781 -14.546875 10.21875 -13.292969 C 11.476562 -9.621094 9.074219 -6.292969 6.675781 -6.292969 L 4.910156 -6.292969 C 4.875 -7.527344 4.890625 -7.984375 4.890625 -9.054688 Z M 4.890625 -9.054688 "/></g></g></g><g fill="#000000" fill-opacity="1"><g transform="translate(107.331527, 122.143982)"><g><path d="M 8.457031 0.363281 C 13.128906 0.363281 16.367188 -3.417969 16.367188 -8.09375 C 16.367188 -12.765625 13.128906 -16.546875 8.457031 -16.546875 C 3.78125 -16.546875 0.546875 -12.765625 0.546875 -8.09375 C 0.546875 -3.417969 3.78125 0.363281 8.457031 0.363281 Z M 5.019531 -8.363281 C 5.984375 -13.53125 7.929688 -15.859375 9.511719 -15.859375 C 11.3125 -15.859375 12.675781 -12.910156 11.710938 -7.691406 C 11.039062 -3.945312 9.183594 -0.328125 6.636719 -0.328125 C 4.582031 -0.328125 4.273438 -4.402344 5.019531 -8.363281 Z M 5.019531 -8.363281 "/></g></g></g><g fill="#000000" fill-opacity="1"><g transform="translate(124.988652, 122.143982)"><g><path d="M 4.855469 0.363281 L 8.363281 0 L 10.964844 -9.472656 C 11.019531 -9.691406 11.074219 -9.894531 11.148438 -10.109375 C 12.511719 -6.527344 14.039062 -1.636719 14.039062 0.363281 L 17.496094 0 L 19.3125 -6.636719 C 20.839844 -12.203125 21.769531 -14.148438 23.296875 -16.183594 L 17.875 -16.183594 C 20.222656 -14.328125 20.238281 -11.929688 18.765625 -6.527344 L 17.601562 -2.273438 C 16.914062 -3.691406 13.730469 -11.910156 15.003906 -16.183594 L 8.328125 -16.183594 C 9.238281 -14.984375 9.710938 -13.820312 10.148438 -12.675781 C 10.527344 -11.636719 10.636719 -10.347656 10.382812 -9.4375 C 10.367188 -9.382812 10.367188 -9.347656 10.347656 -9.292969 L 8.417969 -2.273438 C 8.417969 -3.835938 4.78125 -12.691406 5.820312 -16.183594 L -0.65625 -16.183594 C 1.308594 -12.875 4.855469 -5.347656 4.855469 0.363281 Z M 4.855469 0.363281 "/></g></g></g><g fill="#000000" fill-opacity="1"><g transform="translate(148.35594, 122.143982)"><g><path d="M 0.546875 0 L 13.730469 0 C 13.3125 -1.890625 13.113281 -3.382812 12.984375 -5.566406 C 11.949219 -2.144531 8.890625 -0.546875 5.582031 -0.546875 C 5.109375 -2.910156 4.875 -5.492188 4.875 -7.546875 C 4.875 -7.710938 4.984375 -7.820312 5.164062 -7.820312 L 6.511719 -7.820312 C 8.148438 -7.820312 9.402344 -7.292969 10.800781 -5.292969 C 10.636719 -7.492188 10.636719 -8.710938 10.800781 -10.894531 C 9.367188 -8.855469 8.164062 -8.363281 6.511719 -8.363281 L 5.164062 -8.363281 C 5 -8.363281 4.890625 -8.492188 4.890625 -8.65625 C 4.945312 -11.492188 5.183594 -13.65625 5.582031 -15.640625 C 8.910156 -15.640625 11.949219 -14.058594 12.984375 -10.621094 C 13.113281 -12.800781 13.3125 -14.292969 13.730469 -16.183594 L 0.546875 -16.183594 C 1.65625 -11.21875 1.65625 -4.964844 0.546875 0 Z M 0.546875 0 "/></g></g></g><g fill="#000000" fill-opacity="1"><g transform="translate(163.194359, 122.143982)"><g><path d="M 5.691406 0 C 5.308594 -1.765625 4.910156 -4.566406 4.890625 -7.109375 L 6.675781 -7.109375 C 8.203125 -4.472656 8.785156 -1.671875 8.636719 0 L 15.039062 0 C 13.566406 -1.417969 11.476562 -4.800781 10.09375 -7.472656 C 16.765625 -9.128906 15.949219 -16.167969 7.039062 -16.183594 L 0.5625 -16.183594 C 1.65625 -11.21875 1.65625 -4.964844 0.546875 0 Z M 4.875 -7.765625 C 4.875 -11.585938 5.417969 -15.566406 7.691406 -15.566406 C 9.328125 -15.566406 10.148438 -13.910156 10.4375 -12.53125 C 10.984375 -9.839844 9.566406 -7.765625 6.621094 -7.765625 Z M 4.875 -7.765625 "/></g></g></g><g fill="#000000" fill-opacity="1"><g transform="translate(178.869297, 122.143982)"><g><path d="M 0.546875 0 L 13.730469 0 C 13.3125 -1.890625 13.113281 -3.382812 12.984375 -5.566406 C 11.949219 -2.144531 8.890625 -0.546875 5.582031 -0.546875 C 5.109375 -2.910156 4.875 -5.492188 4.875 -7.546875 C 4.875 -7.710938 4.984375 -7.820312 5.164062 -7.820312 L 6.511719 -7.820312 C 8.148438 -7.820312 9.402344 -7.292969 10.800781 -5.292969 C 10.636719 -7.492188 10.636719 -8.710938 10.800781 -10.894531 C 9.367188 -8.855469 8.164062 -8.363281 6.511719 -8.363281 L 5.164062 -8.363281 C 5 -8.363281 4.890625 -8.492188 4.890625 -8.65625 C 4.945312 -11.492188 5.183594 -13.65625 5.582031 -15.640625 C 8.910156 -15.640625 11.949219 -14.058594 12.984375 -10.621094 C 13.113281 -12.800781 13.3125 -14.292969 13.730469 -16.183594 L 0.546875 -16.183594 C 1.65625 -11.21875 1.65625 -4.964844 0.546875 0 Z M 0.546875 0 "/></g></g></g><g fill="#000000" fill-opacity="1"><g transform="translate(193.707715, 122.143982)"><g><path d="M 8.039062 0 C 17.894531 0.0195312 18.023438 -16.167969 8.164062 -16.183594 L 0.546875 -16.183594 C 1.65625 -11.21875 1.65625 -4.964844 0.546875 0 Z M 4.875 -3.417969 L 4.875 -8.511719 C 4.875 -12.328125 6.457031 -15.566406 8.785156 -15.566406 C 8.984375 -15.566406 9.183594 -15.546875 9.382812 -15.492188 C 10.964844 -15.128906 12.203125 -12.675781 11.65625 -8.039062 C 11.109375 -3.417969 8.472656 -0.601562 6.65625 -0.601562 C 5.636719 -0.601562 4.875 -1.472656 4.875 -3.417969 Z M 4.875 -3.417969 "/></g></g></g><g fill="#000000" fill-opacity="1"><g transform="translate(210.491953, 122.143982)"><g/></g></g><g fill="#000000" fill-opacity="1"><g transform="translate(215.964981, 122.143982)"><g><path d="M 0.546875 0 L 5.691406 0 C 5.164062 -2.402344 4.890625 -5.109375 4.875 -7.835938 L 11.109375 -7.835938 C 11.09375 -5.109375 10.820312 -2.402344 10.273438 0 L 15.421875 0 C 14.328125 -4.964844 14.328125 -11.21875 15.421875 -16.183594 L 10.273438 -16.183594 C 10.800781 -13.785156 11.09375 -11.09375 11.109375 -8.382812 L 4.875 -8.382812 C 4.890625 -11.09375 5.164062 -13.785156 5.691406 -16.183594 L 0.546875 -16.183594 C 1.65625 -11.21875 1.65625 -4.964844 0.546875 0 Z M 0.546875 0 "/></g></g></g><g fill="#000000" fill-opacity="1"><g transform="translate(232.676478, 122.143982)"><g><path d="M 0.546875 0 L 13.730469 0 C 13.3125 -1.890625 13.113281 -3.382812 12.984375 -5.566406 C 11.949219 -2.144531 8.890625 -0.546875 5.582031 -0.546875 C 5.109375 -2.910156 4.875 -5.492188 4.875 -7.546875 C 4.875 -7.710938 4.984375 -7.820312 5.164062 -7.820312 L 6.511719 -7.820312 C 8.148438 -7.820312 9.402344 -7.292969 10.800781 -5.292969 C 10.636719 -7.492188 10.636719 -8.710938 10.800781 -10.894531 C 9.367188 -8.855469 8.164062 -8.363281 6.511719 -8.363281 L 5.164062 -8.363281 C 5 -8.363281 4.890625 -8.492188 4.890625 -8.65625 C 4.945312 -11.492188 5.183594 -13.65625 5.582031 -15.640625 C 8.910156 -15.640625 11.949219 -14.058594 12.984375 -10.621094 C 13.113281 -12.800781 13.3125 -14.292969 13.730469 -16.183594 L 0.546875 -16.183594 C 1.65625 -11.21875 1.65625 -4.964844 0.546875 0 Z M 0.546875 0 "/></g></g></g><g fill="#000000" fill-opacity="1"><g transform="translate(247.514896, 122.143982)"><g><path d="M 0 0 L 5.363281 0 C 3.746094 -1.292969 3.273438 -2.875 3.800781 -5.417969 L 10.054688 -5.417969 C 10.582031 -3.308594 10.800781 -1.292969 10.421875 0 L 16.914062 0 C 13.292969 -5.984375 10.476562 -15.457031 10.476562 -16.546875 L 7.292969 -16.183594 L 4.527344 -9.347656 C 2.417969 -4.089844 1.472656 -1.925781 0 0 Z M 3.929688 -5.984375 C 4.183594 -7 4.601562 -8.164062 5.144531 -9.527344 L 6.65625 -13.292969 C 7.800781 -11.839844 9.109375 -8.875 9.910156 -5.984375 Z M 3.929688 -5.984375 "/></g></g></g><g fill="#000000" fill-opacity="1"><g transform="translate(264.662838, 122.143982)"><g><path d="M 0.546875 -16.183594 C 1.65625 -11.21875 1.65625 -4.964844 0.546875 0 L 12.621094 0 C 12.203125 -2.292969 12.039062 -3.074219 11.855469 -5.566406 C 11.003906 -2.746094 7.835938 -0.546875 6 -0.546875 L 5.582031 -0.546875 C 4.582031 -5.511719 4.617188 -11.328125 5.691406 -16.183594 Z M 0.546875 -16.183594 "/></g></g></g><g fill="#000000" fill-opacity="1"><g transform="translate(277.919142, 122.143982)"><g><path d="M 5.691406 0 C 4.601562 -4.964844 4.601562 -11.21875 5.691406 -16.183594 L 0.546875 -16.183594 C 1.65625 -11.21875 1.65625 -4.964844 0.546875 0 Z M 5.691406 0 "/></g></g></g><g fill="#000000" fill-opacity="1"><g transform="translate(284.901543, 122.143982)"><g><path d="M 4.273438 0 C 3.054688 -2.089844 1.945312 -5.074219 1.925781 -7.785156 C 1.910156 -9.527344 2 -11.273438 2.199219 -12.949219 C 6.164062 -8.257812 11.457031 -1.890625 11.984375 0 L 15.421875 0 C 14.3125 -4.964844 14.3125 -11.21875 15.421875 -16.183594 L 11.691406 -16.183594 C 12.929688 -14.203125 14.003906 -11.273438 14.039062 -8.675781 C 14.058594 -7.765625 14.039062 -6.835938 13.984375 -5.945312 C 12.546875 -7.019531 6.527344 -13.003906 5.691406 -16.183594 L 0.546875 -16.183594 C 1.65625 -11.21875 1.65625 -4.964844 0.546875 0 Z M 4.273438 0 "/></g></g></g><g fill="#000000" fill-opacity="1"><g transform="translate(301.613025, 122.143982)"><g><path d="M 8.636719 0.363281 C 10.109375 0.363281 10.746094 0.164062 11.421875 -0.0546875 L 12.3125 -0.328125 C 12.65625 -0.417969 13.039062 -0.472656 13.4375 -0.472656 C 13.949219 -0.472656 14.476562 -0.382812 14.910156 -0.21875 L 15.476562 0 C 14.367188 -1.910156 14.367188 -5.21875 15.476562 -7.109375 L 10.328125 -7.109375 C 11.367188 -5.328125 11.421875 -2.308594 10.511719 -0.363281 C 10.238281 -0.289062 9.949219 -0.253906 9.636719 -0.253906 C 7.582031 -0.253906 5.21875 -2.074219 5.21875 -7.292969 C 5.21875 -12.292969 7.929688 -15.785156 10.402344 -15.785156 C 12.058594 -15.785156 13.621094 -14.203125 14.148438 -10.421875 C 14.277344 -12.457031 14.53125 -14.382812 14.910156 -16.183594 L 14.730469 -16.128906 C 14.328125 -16.039062 13.875 -15.984375 13.402344 -15.984375 C 12.820312 -15.984375 12.21875 -16.058594 11.691406 -16.203125 C 10.601562 -16.492188 10.164062 -16.546875 8.984375 -16.546875 C 3.964844 -16.53125 0.546875 -12.511719 0.546875 -7.835938 C 0.546875 -3.691406 3.835938 0.363281 8.636719 0.363281 Z M 8.636719 0.363281 "/></g></g></g><g fill="#000000" fill-opacity="1"><g transform="translate(142.188744, 145.7331)"><g><path d="M 3.890625 0.078125 C 3.222656 0.078125 2.640625 -0.0664062 2.140625 -0.359375 C 1.648438 -0.648438 1.269531 -1.066406 1 -1.609375 C 0.738281 -2.160156 0.609375 -2.804688 0.609375 -3.546875 C 0.609375 -4.285156 0.738281 -4.925781 1 -5.46875 C 1.269531 -6.007812 1.648438 -6.425781 2.140625 -6.71875 C 2.640625 -7.007812 3.222656 -7.15625 3.890625 -7.15625 C 4.378906 -7.15625 4.828125 -7.078125 5.234375 -6.921875 C 5.648438 -6.773438 6.003906 -6.554688 6.296875 -6.265625 L 6 -5.640625 C 5.65625 -5.929688 5.316406 -6.140625 4.984375 -6.265625 C 4.660156 -6.390625 4.300781 -6.453125 3.90625 -6.453125 C 3.132812 -6.453125 2.53125 -6.195312 2.09375 -5.6875 C 1.664062 -5.1875 1.453125 -4.472656 1.453125 -3.546875 C 1.453125 -2.609375 1.664062 -1.882812 2.09375 -1.375 C 2.519531 -0.875 3.125 -0.625 3.90625 -0.625 C 4.300781 -0.625 4.660156 -0.6875 4.984375 -0.8125 C 5.316406 -0.9375 5.65625 -1.144531 6 -1.4375 L 6.296875 -0.8125 C 6.003906 -0.519531 5.648438 -0.296875 5.234375 -0.140625 C 4.828125 0.00390625 4.378906 0.078125 3.890625 0.078125 Z M 3.890625 0.078125 "/></g></g></g><g fill="#000000" fill-opacity="1"><g transform="translate(151.961471, 145.7331)"><g><path d="M 3.828125 0.078125 C 3.179688 0.078125 2.613281 -0.0664062 2.125 -0.359375 C 1.644531 -0.648438 1.269531 -1.066406 1 -1.609375 C 0.738281 -2.160156 0.609375 -2.800781 0.609375 -3.53125 C 0.609375 -4.28125 0.738281 -4.925781 1 -5.46875 C 1.257812 -6.007812 1.628906 -6.425781 2.109375 -6.71875 C 2.597656 -7.007812 3.171875 -7.15625 3.828125 -7.15625 C 4.492188 -7.15625 5.066406 -7.007812 5.546875 -6.71875 C 6.035156 -6.425781 6.410156 -6.007812 6.671875 -5.46875 C 6.929688 -4.925781 7.0625 -4.285156 7.0625 -3.546875 C 7.0625 -2.804688 6.925781 -2.164062 6.65625 -1.625 C 6.394531 -1.082031 6.019531 -0.660156 5.53125 -0.359375 C 5.050781 -0.0664062 4.484375 0.078125 3.828125 0.078125 Z M 3.828125 -0.609375 C 4.578125 -0.609375 5.160156 -0.863281 5.578125 -1.375 C 6.003906 -1.882812 6.21875 -2.609375 6.21875 -3.546875 C 6.21875 -4.484375 6.007812 -5.203125 5.59375 -5.703125 C 5.175781 -6.203125 4.585938 -6.453125 3.828125 -6.453125 C 3.078125 -6.453125 2.492188 -6.195312 2.078125 -5.6875 C 1.660156 -5.1875 1.453125 -4.472656 1.453125 -3.546875 C 1.453125 -2.609375 1.660156 -1.882812 2.078125 -1.375 C 2.492188 -0.863281 3.078125 -0.609375 3.828125 -0.609375 Z M 3.828125 -0.609375 "/></g></g></g><g fill="#000000" fill-opacity="1"><g transform="translate(162.608189, 145.7331)"><g><path d="M 3.640625 0.078125 C 2.710938 0.078125 2.007812 -0.160156 1.53125 -0.640625 C 1.0625 -1.117188 0.828125 -1.828125 0.828125 -2.765625 L 0.828125 -7.078125 L 1.625 -7.078125 L 1.625 -2.703125 C 1.625 -2.015625 1.789062 -1.492188 2.125 -1.140625 C 2.46875 -0.785156 2.972656 -0.609375 3.640625 -0.609375 C 4.296875 -0.609375 4.789062 -0.785156 5.125 -1.140625 C 5.457031 -1.492188 5.625 -2.015625 5.625 -2.703125 L 5.625 -7.078125 L 6.4375 -7.078125 L 6.4375 -2.765625 C 6.4375 -1.835938 6.195312 -1.128906 5.71875 -0.640625 C 5.25 -0.160156 4.554688 0.078125 3.640625 0.078125 Z M 3.640625 0.078125 "/></g></g></g><g fill="#000000" fill-opacity="1"><g transform="translate(172.847711, 145.7331)"><g><path d="M 5.78125 -7.078125 L 6.546875 -7.078125 L 6.546875 0 L 5.90625 0 L 1.640625 -5.6875 L 1.640625 0 L 0.875 0 L 0.875 -7.078125 L 1.5 -7.078125 L 5.78125 -1.375 Z M 5.78125 -7.078125 "/></g></g></g><g fill="#000000" fill-opacity="1"><g transform="translate(183.236197, 145.7331)"><g><path d="M 3.125 0.078125 C 2.007812 0.078125 1.128906 -0.21875 0.484375 -0.8125 L 0.78125 -1.4375 C 1.132812 -1.144531 1.492188 -0.929688 1.859375 -0.796875 C 2.222656 -0.671875 2.644531 -0.609375 3.125 -0.609375 C 3.695312 -0.609375 4.132812 -0.71875 4.4375 -0.9375 C 4.75 -1.164062 4.90625 -1.484375 4.90625 -1.890625 C 4.90625 -2.128906 4.832031 -2.320312 4.6875 -2.46875 C 4.539062 -2.613281 4.34375 -2.726562 4.09375 -2.8125 C 3.851562 -2.90625 3.53125 -3 3.125 -3.09375 C 2.582031 -3.207031 2.132812 -3.332031 1.78125 -3.46875 C 1.4375 -3.613281 1.15625 -3.816406 0.9375 -4.078125 C 0.71875 -4.335938 0.609375 -4.679688 0.609375 -5.109375 C 0.609375 -5.515625 0.710938 -5.867188 0.921875 -6.171875 C 1.140625 -6.484375 1.441406 -6.722656 1.828125 -6.890625 C 2.210938 -7.066406 2.664062 -7.15625 3.1875 -7.15625 C 3.675781 -7.15625 4.128906 -7.078125 4.546875 -6.921875 C 4.972656 -6.773438 5.332031 -6.554688 5.625 -6.265625 L 5.3125 -5.640625 C 4.976562 -5.921875 4.640625 -6.125 4.296875 -6.25 C 3.953125 -6.382812 3.582031 -6.453125 3.1875 -6.453125 C 2.632812 -6.453125 2.203125 -6.332031 1.890625 -6.09375 C 1.578125 -5.863281 1.421875 -5.546875 1.421875 -5.140625 C 1.421875 -4.773438 1.554688 -4.503906 1.828125 -4.328125 C 2.097656 -4.148438 2.515625 -3.992188 3.078125 -3.859375 C 3.691406 -3.710938 4.171875 -3.578125 4.515625 -3.453125 C 4.859375 -3.335938 5.144531 -3.15625 5.375 -2.90625 C 5.613281 -2.65625 5.734375 -2.328125 5.734375 -1.921875 C 5.734375 -1.523438 5.625 -1.175781 5.40625 -0.875 C 5.195312 -0.570312 4.894531 -0.335938 4.5 -0.171875 C 4.113281 -0.00390625 3.65625 0.078125 3.125 0.078125 Z M 3.125 0.078125 "/></g></g></g><g fill="#000000" fill-opacity="1"><g transform="translate(192.4031, 145.7331)"><g><path d="M 0.875 0 L 0.875 -7.078125 L 5.34375 -7.078125 L 5.34375 -6.40625 L 1.671875 -6.40625 L 1.671875 -3.9375 L 5.140625 -3.9375 L 5.140625 -3.25 L 1.671875 -3.25 L 1.671875 -0.671875 L 5.34375 -0.671875 L 5.34375 0 Z M 0.875 0 "/></g></g></g><g fill="#000000" fill-opacity="1"><g transform="translate(201.222386, 145.7331)"><g><path d="M 0.875 0 L 0.875 -7.078125 L 1.6875 -7.078125 L 1.6875 -0.703125 L 5.234375 -0.703125 L 5.234375 0 Z M 0.875 0 "/></g></g></g><g fill="#000000" fill-opacity="1"><g transform="translate(209.614608, 145.7331)"><g><path d="M 0.875 0 L 0.875 -7.078125 L 1.6875 -7.078125 L 1.6875 0 Z M 0.875 0 "/></g></g></g><g fill="#000000" fill-opacity="1"><g transform="translate(215.156452, 145.7331)"><g><path d="M 5.78125 -7.078125 L 6.546875 -7.078125 L 6.546875 0 L 5.90625 0 L 1.640625 -5.6875 L 1.640625 0 L 0.875 0 L 0.875 -7.078125 L 1.5 -7.078125 L 5.78125 -1.375 Z M 5.78125 -7.078125 "/></g></g></g><g fill="#000000" fill-opacity="1"><g transform="translate(225.544938, 145.7331)"><g><path d="M 6.46875 -3.6875 L 6.46875 -0.40625 C 6.1875 -0.257812 5.820312 -0.140625 5.375 -0.046875 C 4.925781 0.0351562 4.46875 0.078125 4 0.078125 C 3.300781 0.078125 2.695312 -0.0625 2.1875 -0.34375 C 1.675781 -0.632812 1.285156 -1.050781 1.015625 -1.59375 C 0.742188 -2.144531 0.609375 -2.796875 0.609375 -3.546875 C 0.609375 -4.296875 0.742188 -4.941406 1.015625 -5.484375 C 1.285156 -6.023438 1.671875 -6.4375 2.171875 -6.71875 C 2.671875 -7.007812 3.257812 -7.15625 3.9375 -7.15625 C 4.4375 -7.15625 4.894531 -7.078125 5.3125 -6.921875 C 5.726562 -6.773438 6.082031 -6.554688 6.375 -6.265625 L 6.0625 -5.640625 C 5.71875 -5.929688 5.378906 -6.140625 5.046875 -6.265625 C 4.722656 -6.390625 4.351562 -6.453125 3.9375 -6.453125 C 3.144531 -6.453125 2.53125 -6.203125 2.09375 -5.703125 C 1.664062 -5.203125 1.453125 -4.484375 1.453125 -3.546875 C 1.453125 -2.585938 1.671875 -1.859375 2.109375 -1.359375 C 2.546875 -0.859375 3.1875 -0.609375 4.03125 -0.609375 C 4.613281 -0.609375 5.175781 -0.703125 5.71875 -0.890625 L 5.71875 -3.046875 L 3.96875 -3.046875 L 3.96875 -3.6875 Z M 6.46875 -3.6875 "/></g></g></g></svg>