<svg xmlns="http://www.w3.org/2000/svg" xmlns:xlink="http://www.w3.org/1999/xlink" width="500" zoomAndPan="magnify" viewBox="0 0 375 149.999998" height="200" preserveAspectRatio="xMidYMid meet" version="1.0"><defs><g/><clipPath id="940ac5a6f6"><path d="M 2.722656 40.9375 L 138.472656 40.9375 L 138.472656 102.4375 L 2.722656 102.4375 Z M 2.722656 40.9375 " clip-rule="nonzero"/></clipPath></defs><rect x="-37.5" width="450" fill="#ffffff" y="-15" height="179.999997" fill-opacity="1"/><rect x="-37.5" width="450" fill="#ffffff" y="-15" height="179.999997" fill-opacity="1"/><rect x="-37.5" width="450" fill="#ffffff" y="-15" height="179.999997" fill-opacity="1"/><g clip-path="url(#940ac5a6f6)"><path fill="#000000" d="M 97.195312 41.128906 C 97.332031 41.558594 97.09375 41.878906 96.957031 42.203125 C 95.503906 45.652344 93.695312 48.933594 92.039062 52.289062 C 89.253906 57.929688 86.375 63.515625 84.015625 69.359375 C 82.613281 72.820312 81.050781 76.226562 79.621094 79.679688 C 79.507812 79.949219 79.410156 80.488281 79.074219 80.335938 C 78.667969 80.152344 79.050781 79.734375 79.171875 79.449219 C 80.953125 75.148438 82.710938 70.835938 84.546875 66.554688 C 86.410156 62.207031 88.652344 58.035156 90.738281 53.792969 C 92.734375 49.734375 94.765625 45.691406 96.78125 41.644531 C 96.867188 41.46875 96.90625 41.246094 97.195312 41.128906 Z M 45.84375 41.511719 C 46.183594 42.652344 46.515625 43.796875 46.980469 44.898438 C 48.617188 48.785156 50.429688 52.617188 51.75 56.617188 C 54.40625 64.65625 57.832031 72.402344 60.675781 80.367188 C 60.761719 80.609375 60.78125 81.101562 61.179688 80.953125 C 61.535156 80.820312 61.214844 80.46875 61.144531 80.234375 C 60.488281 78.0625 59.632812 75.957031 58.792969 73.851562 C 54.519531 63.113281 50.542969 52.269531 46.316406 41.515625 C 46.230469 41.296875 46.195312 41.015625 45.84375 40.9375 C 45.730469 41.160156 45.792969 41.335938 45.84375 41.511719 Z M 94.398438 92.882812 C 97.734375 91.367188 101.0625 89.832031 104.390625 88.300781 C 109.5 85.949219 114.554688 83.484375 119.691406 81.191406 C 123.648438 79.425781 127.675781 77.8125 131.476562 75.714844 C 131.753906 75.5625 132.117188 75.496094 132.332031 74.96875 C 119.035156 80.84375 106.105469 87.113281 93.058594 93.136719 C 93.574219 93.285156 93.988281 93.066406 94.398438 92.882812 Z M 97.195312 102.226562 C 101.769531 102.085938 106.347656 102.371094 110.921875 102.207031 C 114.203125 102.089844 117.484375 102.304688 120.765625 102.363281 C 124.855469 102.4375 128.941406 102.199219 133.027344 102.046875 C 134.691406 101.984375 136.355469 101.9375 138.015625 101.878906 C 138.199219 101.871094 138.460938 101.871094 138.453125 101.648438 C 138.445312 101.378906 138.167969 101.488281 138.007812 101.492188 C 137.058594 101.523438 136.113281 101.574219 135.167969 101.609375 C 127.152344 101.917969 119.132812 101.652344 111.113281 101.90625 C 106.148438 102.066406 101.179688 101.589844 96.210938 101.820312 C 95.925781 101.832031 95.613281 101.746094 95.335938 102.0625 C 95.972656 102.257812 96.589844 102.246094 97.195312 102.226562 Z M 44.980469 101.660156 C 44.03125 101.628906 43.085938 101.621094 42.140625 101.597656 C 38.210938 101.503906 34.292969 101.949219 30.367188 101.894531 C 26.738281 101.84375 23.117188 101.703125 19.488281 101.652344 C 14.105469 101.578125 8.726562 101.6875 3.34375 101.761719 C 3.128906 101.765625 2.785156 101.683594 2.773438 101.984375 C 2.757812 102.339844 3.117188 102.191406 3.3125 102.195312 C 5.898438 102.210938 8.484375 102.242188 11.074219 102.21875 C 20.382812 102.128906 29.691406 102.265625 39 102.054688 C 40.917969 102.011719 42.835938 102.050781 44.753906 102.039062 C 45.035156 102.039062 45.359375 102.128906 45.601562 101.859375 C 45.445312 101.613281 45.195312 101.667969 44.980469 101.660156 Z M 10.332031 75.324219 C 14.9375 77.460938 19.542969 79.582031 23.960938 82.089844 C 30.003906 85.515625 36.433594 88.1875 42.554688 91.46875 C 44.15625 92.328125 45.851562 93.015625 47.507812 93.773438 C 47.644531 93.835938 47.855469 94.054688 47.96875 93.777344 C 48.042969 93.589844 47.8125 93.527344 47.675781 93.457031 C 47.226562 93.21875 46.78125 92.976562 46.324219 92.753906 C 42.472656 90.867188 38.59375 89.03125 34.765625 87.09375 C 26.535156 82.925781 18.300781 78.769531 10.019531 74.703125 C 9.820312 74.609375 9.636719 74.421875 9.300781 74.597656 C 9.566406 75.011719 9.96875 75.15625 10.332031 75.324219 Z M 70.777344 49.636719 C 70.738281 52.640625 70.683594 55.644531 70.65625 58.652344 C 70.601562 65.304688 70.507812 71.957031 70.625 78.609375 C 70.628906 78.902344 70.515625 79.390625 70.949219 79.375 C 71.339844 79.363281 71.167969 78.890625 71.179688 78.621094 C 71.355469 73.738281 70.972656 68.855469 71.132812 63.96875 C 71.28125 59.359375 71.171875 54.746094 71.167969 50.132812 C 71.167969 49.847656 71.253906 49.53125 70.96875 49.257812 C 70.785156 49.363281 70.78125 49.496094 70.777344 49.636719 Z M 109.183594 64.464844 C 109.023438 64.542969 108.875 64.660156 108.746094 64.785156 C 106.921875 66.507812 105.117188 68.25 103.277344 69.953125 C 101.132812 71.9375 98.925781 73.859375 96.796875 75.863281 C 93.78125 78.699219 90.859375 81.636719 87.992188 84.621094 C 87.800781 84.820312 87.617188 85.027344 87.445312 85.242188 C 87.359375 85.351562 87.292969 85.496094 87.40625 85.613281 C 87.554688 85.765625 87.703125 85.671875 87.824219 85.550781 C 88.148438 85.226562 88.46875 84.894531 88.796875 84.574219 C 90.535156 82.863281 92.359375 81.226562 93.992188 79.425781 C 96.332031 76.84375 98.824219 74.433594 101.480469 72.1875 C 104.070312 70 106.453125 67.597656 108.894531 65.257812 C 109.09375 65.066406 109.261719 64.851562 109.417969 64.675781 C 109.40625 64.464844 109.292969 64.410156 109.183594 64.464844 Z M 32.820312 63.828125 C 32.941406 64.191406 33.238281 64.421875 33.5 64.675781 C 39.109375 70.167969 44.417969 75.953125 50.023438 81.453125 C 51.273438 82.675781 52.457031 83.964844 53.636719 85.253906 C 53.765625 85.398438 53.9375 85.621094 54.152344 85.425781 C 54.371094 85.230469 54.160156 85.054688 54.027344 84.90625 C 53.527344 84.363281 53.035156 83.816406 52.523438 83.289062 C 49.203125 79.839844 45.71875 76.546875 42.359375 73.136719 C 39.710938 70.449219 37.21875 67.609375 34.449219 65.039062 C 33.953125 64.582031 33.453125 64.132812 32.957031 63.675781 C 32.910156 63.726562 32.867188 63.777344 32.820312 63.828125 Z M 57.660156 82.632812 C 57.601562 82.101562 57.265625 81.683594 56.988281 81.253906 C 54.699219 77.753906 52.441406 74.230469 50.035156 70.808594 C 49.53125 70.09375 49.039062 69.375 48.53125 68.664062 C 48.445312 68.539062 48.320312 68.371094 48.140625 68.507812 C 47.992188 68.617188 48.121094 68.757812 48.179688 68.875 C 48.230469 68.976562 48.296875 69.070312 48.363281 69.164062 C 50.878906 72.84375 53.53125 76.433594 55.765625 80.300781 C 56.261719 81.160156 56.90625 81.933594 57.480469 82.746094 C 57.539062 82.707031 57.597656 82.671875 57.660156 82.632812 Z M 66.460938 79.402344 C 66.460938 78.683594 66.175781 78.015625 66.042969 77.320312 C 65.164062 72.710938 64.292969 68.101562 63.410156 63.492188 C 63.347656 63.175781 63.355469 62.585938 63.023438 62.65625 C 62.613281 62.742188 62.84375 63.273438 62.914062 63.605469 C 63.792969 67.816406 64.847656 71.996094 65.378906 76.273438 C 65.523438 77.449219 65.867188 78.585938 66.222656 79.75 C 66.484375 79.636719 66.460938 79.507812 66.460938 79.402344 Z M 50.398438 88.183594 C 49.699219 87.542969 48.90625 87.03125 48.125 86.496094 C 45.542969 84.722656 42.957031 82.953125 40.480469 81.03125 C 39.699219 80.425781 38.871094 79.878906 38.054688 79.316406 C 37.894531 79.210938 37.652344 79.058594 37.511719 79.308594 C 37.402344 79.503906 37.636719 79.628906 37.78125 79.730469 C 38.246094 80.066406 38.71875 80.394531 39.199219 80.714844 C 40.023438 81.265625 40.867188 81.789062 41.675781 82.359375 C 44.5 84.351562 47.15625 86.570312 50.046875 88.46875 C 50.277344 88.621094 50.464844 88.929688 50.84375 88.777344 C 50.796875 88.492188 50.578125 88.351562 50.398438 88.183594 Z M 46.265625 97.402344 C 46.167969 97.351562 46.074219 97.273438 45.964844 97.253906 C 43.804688 96.890625 41.726562 96.183594 39.578125 95.773438 C 36.996094 95.28125 34.515625 94.386719 31.945312 93.855469 C 31.488281 93.757812 31.007812 93.53125 30.480469 93.773438 C 30.722656 94.113281 31.058594 94.132812 31.363281 94.210938 C 33.414062 94.730469 35.476562 95.195312 37.546875 95.648438 C 39.660156 96.109375 41.730469 96.753906 43.828125 97.277344 C 44.613281 97.472656 45.417969 97.644531 46.234375 97.574219 C 46.246094 97.519531 46.257812 97.460938 46.265625 97.402344 Z M 91.449219 89.246094 C 92.089844 88.796875 92.714844 88.324219 93.351562 87.871094 C 96.40625 85.695312 99.464844 83.527344 102.515625 81.347656 C 102.867188 81.097656 103.1875 80.792969 103.511719 80.5 C 103.617188 80.402344 103.804688 80.277344 103.640625 80.105469 C 103.523438 79.984375 103.378906 80.113281 103.273438 80.183594 C 102.742188 80.546875 102.21875 80.925781 101.6875 81.289062 C 99.878906 82.519531 98.316406 84.074219 96.445312 85.226562 C 94.699219 86.300781 93.027344 87.480469 91.410156 88.742188 C 91.164062 88.933594 90.863281 89.089844 90.78125 89.476562 C 91.113281 89.578125 91.273438 89.371094 91.449219 89.246094 Z M 84.917969 81.226562 C 86.640625 78.457031 88.378906 75.703125 90.335938 73.089844 C 91.082031 72.097656 91.742188 71.046875 92.359375 69.972656 C 92.46875 69.777344 92.664062 69.496094 92.441406 69.355469 C 92.191406 69.199219 92.0625 69.53125 91.953125 69.710938 C 89.574219 73.636719 86.871094 77.355469 84.390625 81.214844 C 84.085938 81.683594 83.71875 82.121094 83.621094 82.707031 C 84.238281 82.351562 84.574219 81.78125 84.917969 81.226562 Z M 75.273438 79.523438 C 75.335938 79.285156 75.410156 79.050781 75.457031 78.8125 C 76.355469 74.230469 77.164062 69.632812 78.238281 65.085938 C 78.351562 64.621094 78.421875 64.140625 78.492188 63.667969 C 78.519531 63.488281 78.53125 63.25 78.292969 63.222656 C 78.054688 63.195312 78.039062 63.445312 77.984375 63.609375 C 77.953125 63.695312 77.957031 63.789062 77.941406 63.882812 C 77.308594 68.09375 76.359375 72.242188 75.519531 76.414062 C 75.316406 77.425781 75.113281 78.457031 75.089844 79.5 C 75.152344 79.507812 75.210938 79.515625 75.273438 79.523438 Z M 110 94.304688 C 104.972656 95.351562 99.9375 96.378906 94.976562 97.746094 C 96.011719 97.902344 109.683594 94.753906 110 94.304688 Z M 28.738281 93.445312 C 28.804688 93.453125 28.921875 93.378906 28.949219 93.316406 C 29.007812 93.179688 28.894531 93.105469 28.785156 93.074219 C 27.984375 92.851562 27.199219 92.539062 26.332031 92.640625 C 27.078125 93.082031 27.878906 93.351562 28.738281 93.445312 Z M 45.898438 65.191406 C 45.84375 65.175781 45.726562 65.183594 45.71875 65.207031 C 45.695312 65.285156 45.671875 65.394531 45.707031 65.457031 C 46.023438 66.046875 46.414062 66.585938 46.851562 67.089844 C 46.933594 67.183594 47.042969 67.234375 47.160156 67.171875 C 47.203125 67.148438 47.21875 67.066406 47.234375 67.042969 C 47.234375 66.769531 46.121094 65.25 45.898438 65.191406 Z M 105.140625 78.730469 C 105.027344 78.816406 104.957031 78.964844 105.046875 79.089844 C 105.148438 79.238281 105.296875 79.15625 105.414062 79.085938 C 105.996094 78.730469 106.519531 78.300781 106.890625 77.699219 C 106.21875 77.914062 105.667969 78.308594 105.140625 78.730469 Z M 62.515625 60.746094 C 62.542969 60.871094 62.589844 61.03125 62.769531 61.007812 C 62.902344 60.988281 62.960938 60.875 62.929688 60.753906 C 62.761719 60.019531 62.730469 59.242188 62.210938 58.609375 C 62.148438 59.351562 62.34375 60.046875 62.515625 60.746094 Z M 79.175781 59.503906 C 79.1875 59.4375 79.117188 59.316406 79.054688 59.289062 C 78.917969 59.226562 78.84375 59.351562 78.816406 59.457031 C 78.652344 60.125 78.402344 60.789062 78.648438 61.503906 C 79.101562 60.902344 79.078125 60.1875 79.175781 59.503906 Z M 94.828125 65.820312 C 94.300781 66.496094 93.613281 67.0625 93.441406 67.96875 C 94.03125 67.332031 94.640625 66.707031 94.828125 65.820312 Z M 33.527344 76.683594 C 34 77.347656 34.679688 77.730469 35.445312 78.007812 C 34.945312 77.375 34.351562 76.863281 33.527344 76.683594 Z M 111.734375 93.988281 C 112.488281 93.859375 113.292969 93.902344 113.902344 93.320312 C 113.144531 93.4375 112.328125 93.378906 111.734375 93.988281 Z M 111.734375 93.988281 " fill-opacity="1" fill-rule="nonzero"/><path fill="#000000" d="M 97.195312 41.128906 C 97.332031 41.558594 97.09375 41.878906 96.957031 42.203125 C 95.503906 45.652344 93.695312 48.933594 92.039062 52.289062 C 89.253906 57.929688 86.375 63.515625 84.015625 69.359375 C 82.613281 72.820312 81.050781 76.226562 79.621094 79.679688 C 79.507812 79.949219 79.410156 80.488281 79.074219 80.335938 C 78.667969 80.152344 79.050781 79.734375 79.171875 79.449219 C 80.953125 75.148438 82.710938 70.835938 84.546875 66.554688 C 86.410156 62.207031 88.652344 58.035156 90.738281 53.792969 C 92.734375 49.734375 94.765625 45.691406 96.78125 41.644531 C 96.867188 41.46875 96.90625 41.246094 97.195312 41.128906 Z M 45.84375 41.511719 C 46.183594 42.652344 46.515625 43.796875 46.980469 44.898438 C 48.617188 48.785156 50.429688 52.617188 51.75 56.617188 C 54.40625 64.65625 57.832031 72.402344 60.675781 80.367188 C 60.761719 80.609375 60.78125 81.101562 61.179688 80.953125 C 61.535156 80.820312 61.214844 80.46875 61.144531 80.234375 C 60.488281 78.0625 59.632812 75.957031 58.792969 73.851562 C 54.519531 63.113281 50.542969 52.269531 46.316406 41.515625 C 46.230469 41.296875 46.195312 41.015625 45.84375 40.9375 C 45.730469 41.160156 45.792969 41.335938 45.84375 41.511719 Z M 94.398438 92.882812 C 97.734375 91.367188 101.0625 89.832031 104.390625 88.300781 C 109.5 85.949219 114.554688 83.484375 119.691406 81.191406 C 123.648438 79.425781 127.675781 77.8125 131.476562 75.714844 C 131.753906 75.5625 132.117188 75.496094 132.332031 74.96875 C 119.035156 80.84375 106.105469 87.113281 93.058594 93.136719 C 93.574219 93.285156 93.988281 93.066406 94.398438 92.882812 Z M 97.195312 102.226562 C 101.769531 102.085938 106.347656 102.371094 110.921875 102.207031 C 114.203125 102.089844 117.484375 102.304688 120.765625 102.363281 C 124.855469 102.4375 128.941406 102.199219 133.027344 102.046875 C 134.691406 101.984375 136.355469 101.9375 138.015625 101.878906 C 138.199219 101.871094 138.460938 101.871094 138.453125 101.648438 C 138.445312 101.378906 138.167969 101.488281 138.007812 101.492188 C 137.058594 101.523438 136.113281 101.574219 135.167969 101.609375 C 127.152344 101.917969 119.132812 101.652344 111.113281 101.90625 C 106.148438 102.066406 101.179688 101.589844 96.210938 101.820312 C 95.925781 101.832031 95.613281 101.746094 95.335938 102.0625 C 95.972656 102.257812 96.589844 102.246094 97.195312 102.226562 Z M 44.980469 101.660156 C 44.03125 101.628906 43.085938 101.621094 42.140625 101.597656 C 38.210938 101.503906 34.292969 101.949219 30.367188 101.894531 C 26.738281 101.84375 23.117188 101.703125 19.488281 101.652344 C 14.105469 101.578125 8.726562 101.6875 3.34375 101.761719 C 3.128906 101.765625 2.785156 101.683594 2.773438 101.984375 C 2.757812 102.339844 3.117188 102.191406 3.3125 102.195312 C 5.898438 102.210938 8.484375 102.242188 11.074219 102.21875 C 20.382812 102.128906 29.691406 102.265625 39 102.054688 C 40.917969 102.011719 42.835938 102.050781 44.753906 102.039062 C 45.035156 102.039062 45.359375 102.128906 45.601562 101.859375 C 45.445312 101.613281 45.195312 101.667969 44.980469 101.660156 Z M 10.332031 75.324219 C 14.9375 77.460938 19.542969 79.582031 23.960938 82.089844 C 30.003906 85.515625 36.433594 88.1875 42.554688 91.46875 C 44.15625 92.328125 45.851562 93.015625 47.507812 93.773438 C 47.644531 93.835938 47.855469 94.054688 47.96875 93.777344 C 48.042969 93.589844 47.8125 93.527344 47.675781 93.457031 C 47.226562 93.21875 46.78125 92.976562 46.324219 92.753906 C 42.472656 90.867188 38.59375 89.03125 34.765625 87.09375 C 26.535156 82.925781 18.300781 78.769531 10.019531 74.703125 C 9.820312 74.609375 9.636719 74.421875 9.300781 74.597656 C 9.566406 75.011719 9.96875 75.15625 10.332031 75.324219 Z M 70.777344 49.636719 C 70.738281 52.640625 70.683594 55.644531 70.65625 58.652344 C 70.601562 65.304688 70.507812 71.957031 70.625 78.609375 C 70.628906 78.902344 70.515625 79.390625 70.949219 79.375 C 71.339844 79.363281 71.167969 78.890625 71.179688 78.621094 C 71.355469 73.738281 70.972656 68.855469 71.132812 63.96875 C 71.28125 59.359375 71.171875 54.746094 71.167969 50.132812 C 71.167969 49.847656 71.253906 49.53125 70.96875 49.257812 C 70.785156 49.363281 70.78125 49.496094 70.777344 49.636719 Z M 109.183594 64.464844 C 109.023438 64.542969 108.875 64.660156 108.746094 64.785156 C 106.921875 66.507812 105.117188 68.25 103.277344 69.953125 C 101.132812 71.9375 98.925781 73.859375 96.796875 75.863281 C 93.78125 78.699219 90.859375 81.636719 87.992188 84.621094 C 87.800781 84.820312 87.617188 85.027344 87.445312 85.242188 C 87.359375 85.351562 87.292969 85.496094 87.40625 85.613281 C 87.554688 85.765625 87.703125 85.671875 87.824219 85.550781 C 88.148438 85.226562 88.46875 84.894531 88.796875 84.574219 C 90.535156 82.863281 92.359375 81.226562 93.992188 79.425781 C 96.332031 76.84375 98.824219 74.433594 101.480469 72.1875 C 104.070312 70 106.453125 67.597656 108.894531 65.257812 C 109.09375 65.066406 109.261719 64.851562 109.417969 64.675781 C 109.40625 64.464844 109.292969 64.410156 109.183594 64.464844 Z M 32.820312 63.828125 C 32.941406 64.191406 33.238281 64.421875 33.5 64.675781 C 39.109375 70.167969 44.417969 75.953125 50.023438 81.453125 C 51.273438 82.675781 52.457031 83.964844 53.636719 85.253906 C 53.765625 85.398438 53.9375 85.621094 54.152344 85.425781 C 54.371094 85.230469 54.160156 85.054688 54.027344 84.90625 C 53.527344 84.363281 53.035156 83.816406 52.523438 83.289062 C 49.203125 79.839844 45.71875 76.546875 42.359375 73.136719 C 39.710938 70.449219 37.21875 67.609375 34.449219 65.039062 C 33.953125 64.582031 33.453125 64.132812 32.957031 63.675781 C 32.910156 63.726562 32.867188 63.777344 32.820312 63.828125 Z M 57.660156 82.632812 C 57.601562 82.101562 57.265625 81.683594 56.988281 81.253906 C 54.699219 77.753906 52.441406 74.230469 50.035156 70.808594 C 49.53125 70.09375 49.039062 69.375 48.53125 68.664062 C 48.445312 68.539062 48.320312 68.371094 48.140625 68.507812 C 47.992188 68.617188 48.121094 68.757812 48.179688 68.875 C 48.230469 68.976562 48.296875 69.070312 48.363281 69.164062 C 50.878906 72.84375 53.53125 76.433594 55.765625 80.300781 C 56.261719 81.160156 56.90625 81.933594 57.480469 82.746094 C 57.539062 82.707031 57.597656 82.671875 57.660156 82.632812 Z M 66.460938 79.402344 C 66.460938 78.683594 66.175781 78.015625 66.042969 77.320312 C 65.164062 72.710938 64.292969 68.101562 63.410156 63.492188 C 63.347656 63.175781 63.355469 62.585938 63.023438 62.65625 C 62.613281 62.742188 62.84375 63.273438 62.914062 63.605469 C 63.792969 67.816406 64.847656 71.996094 65.378906 76.273438 C 65.523438 77.449219 65.867188 78.585938 66.222656 79.75 C 66.484375 79.636719 66.460938 79.507812 66.460938 79.402344 Z M 50.398438 88.183594 C 49.699219 87.542969 48.90625 87.03125 48.125 86.496094 C 45.542969 84.722656 42.957031 82.953125 40.480469 81.03125 C 39.699219 80.425781 38.871094 79.878906 38.054688 79.316406 C 37.894531 79.210938 37.652344 79.058594 37.511719 79.308594 C 37.402344 79.503906 37.636719 79.628906 37.78125 79.730469 C 38.246094 80.066406 38.71875 80.394531 39.199219 80.714844 C 40.023438 81.265625 40.867188 81.789062 41.675781 82.359375 C 44.5 84.351562 47.15625 86.570312 50.046875 88.46875 C 50.277344 88.621094 50.464844 88.929688 50.84375 88.777344 C 50.796875 88.492188 50.578125 88.351562 50.398438 88.183594 Z M 46.265625 97.402344 C 46.167969 97.351562 46.074219 97.273438 45.964844 97.253906 C 43.804688 96.890625 41.726562 96.183594 39.578125 95.773438 C 36.996094 95.28125 34.515625 94.386719 31.945312 93.855469 C 31.488281 93.757812 31.007812 93.53125 30.480469 93.773438 C 30.722656 94.113281 31.058594 94.132812 31.363281 94.210938 C 33.414062 94.730469 35.476562 95.195312 37.546875 95.648438 C 39.660156 96.109375 41.730469 96.753906 43.828125 97.277344 C 44.613281 97.472656 45.417969 97.644531 46.234375 97.574219 C 46.246094 97.519531 46.257812 97.460938 46.265625 97.402344 Z M 91.449219 89.246094 C 92.089844 88.796875 92.714844 88.324219 93.351562 87.871094 C 96.40625 85.695312 99.464844 83.527344 102.515625 81.347656 C 102.867188 81.097656 103.1875 80.792969 103.511719 80.5 C 103.617188 80.402344 103.804688 80.277344 103.640625 80.105469 C 103.523438 79.984375 103.378906 80.113281 103.273438 80.183594 C 102.742188 80.546875 102.21875 80.925781 101.6875 81.289062 C 99.878906 82.519531 98.316406 84.074219 96.445312 85.226562 C 94.699219 86.300781 93.027344 87.480469 91.410156 88.742188 C 91.164062 88.933594 90.863281 89.089844 90.78125 89.476562 C 91.113281 89.578125 91.273438 89.371094 91.449219 89.246094 Z M 84.917969 81.226562 C 86.640625 78.457031 88.378906 75.703125 90.335938 73.089844 C 91.082031 72.097656 91.742188 71.046875 92.359375 69.972656 C 92.46875 69.777344 92.664062 69.496094 92.441406 69.355469 C 92.191406 69.199219 92.0625 69.53125 91.953125 69.710938 C 89.574219 73.636719 86.871094 77.355469 84.390625 81.214844 C 84.085938 81.683594 83.71875 82.121094 83.621094 82.707031 C 84.238281 82.351562 84.574219 81.78125 84.917969 81.226562 Z M 75.273438 79.523438 C 75.335938 79.285156 75.410156 79.050781 75.457031 78.8125 C 76.355469 74.230469 77.164062 69.632812 78.238281 65.085938 C 78.351562 64.621094 78.421875 64.140625 78.492188 63.667969 C 78.519531 63.488281 78.53125 63.25 78.292969 63.222656 C 78.054688 63.195312 78.039062 63.445312 77.984375 63.609375 C 77.953125 63.695312 77.957031 63.789062 77.941406 63.882812 C 77.308594 68.09375 76.359375 72.242188 75.519531 76.414062 C 75.316406 77.425781 75.113281 78.457031 75.089844 79.5 C 75.152344 79.507812 75.210938 79.515625 75.273438 79.523438 Z M 110 94.304688 C 104.972656 95.351562 99.9375 96.378906 94.976562 97.746094 C 96.011719 97.902344 109.683594 94.753906 110 94.304688 Z M 28.738281 93.445312 C 28.804688 93.453125 28.921875 93.378906 28.949219 93.316406 C 29.007812 93.179688 28.894531 93.105469 28.785156 93.074219 C 27.984375 92.851562 27.199219 92.539062 26.332031 92.640625 C 27.078125 93.082031 27.878906 93.351562 28.738281 93.445312 Z M 45.898438 65.191406 C 45.84375 65.175781 45.726562 65.183594 45.71875 65.207031 C 45.695312 65.285156 45.671875 65.394531 45.707031 65.457031 C 46.023438 66.046875 46.414062 66.585938 46.851562 67.089844 C 46.933594 67.183594 47.042969 67.234375 47.160156 67.171875 C 47.203125 67.148438 47.21875 67.066406 47.234375 67.042969 C 47.234375 66.769531 46.121094 65.25 45.898438 65.191406 Z M 105.140625 78.730469 C 105.027344 78.816406 104.957031 78.964844 105.046875 79.089844 C 105.148438 79.238281 105.296875 79.15625 105.414062 79.085938 C 105.996094 78.730469 106.519531 78.300781 106.890625 77.699219 C 106.21875 77.914062 105.667969 78.308594 105.140625 78.730469 Z M 62.515625 60.746094 C 62.542969 60.871094 62.589844 61.03125 62.769531 61.007812 C 62.902344 60.988281 62.960938 60.875 62.929688 60.753906 C 62.761719 60.019531 62.730469 59.242188 62.210938 58.609375 C 62.148438 59.351562 62.34375 60.046875 62.515625 60.746094 Z M 79.175781 59.503906 C 79.1875 59.4375 79.117188 59.316406 79.054688 59.289062 C 78.917969 59.226562 78.84375 59.351562 78.816406 59.457031 C 78.652344 60.125 78.402344 60.789062 78.648438 61.503906 C 79.101562 60.902344 79.078125 60.1875 79.175781 59.503906 Z M 94.828125 65.820312 C 94.300781 66.496094 93.613281 67.0625 93.441406 67.96875 C 94.03125 67.332031 94.640625 66.707031 94.828125 65.820312 Z M 33.527344 76.683594 C 34 77.347656 34.679688 77.730469 35.445312 78.007812 C 34.945312 77.375 34.351562 76.863281 33.527344 76.683594 Z M 111.734375 93.988281 C 112.488281 93.859375 113.292969 93.902344 113.902344 93.320312 C 113.144531 93.4375 112.328125 93.378906 111.734375 93.988281 Z M 111.734375 93.988281 " fill-opacity="1" fill-rule="nonzero"/></g><g fill="#000000" fill-opacity="1"><g transform="translate(134.527185, 84.27142)"><g><path d="M 0.488281 0 L 12.257812 0 C 11.882812 -1.6875 11.707031 -3.019531 11.59375 -4.96875 C 10.667969 -1.914062 7.9375 -0.488281 4.984375 -0.488281 C 4.5625 -2.597656 4.351562 -4.902344 4.351562 -6.738281 C 4.351562 -6.882812 4.449219 -6.980469 4.609375 -6.980469 L 5.8125 -6.980469 C 7.273438 -6.980469 8.394531 -6.511719 9.644531 -4.722656 C 9.496094 -6.6875 9.496094 -7.777344 9.644531 -9.726562 C 8.359375 -7.90625 7.289062 -7.46875 5.8125 -7.46875 L 4.609375 -7.46875 C 4.464844 -7.46875 4.367188 -7.582031 4.367188 -7.726562 C 4.414062 -10.261719 4.628906 -12.191406 4.984375 -13.960938 C 7.957031 -13.960938 10.667969 -12.550781 11.59375 -9.480469 C 11.707031 -11.429688 11.882812 -12.761719 12.257812 -14.449219 L 0.488281 -14.449219 C 1.476562 -10.015625 1.476562 -4.433594 0.488281 0 Z M 0.488281 0 "/></g></g></g><g fill="#000000" fill-opacity="1"><g transform="translate(147.774349, 84.27142)"><g><path d="M 0.488281 0 L 3.816406 0 C 2.242188 -2.679688 1.640625 -5.261719 1.738281 -8.3125 C 1.769531 -9.367188 1.835938 -10.421875 1.949219 -11.445312 C 5.164062 -6.917969 7.207031 -1.6875 7.679688 0 L 12.453125 -11.460938 C 12.890625 -7.679688 12.726562 -3.472656 11.949219 0 L 16.542969 0 C 15.570312 -4.433594 15.570312 -10.015625 16.542969 -14.449219 L 13.183594 -14.449219 L 9.59375 -5.714844 C 7.648438 -8.28125 5.828125 -11.609375 5.082031 -14.449219 L 0.488281 -14.449219 C 1.476562 -10.015625 1.476562 -4.433594 0.488281 0 Z M 0.488281 0 "/></g></g></g><g fill="#000000" fill-opacity="1"><g transform="translate(165.469921, 84.27142)"><g><path d="M 0.488281 0 L 5.082031 0 C 4.742188 -1.574219 4.511719 -3.28125 4.414062 -5.03125 L 6.28125 -5.03125 C 14.824219 -5.050781 15.277344 -14.433594 6.28125 -14.449219 L 0.503906 -14.449219 C 1.476562 -10.015625 1.476562 -4.433594 0.488281 0 Z M 4.367188 -8.085938 C 4.367188 -9.820312 4.449219 -13.914062 6.785156 -13.914062 C 8.035156 -13.914062 8.75 -12.988281 9.125 -11.867188 C 10.246094 -8.589844 8.101562 -5.617188 5.957031 -5.617188 L 4.382812 -5.617188 C 4.351562 -6.722656 4.367188 -7.128906 4.367188 -8.085938 Z M 4.367188 -8.085938 "/></g></g></g><g fill="#000000" fill-opacity="1"><g transform="translate(179.009315, 84.27142)"><g><path d="M 7.550781 0.324219 C 11.722656 0.324219 14.613281 -3.050781 14.613281 -7.222656 C 14.613281 -11.398438 11.722656 -14.773438 7.550781 -14.773438 C 3.375 -14.773438 0.488281 -11.398438 0.488281 -7.222656 C 0.488281 -3.050781 3.375 0.324219 7.550781 0.324219 Z M 4.480469 -7.46875 C 5.339844 -12.078125 7.078125 -14.15625 8.492188 -14.15625 C 10.097656 -14.15625 11.316406 -11.527344 10.457031 -6.867188 C 9.855469 -3.523438 8.199219 -0.292969 5.925781 -0.292969 C 4.089844 -0.292969 3.816406 -3.929688 4.480469 -7.46875 Z M 4.480469 -7.46875 "/></g></g></g><g fill="#000000" fill-opacity="1"><g transform="translate(194.772914, 84.27142)"><g><path d="M 4.335938 0.324219 L 7.46875 0 L 9.789062 -8.457031 C 9.839844 -8.652344 9.886719 -8.832031 9.953125 -9.027344 C 11.167969 -5.828125 12.535156 -1.460938 12.535156 0.324219 L 15.617188 0 L 17.242188 -5.925781 C 18.605469 -10.894531 19.433594 -12.632812 20.796875 -14.449219 L 15.960938 -14.449219 C 18.054688 -12.792969 18.070312 -10.648438 16.753906 -5.828125 L 15.714844 -2.03125 C 15.097656 -3.296875 12.257812 -10.632812 13.394531 -14.449219 L 7.4375 -14.449219 C 8.246094 -13.378906 8.667969 -12.339844 9.058594 -11.316406 C 9.398438 -10.390625 9.496094 -9.238281 9.269531 -8.425781 C 9.253906 -8.378906 9.253906 -8.34375 9.238281 -8.296875 L 7.515625 -2.03125 C 7.515625 -3.425781 4.269531 -11.332031 5.195312 -14.449219 L -0.585938 -14.449219 C 1.167969 -11.496094 4.335938 -4.773438 4.335938 0.324219 Z M 4.335938 0.324219 "/></g></g></g><g fill="#000000" fill-opacity="1"><g transform="translate(215.634327, 84.27142)"><g><path d="M 0.488281 0 L 12.257812 0 C 11.882812 -1.6875 11.707031 -3.019531 11.59375 -4.96875 C 10.667969 -1.914062 7.9375 -0.488281 4.984375 -0.488281 C 4.5625 -2.597656 4.351562 -4.902344 4.351562 -6.738281 C 4.351562 -6.882812 4.449219 -6.980469 4.609375 -6.980469 L 5.8125 -6.980469 C 7.273438 -6.980469 8.394531 -6.511719 9.644531 -4.722656 C 9.496094 -6.6875 9.496094 -7.777344 9.644531 -9.726562 C 8.359375 -7.90625 7.289062 -7.46875 5.8125 -7.46875 L 4.609375 -7.46875 C 4.464844 -7.46875 4.367188 -7.582031 4.367188 -7.726562 C 4.414062 -10.261719 4.628906 -12.191406 4.984375 -13.960938 C 7.957031 -13.960938 10.667969 -12.550781 11.59375 -9.480469 C 11.707031 -11.429688 11.882812 -12.761719 12.257812 -14.449219 L 0.488281 -14.449219 C 1.476562 -10.015625 1.476562 -4.433594 0.488281 0 Z M 0.488281 0 "/></g></g></g><g fill="#000000" fill-opacity="1"><g transform="translate(228.881494, 84.27142)"><g><path d="M 5.082031 0 C 4.742188 -1.574219 4.382812 -4.074219 4.367188 -6.347656 L 5.957031 -6.347656 C 7.320312 -3.992188 7.839844 -1.492188 7.710938 0 L 13.425781 0 C 12.113281 -1.265625 10.246094 -4.285156 9.011719 -6.671875 C 14.96875 -8.148438 14.238281 -14.433594 6.28125 -14.449219 L 0.503906 -14.449219 C 1.476562 -10.015625 1.476562 -4.433594 0.488281 0 Z M 4.351562 -6.933594 C 4.351562 -10.339844 4.839844 -13.898438 6.867188 -13.898438 C 8.328125 -13.898438 9.058594 -12.417969 9.320312 -11.1875 C 9.804688 -8.78125 8.539062 -6.933594 5.910156 -6.933594 Z M 4.351562 -6.933594 "/></g></g></g><g fill="#000000" fill-opacity="1"><g transform="translate(242.875473, 84.27142)"><g><path d="M 0.488281 0 L 12.257812 0 C 11.882812 -1.6875 11.707031 -3.019531 11.59375 -4.96875 C 10.667969 -1.914062 7.9375 -0.488281 4.984375 -0.488281 C 4.5625 -2.597656 4.351562 -4.902344 4.351562 -6.738281 C 4.351562 -6.882812 4.449219 -6.980469 4.609375 -6.980469 L 5.8125 -6.980469 C 7.273438 -6.980469 8.394531 -6.511719 9.644531 -4.722656 C 9.496094 -6.6875 9.496094 -7.777344 9.644531 -9.726562 C 8.359375 -7.90625 7.289062 -7.46875 5.8125 -7.46875 L 4.609375 -7.46875 C 4.464844 -7.46875 4.367188 -7.582031 4.367188 -7.726562 C 4.414062 -10.261719 4.628906 -12.191406 4.984375 -13.960938 C 7.957031 -13.960938 10.667969 -12.550781 11.59375 -9.480469 C 11.707031 -11.429688 11.882812 -12.761719 12.257812 -14.449219 L 0.488281 -14.449219 C 1.476562 -10.015625 1.476562 -4.433594 0.488281 0 Z M 0.488281 0 "/></g></g></g><g fill="#000000" fill-opacity="1"><g transform="translate(256.12264, 84.27142)"><g><path d="M 7.175781 0 C 15.976562 0.015625 16.089844 -14.433594 7.289062 -14.449219 L 0.488281 -14.449219 C 1.476562 -10.015625 1.476562 -4.433594 0.488281 0 Z M 4.351562 -3.050781 L 4.351562 -7.597656 C 4.351562 -11.007812 5.761719 -13.898438 7.839844 -13.898438 C 8.019531 -13.898438 8.199219 -13.882812 8.378906 -13.832031 C 9.789062 -13.507812 10.894531 -11.316406 10.40625 -7.175781 C 9.917969 -3.050781 7.566406 -0.535156 5.941406 -0.535156 C 5.03125 -0.535156 4.351562 -1.316406 4.351562 -3.050781 Z M 4.351562 -3.050781 "/></g></g></g><g fill="#000000" fill-opacity="1"><g transform="translate(271.106959, 84.27142)"><g/></g></g><g fill="#000000" fill-opacity="1"><g transform="translate(275.993067, 84.27142)"><g><path d="M 0.488281 0 L 5.082031 0 C 4.609375 -2.144531 4.367188 -4.5625 4.351562 -6.996094 L 9.917969 -6.996094 C 9.902344 -4.5625 9.660156 -2.144531 9.171875 0 L 13.765625 0 C 12.792969 -4.433594 12.792969 -10.015625 13.765625 -14.449219 L 9.171875 -14.449219 C 9.644531 -12.304688 9.902344 -9.902344 9.917969 -7.484375 L 4.351562 -7.484375 C 4.367188 -9.902344 4.609375 -12.304688 5.082031 -14.449219 L 0.488281 -14.449219 C 1.476562 -10.015625 1.476562 -4.433594 0.488281 0 Z M 0.488281 0 "/></g></g></g><g fill="#000000" fill-opacity="1"><g transform="translate(290.912446, 84.27142)"><g><path d="M 0.488281 0 L 12.257812 0 C 11.882812 -1.6875 11.707031 -3.019531 11.59375 -4.96875 C 10.667969 -1.914062 7.9375 -0.488281 4.984375 -0.488281 C 4.5625 -2.597656 4.351562 -4.902344 4.351562 -6.738281 C 4.351562 -6.882812 4.449219 -6.980469 4.609375 -6.980469 L 5.8125 -6.980469 C 7.273438 -6.980469 8.394531 -6.511719 9.644531 -4.722656 C 9.496094 -6.6875 9.496094 -7.777344 9.644531 -9.726562 C 8.359375 -7.90625 7.289062 -7.46875 5.8125 -7.46875 L 4.609375 -7.46875 C 4.464844 -7.46875 4.367188 -7.582031 4.367188 -7.726562 C 4.414062 -10.261719 4.628906 -12.191406 4.984375 -13.960938 C 7.957031 -13.960938 10.667969 -12.550781 11.59375 -9.480469 C 11.707031 -11.429688 11.882812 -12.761719 12.257812 -14.449219 L 0.488281 -14.449219 C 1.476562 -10.015625 1.476562 -4.433594 0.488281 0 Z M 0.488281 0 "/></g></g></g><g fill="#000000" fill-opacity="1"><g transform="translate(304.159613, 84.27142)"><g><path d="M 0 0 L 4.789062 0 C 3.34375 -1.152344 2.921875 -2.566406 3.394531 -4.839844 L 8.976562 -4.839844 C 9.449219 -2.953125 9.644531 -1.152344 9.300781 0 L 15.097656 0 C 11.867188 -5.339844 9.351562 -13.800781 9.351562 -14.773438 L 6.511719 -14.449219 L 4.042969 -8.34375 C 2.160156 -3.652344 1.316406 -1.722656 0 0 Z M 3.507812 -5.339844 C 3.734375 -6.25 4.109375 -7.289062 4.59375 -8.507812 L 5.941406 -11.867188 C 6.964844 -10.570312 8.132812 -7.921875 8.847656 -5.339844 Z M 3.507812 -5.339844 "/></g></g></g><g fill="#000000" fill-opacity="1"><g transform="translate(319.468634, 84.27142)"><g><path d="M 0.488281 -14.449219 C 1.476562 -10.015625 1.476562 -4.433594 0.488281 0 L 11.265625 0 C 10.894531 -2.046875 10.746094 -2.742188 10.585938 -4.96875 C 9.820312 -2.453125 6.996094 -0.488281 5.359375 -0.488281 L 4.984375 -0.488281 C 4.089844 -4.917969 4.125 -10.113281 5.082031 -14.449219 Z M 0.488281 -14.449219 "/></g></g></g><g fill="#000000" fill-opacity="1"><g transform="translate(331.30335, 84.27142)"><g><path d="M 5.082031 0 C 4.109375 -4.433594 4.109375 -10.015625 5.082031 -14.449219 L 0.488281 -14.449219 C 1.476562 -10.015625 1.476562 -4.433594 0.488281 0 Z M 5.082031 0 "/></g></g></g><g fill="#000000" fill-opacity="1"><g transform="translate(337.536968, 84.27142)"><g><path d="M 3.816406 0 C 2.726562 -1.867188 1.738281 -4.53125 1.722656 -6.949219 C 1.703125 -8.507812 1.785156 -10.066406 1.964844 -11.558594 C 5.503906 -7.371094 10.226562 -1.6875 10.699219 0 L 13.765625 0 C 12.777344 -4.433594 12.777344 -10.015625 13.765625 -14.449219 L 10.4375 -14.449219 C 11.542969 -12.679688 12.5 -10.066406 12.535156 -7.742188 C 12.550781 -6.933594 12.535156 -6.105469 12.484375 -5.308594 C 11.203125 -6.265625 5.828125 -11.609375 5.082031 -14.449219 L 0.488281 -14.449219 C 1.476562 -10.015625 1.476562 -4.433594 0.488281 0 Z M 3.816406 0 "/></g></g></g><g fill="#000000" fill-opacity="1"><g transform="translate(352.456334, 84.27142)"><g><path d="M 7.710938 0.324219 C 9.027344 0.324219 9.59375 0.144531 10.195312 -0.046875 L 10.992188 -0.292969 C 11.300781 -0.375 11.640625 -0.421875 11.996094 -0.421875 C 12.453125 -0.421875 12.921875 -0.339844 13.3125 -0.195312 L 13.816406 0 C 12.824219 -1.703125 12.824219 -4.660156 13.816406 -6.347656 L 9.222656 -6.347656 C 10.148438 -4.757812 10.195312 -2.0625 9.382812 -0.324219 C 9.140625 -0.257812 8.878906 -0.226562 8.605469 -0.226562 C 6.769531 -0.226562 4.660156 -1.851562 4.660156 -6.511719 C 4.660156 -10.976562 7.078125 -14.09375 9.285156 -14.09375 C 10.765625 -14.09375 12.160156 -12.679688 12.632812 -9.300781 C 12.746094 -11.121094 12.972656 -12.84375 13.3125 -14.449219 L 13.152344 -14.402344 C 12.792969 -14.320312 12.386719 -14.269531 11.964844 -14.269531 C 11.445312 -14.269531 10.910156 -14.335938 10.4375 -14.464844 C 9.464844 -14.726562 9.074219 -14.773438 8.019531 -14.773438 C 3.539062 -14.757812 0.488281 -11.167969 0.488281 -6.996094 C 0.488281 -3.296875 3.425781 0.324219 7.710938 0.324219 Z M 7.710938 0.324219 "/></g></g></g><g fill="#000000" fill-opacity="1"><g transform="translate(204.813061, 100.664229)"><g><path d="M 3.46875 0.078125 C 2.875 0.078125 2.359375 -0.0507812 1.921875 -0.3125 C 1.484375 -0.570312 1.144531 -0.945312 0.90625 -1.4375 C 0.664062 -1.925781 0.546875 -2.5 0.546875 -3.15625 C 0.546875 -3.820312 0.664062 -4.394531 0.90625 -4.875 C 1.144531 -5.351562 1.484375 -5.722656 1.921875 -5.984375 C 2.359375 -6.242188 2.875 -6.375 3.46875 -6.375 C 3.90625 -6.375 4.304688 -6.304688 4.671875 -6.171875 C 5.035156 -6.046875 5.347656 -5.847656 5.609375 -5.578125 L 5.34375 -5.015625 C 5.039062 -5.273438 4.742188 -5.460938 4.453125 -5.578125 C 4.160156 -5.691406 3.835938 -5.75 3.484375 -5.75 C 2.785156 -5.75 2.242188 -5.523438 1.859375 -5.078125 C 1.484375 -4.628906 1.296875 -3.988281 1.296875 -3.15625 C 1.296875 -2.320312 1.484375 -1.679688 1.859375 -1.234375 C 2.242188 -0.785156 2.785156 -0.5625 3.484375 -0.5625 C 3.835938 -0.5625 4.160156 -0.613281 4.453125 -0.71875 C 4.742188 -0.832031 5.039062 -1.019531 5.34375 -1.28125 L 5.609375 -0.71875 C 5.347656 -0.457031 5.035156 -0.257812 4.671875 -0.125 C 4.304688 0.0078125 3.90625 0.078125 3.46875 0.078125 Z M 3.46875 0.078125 "/></g></g></g><g fill="#000000" fill-opacity="1"><g transform="translate(213.537775, 100.664229)"><g><path d="M 3.421875 0.078125 C 2.835938 0.078125 2.328125 -0.0507812 1.890625 -0.3125 C 1.460938 -0.570312 1.128906 -0.945312 0.890625 -1.4375 C 0.660156 -1.925781 0.546875 -2.5 0.546875 -3.15625 C 0.546875 -3.8125 0.660156 -4.378906 0.890625 -4.859375 C 1.117188 -5.347656 1.445312 -5.722656 1.875 -5.984375 C 2.3125 -6.242188 2.828125 -6.375 3.421875 -6.375 C 4.015625 -6.375 4.523438 -6.242188 4.953125 -5.984375 C 5.378906 -5.722656 5.707031 -5.347656 5.9375 -4.859375 C 6.175781 -4.378906 6.296875 -3.8125 6.296875 -3.15625 C 6.296875 -2.5 6.175781 -1.925781 5.9375 -1.4375 C 5.707031 -0.957031 5.375 -0.582031 4.9375 -0.3125 C 4.507812 -0.0507812 4.003906 0.078125 3.421875 0.078125 Z M 3.421875 -0.546875 C 4.085938 -0.546875 4.601562 -0.769531 4.96875 -1.21875 C 5.34375 -1.675781 5.53125 -2.320312 5.53125 -3.15625 C 5.53125 -3.988281 5.347656 -4.628906 4.984375 -5.078125 C 4.617188 -5.535156 4.097656 -5.765625 3.421875 -5.765625 C 2.742188 -5.765625 2.21875 -5.535156 1.84375 -5.078125 C 1.476562 -4.628906 1.296875 -3.988281 1.296875 -3.15625 C 1.296875 -2.320312 1.476562 -1.675781 1.84375 -1.21875 C 2.21875 -0.769531 2.742188 -0.546875 3.421875 -0.546875 Z M 3.421875 -0.546875 "/></g></g></g><g fill="#000000" fill-opacity="1"><g transform="translate(223.042756, 100.664229)"><g><path d="M 3.25 0.078125 C 2.414062 0.078125 1.785156 -0.132812 1.359375 -0.5625 C 0.941406 -1 0.734375 -1.632812 0.734375 -2.46875 L 0.734375 -6.3125 L 1.453125 -6.3125 L 1.453125 -2.40625 C 1.453125 -1.789062 1.601562 -1.328125 1.90625 -1.015625 C 2.207031 -0.703125 2.65625 -0.546875 3.25 -0.546875 C 3.832031 -0.546875 4.269531 -0.703125 4.5625 -1.015625 C 4.863281 -1.328125 5.015625 -1.789062 5.015625 -2.40625 L 5.015625 -6.3125 L 5.734375 -6.3125 L 5.734375 -2.46875 C 5.734375 -1.632812 5.519531 -1 5.09375 -0.5625 C 4.675781 -0.132812 4.0625 0.078125 3.25 0.078125 Z M 3.25 0.078125 "/></g></g></g><g fill="#000000" fill-opacity="1"><g transform="translate(232.184207, 100.664229)"><g><path d="M 5.140625 -6.3125 L 5.84375 -6.3125 L 5.84375 0 L 5.265625 0 L 1.46875 -5.078125 L 1.46875 0 L 0.78125 0 L 0.78125 -6.3125 L 1.34375 -6.3125 L 5.140625 -1.234375 Z M 5.140625 -6.3125 "/></g></g></g><g fill="#000000" fill-opacity="1"><g transform="translate(241.458647, 100.664229)"><g><path d="M 2.78125 0.078125 C 1.789062 0.078125 1.003906 -0.1875 0.421875 -0.71875 L 0.703125 -1.28125 C 1.015625 -1.019531 1.332031 -0.832031 1.65625 -0.71875 C 1.976562 -0.601562 2.359375 -0.546875 2.796875 -0.546875 C 3.296875 -0.546875 3.679688 -0.644531 3.953125 -0.84375 C 4.234375 -1.039062 4.375 -1.320312 4.375 -1.6875 C 4.375 -1.894531 4.304688 -2.066406 4.171875 -2.203125 C 4.046875 -2.335938 3.875 -2.441406 3.65625 -2.515625 C 3.4375 -2.585938 3.148438 -2.664062 2.796875 -2.75 C 2.304688 -2.863281 1.90625 -2.976562 1.59375 -3.09375 C 1.28125 -3.21875 1.023438 -3.394531 0.828125 -3.625 C 0.640625 -3.863281 0.546875 -4.171875 0.546875 -4.546875 C 0.546875 -4.910156 0.640625 -5.226562 0.828125 -5.5 C 1.015625 -5.78125 1.28125 -5.992188 1.625 -6.140625 C 1.96875 -6.296875 2.367188 -6.375 2.828125 -6.375 C 3.265625 -6.375 3.671875 -6.304688 4.046875 -6.171875 C 4.429688 -6.035156 4.753906 -5.835938 5.015625 -5.578125 L 4.734375 -5.015625 C 4.429688 -5.273438 4.128906 -5.460938 3.828125 -5.578125 C 3.523438 -5.703125 3.191406 -5.765625 2.828125 -5.765625 C 2.335938 -5.765625 1.953125 -5.65625 1.671875 -5.4375 C 1.398438 -5.226562 1.265625 -4.941406 1.265625 -4.578125 C 1.265625 -4.265625 1.382812 -4.023438 1.625 -3.859375 C 1.875 -3.703125 2.25 -3.566406 2.75 -3.453125 C 3.289062 -3.316406 3.710938 -3.191406 4.015625 -3.078125 C 4.328125 -2.972656 4.585938 -2.8125 4.796875 -2.59375 C 5.003906 -2.375 5.109375 -2.078125 5.109375 -1.703125 C 5.109375 -1.347656 5.015625 -1.035156 4.828125 -0.765625 C 4.640625 -0.503906 4.367188 -0.296875 4.015625 -0.140625 C 3.660156 0.00390625 3.25 0.078125 2.78125 0.078125 Z M 2.78125 0.078125 "/></g></g></g><g fill="#000000" fill-opacity="1"><g transform="translate(249.642505, 100.664229)"><g><path d="M 0.78125 0 L 0.78125 -6.3125 L 4.765625 -6.3125 L 4.765625 -5.703125 L 1.5 -5.703125 L 1.5 -3.515625 L 4.59375 -3.515625 L 4.59375 -2.890625 L 1.5 -2.890625 L 1.5 -0.609375 L 4.765625 -0.609375 L 4.765625 0 Z M 0.78125 0 "/></g></g></g><g fill="#000000" fill-opacity="1"><g transform="translate(257.516024, 100.664229)"><g><path d="M 0.78125 0 L 0.78125 -6.3125 L 1.5 -6.3125 L 1.5 -0.625 L 4.671875 -0.625 L 4.671875 0 Z M 0.78125 0 "/></g></g></g><g fill="#000000" fill-opacity="1"><g transform="translate(265.008277, 100.664229)"><g><path d="M 0.78125 0 L 0.78125 -6.3125 L 1.5 -6.3125 L 1.5 0 Z M 0.78125 0 "/></g></g></g><g fill="#000000" fill-opacity="1"><g transform="translate(269.955822, 100.664229)"><g><path d="M 5.140625 -6.3125 L 5.84375 -6.3125 L 5.84375 0 L 5.265625 0 L 1.46875 -5.078125 L 1.46875 0 L 0.78125 0 L 0.78125 -6.3125 L 1.34375 -6.3125 L 5.140625 -1.234375 Z M 5.140625 -6.3125 "/></g></g></g><g fill="#000000" fill-opacity="1"><g transform="translate(279.230262, 100.664229)"><g><path d="M 5.765625 -3.28125 L 5.765625 -0.359375 C 5.515625 -0.234375 5.1875 -0.128906 4.78125 -0.046875 C 4.382812 0.0351562 3.984375 0.078125 3.578125 0.078125 C 2.941406 0.078125 2.394531 -0.0507812 1.9375 -0.3125 C 1.488281 -0.570312 1.144531 -0.941406 0.90625 -1.421875 C 0.664062 -1.910156 0.546875 -2.488281 0.546875 -3.15625 C 0.546875 -3.820312 0.664062 -4.394531 0.90625 -4.875 C 1.144531 -5.363281 1.488281 -5.734375 1.9375 -5.984375 C 2.382812 -6.242188 2.910156 -6.375 3.515625 -6.375 C 3.960938 -6.375 4.367188 -6.304688 4.734375 -6.171875 C 5.097656 -6.046875 5.414062 -5.847656 5.6875 -5.578125 L 5.40625 -5.015625 C 5.09375 -5.273438 4.789062 -5.460938 4.5 -5.578125 C 4.207031 -5.703125 3.878906 -5.765625 3.515625 -5.765625 C 2.796875 -5.765625 2.242188 -5.539062 1.859375 -5.09375 C 1.484375 -4.644531 1.296875 -4 1.296875 -3.15625 C 1.296875 -2.300781 1.488281 -1.648438 1.875 -1.203125 C 2.269531 -0.765625 2.84375 -0.546875 3.59375 -0.546875 C 4.113281 -0.546875 4.617188 -0.625 5.109375 -0.78125 L 5.109375 -2.71875 L 3.53125 -2.71875 L 3.53125 -3.28125 Z M 5.765625 -3.28125 "/></g></g></g></svg>