<svg xmlns="http://www.w3.org/2000/svg" xmlns:xlink="http://www.w3.org/1999/xlink" width="500" zoomAndPan="magnify" viewBox="0 0 375 149.999998" height="200" preserveAspectRatio="xMidYMid meet" version="1.0"><defs><g/><clipPath id="a157142140"><path d="M 94.78125 2.253906 L 280 2.253906 L 280 87 L 94.78125 87 Z M 94.78125 2.253906 " clip-rule="nonzero"/></clipPath></defs><rect x="-37.5" width="450" fill="#ffffff" y="-15" height="179.999997" fill-opacity="1"/><rect x="-37.5" width="450" fill="#ffffff" y="-15" height="179.999997" fill-opacity="1"/><rect x="-37.5" width="450" fill="#ffffff" y="-15" height="179.999997" fill-opacity="1"/><g clip-path="url(#a157142140)"><path fill="#000000" d="M 223.695312 2.515625 C 223.882812 3.113281 223.558594 3.550781 223.371094 3.996094 C 221.386719 8.753906 218.917969 13.277344 216.660156 17.898438 C 212.859375 25.667969 208.933594 33.371094 205.710938 41.421875 C 203.800781 46.195312 201.667969 50.882812 199.714844 55.644531 C 199.5625 56.015625 199.425781 56.757812 198.972656 56.546875 C 198.417969 56.292969 198.941406 55.722656 199.101562 55.328125 C 201.535156 49.398438 203.933594 43.457031 206.4375 37.554688 C 208.980469 31.566406 212.042969 25.820312 214.890625 19.972656 C 217.613281 14.378906 220.378906 8.808594 223.128906 3.230469 C 223.25 2.984375 223.300781 2.679688 223.695312 2.515625 Z M 153.628906 3.046875 C 154.089844 4.617188 154.542969 6.195312 155.175781 7.714844 C 157.410156 13.070312 159.886719 18.347656 161.6875 23.863281 C 165.308594 34.941406 169.988281 45.613281 173.863281 56.59375 C 173.980469 56.925781 174.007812 57.601562 174.554688 57.398438 C 175.035156 57.214844 174.601562 56.730469 174.507812 56.410156 C 173.613281 53.414062 172.441406 50.511719 171.296875 47.609375 C 165.46875 32.816406 160.039062 17.871094 154.269531 3.054688 C 154.152344 2.75 154.109375 2.359375 153.628906 2.253906 C 153.472656 2.5625 153.558594 2.800781 153.628906 3.046875 Z M 219.878906 73.835938 C 224.429688 71.75 228.972656 69.636719 233.515625 67.527344 C 240.484375 64.285156 247.382812 60.886719 254.394531 57.726562 C 259.792969 55.292969 265.289062 53.070312 270.472656 50.179688 C 270.851562 49.96875 271.347656 49.878906 271.640625 49.152344 C 253.5 57.25 235.859375 65.886719 218.054688 74.1875 C 218.753906 74.394531 219.324219 74.089844 219.878906 73.835938 Z M 223.699219 86.714844 C 229.941406 86.519531 236.183594 86.914062 242.429688 86.6875 C 246.902344 86.527344 251.378906 86.824219 255.855469 86.90625 C 261.441406 87.003906 267.015625 86.679688 272.589844 86.46875 C 274.859375 86.382812 277.128906 86.316406 279.398438 86.234375 C 279.644531 86.226562 280.003906 86.226562 279.992188 85.917969 C 279.980469 85.546875 279.601562 85.695312 279.386719 85.703125 C 278.09375 85.746094 276.800781 85.8125 275.507812 85.863281 C 264.574219 86.289062 253.628906 85.921875 242.691406 86.273438 C 235.914062 86.492188 229.132812 85.839844 222.351562 86.15625 C 221.964844 86.171875 221.539062 86.054688 221.15625 86.484375 C 222.03125 86.757812 222.871094 86.738281 223.699219 86.714844 Z M 152.449219 85.933594 C 151.15625 85.894531 149.863281 85.882812 148.574219 85.847656 C 143.210938 85.71875 137.867188 86.332031 132.507812 86.257812 C 127.558594 86.1875 122.613281 85.992188 117.667969 85.921875 C 110.324219 85.820312 102.980469 85.972656 95.636719 86.074219 C 95.339844 86.082031 94.871094 85.964844 94.855469 86.378906 C 94.835938 86.871094 95.324219 86.667969 95.589844 86.667969 C 99.121094 86.691406 102.652344 86.734375 106.183594 86.699219 C 118.886719 86.578125 131.589844 86.769531 144.289062 86.480469 C 146.90625 86.417969 149.523438 86.472656 152.140625 86.457031 C 152.527344 86.453125 152.96875 86.578125 153.296875 86.210938 C 153.085938 85.871094 152.742188 85.941406 152.449219 85.933594 Z M 105.171875 49.644531 C 111.453125 52.585938 117.738281 55.507812 123.769531 58.964844 C 132.011719 63.683594 140.789062 67.367188 149.140625 71.890625 C 151.324219 73.074219 153.640625 74.023438 155.902344 75.0625 C 156.085938 75.148438 156.371094 75.457031 156.523438 75.070312 C 156.628906 74.808594 156.3125 74.726562 156.128906 74.628906 C 155.515625 74.300781 154.90625 73.96875 154.285156 73.660156 C 149.027344 71.0625 143.734375 68.53125 138.511719 65.859375 C 127.285156 60.113281 116.042969 54.390625 104.742188 48.789062 C 104.476562 48.65625 104.222656 48.394531 103.765625 48.640625 C 104.128906 49.214844 104.675781 49.410156 105.171875 49.644531 Z M 187.648438 14.242188 C 187.59375 18.382812 187.519531 22.523438 187.484375 26.664062 C 187.40625 35.832031 187.28125 45 187.4375 54.167969 C 187.445312 54.570312 187.292969 55.242188 187.886719 55.222656 C 188.417969 55.207031 188.183594 54.558594 188.195312 54.1875 C 188.4375 47.457031 187.917969 40.730469 188.132812 33.992188 C 188.339844 27.640625 188.1875 21.28125 188.183594 14.925781 C 188.183594 14.535156 188.300781 14.101562 187.914062 13.722656 C 187.660156 13.867188 187.652344 14.050781 187.648438 14.242188 Z M 240.054688 34.675781 C 239.835938 34.785156 239.636719 34.945312 239.457031 35.117188 C 236.96875 37.488281 234.507812 39.894531 231.996094 42.242188 C 229.070312 44.976562 226.058594 47.625 223.15625 50.382812 C 219.039062 54.292969 215.050781 58.339844 211.136719 62.453125 C 210.878906 62.726562 210.628906 63.015625 210.394531 63.308594 C 210.273438 63.457031 210.183594 63.660156 210.339844 63.824219 C 210.542969 64.03125 210.746094 63.898438 210.910156 63.734375 C 211.355469 63.289062 211.789062 62.832031 212.238281 62.386719 C 214.609375 60.03125 217.097656 57.777344 219.328125 55.292969 C 222.519531 51.734375 225.917969 48.414062 229.546875 45.320312 C 233.078125 42.304688 236.332031 38.996094 239.664062 35.769531 C 239.929688 35.507812 240.160156 35.207031 240.375 34.964844 C 240.359375 34.679688 240.203125 34.601562 240.054688 34.675781 Z M 135.855469 33.796875 C 136.023438 34.296875 136.429688 34.621094 136.785156 34.96875 C 144.4375 42.539062 151.679688 50.511719 159.328125 58.085938 C 161.035156 59.773438 162.652344 61.546875 164.261719 63.324219 C 164.4375 63.523438 164.671875 63.832031 164.964844 63.566406 C 165.261719 63.292969 164.976562 63.050781 164.792969 62.847656 C 164.113281 62.097656 163.4375 61.347656 162.742188 60.613281 C 158.210938 55.863281 153.457031 51.328125 148.875 46.628906 C 145.261719 42.921875 141.859375 39.011719 138.078125 35.46875 C 137.40625 34.839844 136.722656 34.21875 136.042969 33.589844 C 135.980469 33.660156 135.917969 33.730469 135.855469 33.796875 Z M 169.75 59.714844 C 169.671875 58.980469 169.214844 58.40625 168.832031 57.8125 C 165.707031 52.988281 162.632812 48.132812 159.347656 43.417969 C 158.660156 42.433594 157.988281 41.441406 157.296875 40.460938 C 157.175781 40.292969 157.003906 40.058594 156.757812 40.246094 C 156.5625 40.398438 156.734375 40.59375 156.8125 40.753906 C 156.882812 40.894531 156.976562 41.023438 157.0625 41.15625 C 160.5 46.222656 164.117188 51.171875 167.164062 56.5 C 167.839844 57.683594 168.71875 58.75 169.503906 59.871094 C 169.585938 59.816406 169.667969 59.765625 169.75 59.714844 Z M 181.761719 55.261719 C 181.757812 54.269531 181.375 53.351562 181.191406 52.394531 C 179.988281 46.042969 178.800781 39.6875 177.59375 33.335938 C 177.511719 32.898438 177.523438 32.089844 177.070312 32.183594 C 176.507812 32.300781 176.824219 33.035156 176.917969 33.492188 C 178.121094 39.296875 179.558594 45.054688 180.28125 50.953125 C 180.480469 52.570312 180.949219 54.136719 181.4375 55.738281 C 181.789062 55.582031 181.761719 55.410156 181.761719 55.261719 Z M 159.839844 67.363281 C 158.890625 66.480469 157.804688 65.773438 156.742188 65.035156 C 153.21875 62.59375 149.6875 60.15625 146.308594 57.507812 C 145.242188 56.671875 144.113281 55.917969 142.996094 55.144531 C 142.78125 54.996094 142.449219 54.789062 142.261719 55.128906 C 142.109375 55.402344 142.433594 55.570312 142.625 55.710938 C 143.261719 56.175781 143.90625 56.632812 144.5625 57.074219 C 145.683594 57.832031 146.835938 58.546875 147.941406 59.335938 C 151.792969 62.082031 155.417969 65.140625 159.363281 67.753906 C 159.679688 67.964844 159.929688 68.386719 160.449219 68.179688 C 160.390625 67.789062 160.085938 67.59375 159.839844 67.363281 Z M 154.207031 80.070312 C 154.070312 80 153.941406 79.890625 153.796875 79.863281 C 150.847656 79.363281 148.011719 78.390625 145.078125 77.824219 C 141.554688 77.144531 138.171875 75.914062 134.664062 75.175781 C 134.039062 75.046875 133.382812 74.730469 132.664062 75.0625 C 132.996094 75.53125 133.453125 75.558594 133.867188 75.667969 C 136.667969 76.382812 139.484375 77.027344 142.308594 77.648438 C 145.1875 78.285156 148.015625 79.175781 150.878906 79.894531 C 151.949219 80.164062 153.046875 80.398438 154.164062 80.304688 C 154.175781 80.226562 154.191406 80.148438 154.207031 80.070312 Z M 215.855469 68.828125 C 216.730469 68.207031 217.582031 67.558594 218.453125 66.933594 C 222.617188 63.9375 226.792969 60.949219 230.953125 57.945312 C 231.4375 57.597656 231.871094 57.175781 232.3125 56.773438 C 232.460938 56.636719 232.71875 56.46875 232.492188 56.234375 C 232.332031 56.0625 232.136719 56.238281 231.992188 56.339844 C 231.265625 56.839844 230.550781 57.359375 229.824219 57.859375 C 227.359375 59.558594 225.226562 61.699219 222.675781 63.285156 C 220.292969 64.769531 218.011719 66.394531 215.804688 68.128906 C 215.464844 68.394531 215.054688 68.613281 214.945312 69.140625 C 215.398438 69.285156 215.617188 69 215.855469 68.828125 Z M 206.945312 57.773438 C 209.296875 53.960938 211.664062 50.164062 214.335938 46.5625 C 215.351562 45.191406 216.253906 43.75 217.097656 42.265625 C 217.246094 42 217.515625 41.609375 217.210938 41.417969 C 216.871094 41.203125 216.695312 41.660156 216.542969 41.910156 C 213.296875 47.320312 209.609375 52.441406 206.222656 57.757812 C 205.8125 58.402344 205.308594 59.011719 205.175781 59.816406 C 206.015625 59.328125 206.476562 58.539062 206.945312 57.773438 Z M 193.78125 55.429688 C 193.867188 55.101562 193.972656 54.777344 194.039062 54.445312 C 195.261719 48.132812 196.363281 41.796875 197.832031 35.535156 C 197.984375 34.890625 198.078125 34.234375 198.175781 33.578125 C 198.210938 33.332031 198.230469 33.003906 197.90625 32.964844 C 197.582031 32.925781 197.558594 33.269531 197.480469 33.5 C 197.441406 33.617188 197.445312 33.75 197.425781 33.875 C 196.5625 39.675781 195.265625 45.394531 194.121094 51.144531 C 193.84375 52.539062 193.566406 53.960938 193.535156 55.394531 C 193.617188 55.40625 193.699219 55.417969 193.78125 55.429688 Z M 241.171875 75.800781 C 234.308594 77.242188 227.4375 78.660156 220.671875 80.542969 C 222.082031 80.757812 240.738281 76.417969 241.171875 75.800781 Z M 130.289062 74.613281 C 130.378906 74.625 130.535156 74.523438 130.574219 74.4375 C 130.65625 74.25 130.5 74.144531 130.347656 74.101562 C 129.257812 73.796875 128.1875 73.367188 127.003906 73.503906 C 128.023438 74.113281 129.117188 74.484375 130.289062 74.613281 Z M 153.703125 35.679688 C 153.625 35.65625 153.46875 35.667969 153.457031 35.703125 C 153.425781 35.808594 153.394531 35.957031 153.441406 36.046875 C 153.875 36.859375 154.402344 37.601562 155.003906 38.296875 C 155.113281 38.425781 155.265625 38.492188 155.421875 38.410156 C 155.484375 38.378906 155.507812 38.261719 155.523438 38.226562 C 155.527344 37.855469 154.007812 35.757812 153.703125 35.679688 Z M 234.535156 54.332031 C 234.386719 54.453125 234.289062 54.65625 234.410156 54.832031 C 234.546875 55.035156 234.753906 54.921875 234.910156 54.828125 C 235.707031 54.335938 236.421875 53.746094 236.925781 52.914062 C 236.007812 53.210938 235.261719 53.757812 234.535156 54.332031 Z M 176.375 29.554688 C 176.417969 29.726562 176.476562 29.945312 176.722656 29.914062 C 176.90625 29.890625 176.980469 29.730469 176.945312 29.5625 C 176.710938 28.550781 176.671875 27.476562 175.960938 26.609375 C 175.875 27.628906 176.144531 28.589844 176.375 29.554688 Z M 199.109375 27.84375 C 199.125 27.75 199.03125 27.585938 198.945312 27.546875 C 198.753906 27.457031 198.65625 27.628906 198.621094 27.773438 C 198.394531 28.695312 198.054688 29.609375 198.386719 30.597656 C 199.007812 29.769531 198.976562 28.785156 199.109375 27.84375 Z M 220.464844 36.546875 C 219.75 37.476562 218.808594 38.253906 218.578125 39.503906 C 219.378906 38.628906 220.210938 37.769531 220.464844 36.546875 Z M 136.820312 51.515625 C 137.46875 52.433594 138.394531 52.960938 139.4375 53.339844 C 138.757812 52.464844 137.945312 51.761719 136.820312 51.515625 Z M 243.535156 75.363281 C 244.566406 75.1875 245.664062 75.246094 246.496094 74.445312 C 245.460938 74.605469 244.347656 74.519531 243.535156 75.363281 Z M 243.535156 75.363281 " fill-opacity="1" fill-rule="nonzero"/><path fill="#000000" d="M 223.695312 2.515625 C 223.882812 3.113281 223.558594 3.550781 223.371094 3.996094 C 221.386719 8.753906 218.917969 13.277344 216.660156 17.898438 C 212.859375 25.667969 208.933594 33.371094 205.710938 41.421875 C 203.800781 46.195312 201.667969 50.882812 199.714844 55.644531 C 199.5625 56.015625 199.425781 56.757812 198.972656 56.546875 C 198.417969 56.292969 198.941406 55.722656 199.101562 55.328125 C 201.535156 49.398438 203.933594 43.457031 206.4375 37.554688 C 208.980469 31.566406 212.042969 25.820312 214.890625 19.972656 C 217.613281 14.378906 220.378906 8.808594 223.128906 3.230469 C 223.25 2.984375 223.300781 2.679688 223.695312 2.515625 Z M 153.628906 3.046875 C 154.089844 4.617188 154.542969 6.195312 155.175781 7.714844 C 157.410156 13.070312 159.886719 18.347656 161.6875 23.863281 C 165.308594 34.941406 169.988281 45.613281 173.863281 56.59375 C 173.980469 56.925781 174.007812 57.601562 174.554688 57.398438 C 175.035156 57.214844 174.601562 56.730469 174.507812 56.410156 C 173.613281 53.414062 172.441406 50.511719 171.296875 47.609375 C 165.46875 32.816406 160.039062 17.871094 154.269531 3.054688 C 154.152344 2.75 154.109375 2.359375 153.628906 2.253906 C 153.472656 2.5625 153.558594 2.800781 153.628906 3.046875 Z M 219.878906 73.835938 C 224.429688 71.75 228.972656 69.636719 233.515625 67.527344 C 240.484375 64.285156 247.382812 60.886719 254.394531 57.726562 C 259.792969 55.292969 265.289062 53.070312 270.472656 50.179688 C 270.851562 49.96875 271.347656 49.878906 271.640625 49.152344 C 253.5 57.25 235.859375 65.886719 218.054688 74.1875 C 218.753906 74.394531 219.324219 74.089844 219.878906 73.835938 Z M 223.699219 86.714844 C 229.941406 86.519531 236.183594 86.914062 242.429688 86.6875 C 246.902344 86.527344 251.378906 86.824219 255.855469 86.90625 C 261.441406 87.003906 267.015625 86.679688 272.589844 86.46875 C 274.859375 86.382812 277.128906 86.316406 279.398438 86.234375 C 279.644531 86.226562 280.003906 86.226562 279.992188 85.917969 C 279.980469 85.546875 279.601562 85.695312 279.386719 85.703125 C 278.09375 85.746094 276.800781 85.8125 275.507812 85.863281 C 264.574219 86.289062 253.628906 85.921875 242.691406 86.273438 C 235.914062 86.492188 229.132812 85.839844 222.351562 86.15625 C 221.964844 86.171875 221.539062 86.054688 221.15625 86.484375 C 222.03125 86.757812 222.871094 86.738281 223.699219 86.714844 Z M 152.449219 85.933594 C 151.15625 85.894531 149.863281 85.882812 148.574219 85.847656 C 143.210938 85.71875 137.867188 86.332031 132.507812 86.257812 C 127.558594 86.1875 122.613281 85.992188 117.667969 85.921875 C 110.324219 85.820312 102.980469 85.972656 95.636719 86.074219 C 95.339844 86.082031 94.871094 85.964844 94.855469 86.378906 C 94.835938 86.871094 95.324219 86.667969 95.589844 86.667969 C 99.121094 86.691406 102.652344 86.734375 106.183594 86.699219 C 118.886719 86.578125 131.589844 86.769531 144.289062 86.480469 C 146.90625 86.417969 149.523438 86.472656 152.140625 86.457031 C 152.527344 86.453125 152.96875 86.578125 153.296875 86.210938 C 153.085938 85.871094 152.742188 85.941406 152.449219 85.933594 Z M 105.171875 49.644531 C 111.453125 52.585938 117.738281 55.507812 123.769531 58.964844 C 132.011719 63.683594 140.789062 67.367188 149.140625 71.890625 C 151.324219 73.074219 153.640625 74.023438 155.902344 75.0625 C 156.085938 75.148438 156.371094 75.457031 156.523438 75.070312 C 156.628906 74.808594 156.3125 74.726562 156.128906 74.628906 C 155.515625 74.300781 154.90625 73.96875 154.285156 73.660156 C 149.027344 71.0625 143.734375 68.53125 138.511719 65.859375 C 127.285156 60.113281 116.042969 54.390625 104.742188 48.789062 C 104.476562 48.65625 104.222656 48.394531 103.765625 48.640625 C 104.128906 49.214844 104.675781 49.410156 105.171875 49.644531 Z M 187.648438 14.242188 C 187.59375 18.382812 187.519531 22.523438 187.484375 26.664062 C 187.40625 35.832031 187.28125 45 187.4375 54.167969 C 187.445312 54.570312 187.292969 55.242188 187.886719 55.222656 C 188.417969 55.207031 188.183594 54.558594 188.195312 54.1875 C 188.4375 47.457031 187.917969 40.730469 188.132812 33.992188 C 188.339844 27.640625 188.1875 21.28125 188.183594 14.925781 C 188.183594 14.535156 188.300781 14.101562 187.914062 13.722656 C 187.660156 13.867188 187.652344 14.050781 187.648438 14.242188 Z M 240.054688 34.675781 C 239.835938 34.785156 239.636719 34.945312 239.457031 35.117188 C 236.96875 37.488281 234.507812 39.894531 231.996094 42.242188 C 229.070312 44.976562 226.058594 47.625 223.15625 50.382812 C 219.039062 54.292969 215.050781 58.339844 211.136719 62.453125 C 210.878906 62.726562 210.628906 63.015625 210.394531 63.308594 C 210.273438 63.457031 210.183594 63.660156 210.339844 63.824219 C 210.542969 64.03125 210.746094 63.898438 210.910156 63.734375 C 211.355469 63.289062 211.789062 62.832031 212.238281 62.386719 C 214.609375 60.03125 217.097656 57.777344 219.328125 55.292969 C 222.519531 51.734375 225.917969 48.414062 229.546875 45.320312 C 233.078125 42.304688 236.332031 38.996094 239.664062 35.769531 C 239.929688 35.507812 240.160156 35.207031 240.375 34.964844 C 240.359375 34.679688 240.203125 34.601562 240.054688 34.675781 Z M 135.855469 33.796875 C 136.023438 34.296875 136.429688 34.621094 136.785156 34.96875 C 144.4375 42.539062 151.679688 50.511719 159.328125 58.085938 C 161.035156 59.773438 162.652344 61.546875 164.261719 63.324219 C 164.4375 63.523438 164.671875 63.832031 164.964844 63.566406 C 165.261719 63.292969 164.976562 63.050781 164.792969 62.847656 C 164.113281 62.097656 163.4375 61.347656 162.742188 60.613281 C 158.210938 55.863281 153.457031 51.328125 148.875 46.628906 C 145.261719 42.921875 141.859375 39.011719 138.078125 35.46875 C 137.40625 34.839844 136.722656 34.21875 136.042969 33.589844 C 135.980469 33.660156 135.917969 33.730469 135.855469 33.796875 Z M 169.75 59.714844 C 169.671875 58.980469 169.214844 58.40625 168.832031 57.8125 C 165.707031 52.988281 162.632812 48.132812 159.347656 43.417969 C 158.660156 42.433594 157.988281 41.441406 157.296875 40.460938 C 157.175781 40.292969 157.003906 40.058594 156.757812 40.246094 C 156.5625 40.398438 156.734375 40.59375 156.8125 40.753906 C 156.882812 40.894531 156.976562 41.023438 157.0625 41.15625 C 160.5 46.222656 164.117188 51.171875 167.164062 56.5 C 167.839844 57.683594 168.71875 58.75 169.503906 59.871094 C 169.585938 59.816406 169.667969 59.765625 169.75 59.714844 Z M 181.761719 55.261719 C 181.757812 54.269531 181.375 53.351562 181.191406 52.394531 C 179.988281 46.042969 178.800781 39.6875 177.59375 33.335938 C 177.511719 32.898438 177.523438 32.089844 177.070312 32.183594 C 176.507812 32.300781 176.824219 33.035156 176.917969 33.492188 C 178.121094 39.296875 179.558594 45.054688 180.28125 50.953125 C 180.480469 52.570312 180.949219 54.136719 181.4375 55.738281 C 181.789062 55.582031 181.761719 55.410156 181.761719 55.261719 Z M 159.839844 67.363281 C 158.890625 66.480469 157.804688 65.773438 156.742188 65.035156 C 153.21875 62.59375 149.6875 60.15625 146.308594 57.507812 C 145.242188 56.671875 144.113281 55.917969 142.996094 55.144531 C 142.78125 54.996094 142.449219 54.789062 142.261719 55.128906 C 142.109375 55.402344 142.433594 55.570312 142.625 55.710938 C 143.261719 56.175781 143.90625 56.632812 144.5625 57.074219 C 145.683594 57.832031 146.835938 58.546875 147.941406 59.335938 C 151.792969 62.082031 155.417969 65.140625 159.363281 67.753906 C 159.679688 67.964844 159.929688 68.386719 160.449219 68.179688 C 160.390625 67.789062 160.085938 67.59375 159.839844 67.363281 Z M 154.207031 80.070312 C 154.070312 80 153.941406 79.890625 153.796875 79.863281 C 150.847656 79.363281 148.011719 78.390625 145.078125 77.824219 C 141.554688 77.144531 138.171875 75.914062 134.664062 75.175781 C 134.039062 75.046875 133.382812 74.730469 132.664062 75.0625 C 132.996094 75.53125 133.453125 75.558594 133.867188 75.667969 C 136.667969 76.382812 139.484375 77.027344 142.308594 77.648438 C 145.1875 78.285156 148.015625 79.175781 150.878906 79.894531 C 151.949219 80.164062 153.046875 80.398438 154.164062 80.304688 C 154.175781 80.226562 154.191406 80.148438 154.207031 80.070312 Z M 215.855469 68.828125 C 216.730469 68.207031 217.582031 67.558594 218.453125 66.933594 C 222.617188 63.9375 226.792969 60.949219 230.953125 57.945312 C 231.4375 57.597656 231.871094 57.175781 232.3125 56.773438 C 232.460938 56.636719 232.71875 56.46875 232.492188 56.234375 C 232.332031 56.0625 232.136719 56.238281 231.992188 56.339844 C 231.265625 56.839844 230.550781 57.359375 229.824219 57.859375 C 227.359375 59.558594 225.226562 61.699219 222.675781 63.285156 C 220.292969 64.769531 218.011719 66.394531 215.804688 68.128906 C 215.464844 68.394531 215.054688 68.613281 214.945312 69.140625 C 215.398438 69.285156 215.617188 69 215.855469 68.828125 Z M 206.945312 57.773438 C 209.296875 53.960938 211.664062 50.164062 214.335938 46.5625 C 215.351562 45.191406 216.253906 43.75 217.097656 42.265625 C 217.246094 42 217.515625 41.609375 217.210938 41.417969 C 216.871094 41.203125 216.695312 41.660156 216.542969 41.910156 C 213.296875 47.320312 209.609375 52.441406 206.222656 57.757812 C 205.8125 58.402344 205.308594 59.011719 205.175781 59.816406 C 206.015625 59.328125 206.476562 58.539062 206.945312 57.773438 Z M 193.78125 55.429688 C 193.867188 55.101562 193.972656 54.777344 194.039062 54.445312 C 195.261719 48.132812 196.363281 41.796875 197.832031 35.535156 C 197.984375 34.890625 198.078125 34.234375 198.175781 33.578125 C 198.210938 33.332031 198.230469 33.003906 197.90625 32.964844 C 197.582031 32.925781 197.558594 33.269531 197.480469 33.5 C 197.441406 33.617188 197.445312 33.75 197.425781 33.875 C 196.5625 39.675781 195.265625 45.394531 194.121094 51.144531 C 193.84375 52.539062 193.566406 53.960938 193.535156 55.394531 C 193.617188 55.40625 193.699219 55.417969 193.78125 55.429688 Z M 241.171875 75.800781 C 234.308594 77.242188 227.4375 78.660156 220.671875 80.542969 C 222.082031 80.757812 240.738281 76.417969 241.171875 75.800781 Z M 130.289062 74.613281 C 130.378906 74.625 130.535156 74.523438 130.574219 74.4375 C 130.65625 74.25 130.5 74.144531 130.347656 74.101562 C 129.257812 73.796875 128.1875 73.367188 127.003906 73.503906 C 128.023438 74.113281 129.117188 74.484375 130.289062 74.613281 Z M 153.703125 35.679688 C 153.625 35.65625 153.46875 35.667969 153.457031 35.703125 C 153.425781 35.808594 153.394531 35.957031 153.441406 36.046875 C 153.875 36.859375 154.402344 37.601562 155.003906 38.296875 C 155.113281 38.425781 155.265625 38.492188 155.421875 38.410156 C 155.484375 38.378906 155.507812 38.261719 155.523438 38.226562 C 155.527344 37.855469 154.007812 35.757812 153.703125 35.679688 Z M 234.535156 54.332031 C 234.386719 54.453125 234.289062 54.65625 234.410156 54.832031 C 234.546875 55.035156 234.753906 54.921875 234.910156 54.828125 C 235.707031 54.335938 236.421875 53.746094 236.925781 52.914062 C 236.007812 53.210938 235.261719 53.757812 234.535156 54.332031 Z M 176.375 29.554688 C 176.417969 29.726562 176.476562 29.945312 176.722656 29.914062 C 176.90625 29.890625 176.980469 29.730469 176.945312 29.5625 C 176.710938 28.550781 176.671875 27.476562 175.960938 26.609375 C 175.875 27.628906 176.144531 28.589844 176.375 29.554688 Z M 199.109375 27.84375 C 199.125 27.75 199.03125 27.585938 198.945312 27.546875 C 198.753906 27.457031 198.65625 27.628906 198.621094 27.773438 C 198.394531 28.695312 198.054688 29.609375 198.386719 30.597656 C 199.007812 29.769531 198.976562 28.785156 199.109375 27.84375 Z M 220.464844 36.546875 C 219.75 37.476562 218.808594 38.253906 218.578125 39.503906 C 219.378906 38.628906 220.210938 37.769531 220.464844 36.546875 Z M 136.820312 51.515625 C 137.46875 52.433594 138.394531 52.960938 139.4375 53.339844 C 138.757812 52.464844 137.945312 51.761719 136.820312 51.515625 Z M 243.535156 75.363281 C 244.566406 75.1875 245.664062 75.246094 246.496094 74.445312 C 245.460938 74.605469 244.347656 74.519531 243.535156 75.363281 Z M 243.535156 75.363281 " fill-opacity="1" fill-rule="nonzero"/></g><g fill="#000000" fill-opacity="1"><g transform="translate(58.049326, 118.199692)"><g><path d="M 0.542969 0 L 13.671875 0 C 13.257812 -1.882812 13.058594 -3.367188 12.929688 -5.542969 C 11.898438 -2.136719 8.855469 -0.542969 5.558594 -0.542969 C 5.089844 -2.898438 4.851562 -5.46875 4.851562 -7.515625 C 4.851562 -7.679688 4.960938 -7.785156 5.144531 -7.785156 L 6.484375 -7.785156 C 8.113281 -7.785156 9.363281 -7.261719 10.757812 -5.269531 C 10.59375 -7.460938 10.59375 -8.675781 10.757812 -10.847656 C 9.328125 -8.820312 8.132812 -8.332031 6.484375 -8.332031 L 5.144531 -8.332031 C 4.980469 -8.332031 4.871094 -8.457031 4.871094 -8.621094 C 4.925781 -11.445312 5.160156 -13.601562 5.558594 -15.574219 C 8.875 -15.574219 11.898438 -14 12.929688 -10.574219 C 13.058594 -12.75 13.257812 -14.234375 13.671875 -16.117188 L 0.542969 -16.117188 C 1.648438 -11.171875 1.648438 -4.945312 0.542969 0 Z M 0.542969 0 "/></g></g></g><g fill="#000000" fill-opacity="1"><g transform="translate(72.825745, 118.199692)"><g><path d="M 0.542969 0 L 4.253906 0 C 2.5 -2.988281 1.828125 -5.867188 1.9375 -9.273438 C 1.972656 -10.449219 2.046875 -11.625 2.171875 -12.765625 C 5.757812 -7.714844 8.039062 -1.882812 8.566406 0 L 13.890625 -12.785156 C 14.378906 -8.566406 14.199219 -3.875 13.328125 0 L 18.453125 0 C 17.367188 -4.945312 17.367188 -11.171875 18.453125 -16.117188 L 14.703125 -16.117188 L 10.703125 -6.375 C 8.53125 -9.234375 6.5 -12.949219 5.667969 -16.117188 L 0.542969 -16.117188 C 1.648438 -11.171875 1.648438 -4.945312 0.542969 0 Z M 0.542969 0 "/></g></g></g><g fill="#000000" fill-opacity="1"><g transform="translate(92.564095, 118.199692)"><g><path d="M 0.542969 0 L 5.667969 0 C 5.289062 -1.757812 5.035156 -3.65625 4.925781 -5.613281 L 7.007812 -5.613281 C 16.535156 -5.632812 17.039062 -16.097656 7.007812 -16.117188 L 0.5625 -16.117188 C 1.648438 -11.171875 1.648438 -4.945312 0.542969 0 Z M 4.871094 -9.019531 C 4.871094 -10.957031 4.960938 -15.519531 7.570312 -15.519531 C 8.964844 -15.519531 9.761719 -14.488281 10.175781 -13.238281 C 11.425781 -9.578125 9.035156 -6.265625 6.644531 -6.265625 L 4.890625 -6.265625 C 4.851562 -7.496094 4.871094 -7.949219 4.871094 -9.019531 Z M 4.871094 -9.019531 "/></g></g></g><g fill="#000000" fill-opacity="1"><g transform="translate(107.66648, 118.199692)"><g><path d="M 8.421875 0.363281 C 13.074219 0.363281 16.296875 -3.40625 16.296875 -8.058594 C 16.296875 -12.710938 13.074219 -16.480469 8.421875 -16.480469 C 3.765625 -16.480469 0.542969 -12.710938 0.542969 -8.058594 C 0.542969 -3.40625 3.765625 0.363281 8.421875 0.363281 Z M 5 -8.332031 C 5.957031 -13.472656 7.894531 -15.792969 9.472656 -15.792969 C 11.265625 -15.792969 12.621094 -12.859375 11.664062 -7.660156 C 10.992188 -3.929688 9.144531 -0.324219 6.609375 -0.324219 C 4.5625 -0.324219 4.253906 -4.382812 5 -8.332031 Z M 5 -8.332031 "/></g></g></g><g fill="#000000" fill-opacity="1"><g transform="translate(125.249831, 118.199692)"><g><path d="M 4.835938 0.363281 L 8.332031 0 L 10.917969 -9.433594 C 10.972656 -9.652344 11.027344 -9.851562 11.101562 -10.070312 C 12.460938 -6.5 13.980469 -1.628906 13.980469 0.363281 L 17.421875 0 L 19.230469 -6.609375 C 20.753906 -12.152344 21.675781 -14.089844 23.199219 -16.117188 L 17.800781 -16.117188 C 20.136719 -14.269531 20.15625 -11.878906 18.6875 -6.5 L 17.53125 -2.261719 C 16.839844 -3.675781 13.671875 -11.863281 14.941406 -16.117188 L 8.292969 -16.117188 C 9.199219 -14.921875 9.671875 -13.761719 10.105469 -12.621094 C 10.484375 -11.589844 10.59375 -10.304688 10.339844 -9.398438 C 10.324219 -9.34375 10.324219 -9.308594 10.304688 -9.253906 L 8.382812 -2.261719 C 8.382812 -3.820312 4.761719 -12.640625 5.796875 -16.117188 L -0.652344 -16.117188 C 1.304688 -12.820312 4.835938 -5.324219 4.835938 0.363281 Z M 4.835938 0.363281 "/></g></g></g><g fill="#000000" fill-opacity="1"><g transform="translate(148.519488, 118.199692)"><g><path d="M 0.542969 0 L 13.671875 0 C 13.257812 -1.882812 13.058594 -3.367188 12.929688 -5.542969 C 11.898438 -2.136719 8.855469 -0.542969 5.558594 -0.542969 C 5.089844 -2.898438 4.851562 -5.46875 4.851562 -7.515625 C 4.851562 -7.679688 4.960938 -7.785156 5.144531 -7.785156 L 6.484375 -7.785156 C 8.113281 -7.785156 9.363281 -7.261719 10.757812 -5.269531 C 10.59375 -7.460938 10.59375 -8.675781 10.757812 -10.847656 C 9.328125 -8.820312 8.132812 -8.332031 6.484375 -8.332031 L 5.144531 -8.332031 C 4.980469 -8.332031 4.871094 -8.457031 4.871094 -8.621094 C 4.925781 -11.445312 5.160156 -13.601562 5.558594 -15.574219 C 8.875 -15.574219 11.898438 -14 12.929688 -10.574219 C 13.058594 -12.75 13.257812 -14.234375 13.671875 -16.117188 L 0.542969 -16.117188 C 1.648438 -11.171875 1.648438 -4.945312 0.542969 0 Z M 0.542969 0 "/></g></g></g><g fill="#000000" fill-opacity="1"><g transform="translate(163.295909, 118.199692)"><g><path d="M 5.667969 0 C 5.289062 -1.757812 4.890625 -4.546875 4.871094 -7.082031 L 6.644531 -7.082031 C 8.167969 -4.453125 8.746094 -1.667969 8.601562 0 L 14.976562 0 C 13.507812 -1.414062 11.425781 -4.78125 10.050781 -7.441406 C 16.695312 -9.089844 15.882812 -16.097656 7.007812 -16.117188 L 0.5625 -16.117188 C 1.648438 -11.171875 1.648438 -4.945312 0.542969 0 Z M 4.851562 -7.734375 C 4.851562 -11.535156 5.398438 -15.5 7.660156 -15.5 C 9.289062 -15.5 10.105469 -13.855469 10.394531 -12.476562 C 10.9375 -9.796875 9.527344 -7.734375 6.589844 -7.734375 Z M 4.851562 -7.734375 "/></g></g></g><g fill="#000000" fill-opacity="1"><g transform="translate(178.905356, 118.199692)"><g><path d="M 0.542969 0 L 13.671875 0 C 13.257812 -1.882812 13.058594 -3.367188 12.929688 -5.542969 C 11.898438 -2.136719 8.855469 -0.542969 5.558594 -0.542969 C 5.089844 -2.898438 4.851562 -5.46875 4.851562 -7.515625 C 4.851562 -7.679688 4.960938 -7.785156 5.144531 -7.785156 L 6.484375 -7.785156 C 8.113281 -7.785156 9.363281 -7.261719 10.757812 -5.269531 C 10.59375 -7.460938 10.59375 -8.675781 10.757812 -10.847656 C 9.328125 -8.820312 8.132812 -8.332031 6.484375 -8.332031 L 5.144531 -8.332031 C 4.980469 -8.332031 4.871094 -8.457031 4.871094 -8.621094 C 4.925781 -11.445312 5.160156 -13.601562 5.558594 -15.574219 C 8.875 -15.574219 11.898438 -14 12.929688 -10.574219 C 13.058594 -12.75 13.257812 -14.234375 13.671875 -16.117188 L 0.542969 -16.117188 C 1.648438 -11.171875 1.648438 -4.945312 0.542969 0 Z M 0.542969 0 "/></g></g></g><g fill="#000000" fill-opacity="1"><g transform="translate(193.681777, 118.199692)"><g><path d="M 8.003906 0 C 17.820312 0.0195312 17.945312 -16.097656 8.132812 -16.117188 L 0.542969 -16.117188 C 1.648438 -11.171875 1.648438 -4.945312 0.542969 0 Z M 4.851562 -3.40625 L 4.851562 -8.476562 C 4.851562 -12.277344 6.429688 -15.5 8.746094 -15.5 C 8.945312 -15.5 9.144531 -15.484375 9.34375 -15.429688 C 10.917969 -15.066406 12.152344 -12.621094 11.609375 -8.003906 C 11.066406 -3.40625 8.4375 -0.597656 6.628906 -0.597656 C 5.613281 -0.597656 4.851562 -1.46875 4.851562 -3.40625 Z M 4.851562 -3.40625 "/></g></g></g><g fill="#000000" fill-opacity="1"><g transform="translate(210.395888, 118.199692)"><g/></g></g><g fill="#000000" fill-opacity="1"><g transform="translate(215.846049, 118.199692)"><g><path d="M 0.542969 0 L 5.667969 0 C 5.144531 -2.390625 4.871094 -5.089844 4.851562 -7.804688 L 11.066406 -7.804688 C 11.046875 -5.089844 10.773438 -2.390625 10.230469 0 L 15.355469 0 C 14.269531 -4.945312 14.269531 -11.171875 15.355469 -16.117188 L 10.230469 -16.117188 C 10.757812 -13.726562 11.046875 -11.046875 11.066406 -8.347656 L 4.851562 -8.347656 C 4.871094 -11.046875 5.144531 -13.726562 5.667969 -16.117188 L 0.542969 -16.117188 C 1.648438 -11.171875 1.648438 -4.945312 0.542969 0 Z M 0.542969 0 "/></g></g></g><g fill="#000000" fill-opacity="1"><g transform="translate(232.487723, 118.199692)"><g><path d="M 0.542969 0 L 13.671875 0 C 13.257812 -1.882812 13.058594 -3.367188 12.929688 -5.542969 C 11.898438 -2.136719 8.855469 -0.542969 5.558594 -0.542969 C 5.089844 -2.898438 4.851562 -5.46875 4.851562 -7.515625 C 4.851562 -7.679688 4.960938 -7.785156 5.144531 -7.785156 L 6.484375 -7.785156 C 8.113281 -7.785156 9.363281 -7.261719 10.757812 -5.269531 C 10.59375 -7.460938 10.59375 -8.675781 10.757812 -10.847656 C 9.328125 -8.820312 8.132812 -8.332031 6.484375 -8.332031 L 5.144531 -8.332031 C 4.980469 -8.332031 4.871094 -8.457031 4.871094 -8.621094 C 4.925781 -11.445312 5.160156 -13.601562 5.558594 -15.574219 C 8.875 -15.574219 11.898438 -14 12.929688 -10.574219 C 13.058594 -12.75 13.257812 -14.234375 13.671875 -16.117188 L 0.542969 -16.117188 C 1.648438 -11.171875 1.648438 -4.945312 0.542969 0 Z M 0.542969 0 "/></g></g></g><g fill="#000000" fill-opacity="1"><g transform="translate(247.264145, 118.199692)"><g><path d="M 0 0 L 5.34375 0 C 3.730469 -1.285156 3.257812 -2.859375 3.785156 -5.398438 L 10.015625 -5.398438 C 10.539062 -3.296875 10.757812 -1.285156 10.375 0 L 16.839844 0 C 13.238281 -5.957031 10.429688 -15.394531 10.429688 -16.480469 L 7.261719 -16.117188 L 4.507812 -9.308594 C 2.410156 -4.074219 1.46875 -1.917969 0 0 Z M 3.910156 -5.957031 C 4.164062 -6.972656 4.582031 -8.132812 5.125 -9.488281 L 6.628906 -13.238281 C 7.769531 -11.789062 9.074219 -8.835938 9.871094 -5.957031 Z M 3.910156 -5.957031 "/></g></g></g><g fill="#000000" fill-opacity="1"><g transform="translate(264.34044, 118.199692)"><g><path d="M 0.542969 -16.117188 C 1.648438 -11.171875 1.648438 -4.945312 0.542969 0 L 12.566406 0 C 12.152344 -2.28125 11.988281 -3.058594 11.808594 -5.542969 C 10.957031 -2.734375 7.804688 -0.542969 5.976562 -0.542969 L 5.558594 -0.542969 C 4.5625 -5.488281 4.601562 -11.28125 5.667969 -16.117188 Z M 0.542969 -16.117188 "/></g></g></g><g fill="#000000" fill-opacity="1"><g transform="translate(277.541358, 118.199692)"><g><path d="M 5.667969 0 C 4.582031 -4.945312 4.582031 -11.171875 5.667969 -16.117188 L 0.542969 -16.117188 C 1.648438 -11.171875 1.648438 -4.945312 0.542969 0 Z M 5.667969 0 "/></g></g></g><g fill="#000000" fill-opacity="1"><g transform="translate(284.494586, 118.199692)"><g><path d="M 4.253906 0 C 3.042969 -2.082031 1.9375 -5.050781 1.917969 -7.75 C 1.902344 -9.488281 1.992188 -11.226562 2.191406 -12.894531 C 6.140625 -8.222656 11.410156 -1.882812 11.933594 0 L 15.355469 0 C 14.253906 -4.945312 14.253906 -11.171875 15.355469 -16.117188 L 11.644531 -16.117188 C 12.875 -14.144531 13.945312 -11.226562 13.980469 -8.636719 C 14 -7.734375 13.980469 -6.808594 13.925781 -5.921875 C 12.496094 -6.988281 6.5 -12.949219 5.667969 -16.117188 L 0.542969 -16.117188 C 1.648438 -11.171875 1.648438 -4.945312 0.542969 0 Z M 4.253906 0 "/></g></g></g><g fill="#000000" fill-opacity="1"><g transform="translate(301.136245, 118.199692)"><g><path d="M 8.601562 0.363281 C 10.070312 0.363281 10.703125 0.164062 11.371094 -0.0546875 L 12.261719 -0.324219 C 12.605469 -0.417969 12.984375 -0.472656 13.382812 -0.472656 C 13.890625 -0.472656 14.414062 -0.378906 14.847656 -0.21875 L 15.410156 0 C 14.304688 -1.902344 14.304688 -5.199219 15.410156 -7.082031 L 10.285156 -7.082031 C 11.316406 -5.304688 11.371094 -2.300781 10.46875 -0.363281 C 10.195312 -0.289062 9.90625 -0.253906 9.597656 -0.253906 C 7.550781 -0.253906 5.199219 -2.066406 5.199219 -7.261719 C 5.199219 -12.242188 7.894531 -15.71875 10.359375 -15.71875 C 12.007812 -15.71875 13.5625 -14.144531 14.089844 -10.375 C 14.214844 -12.40625 14.46875 -14.324219 14.847656 -16.117188 L 14.667969 -16.0625 C 14.269531 -15.972656 13.816406 -15.917969 13.347656 -15.917969 C 12.765625 -15.917969 12.167969 -15.992188 11.644531 -16.136719 C 10.558594 -16.425781 10.125 -16.480469 8.945312 -16.480469 C 3.949219 -16.460938 0.542969 -12.460938 0.542969 -7.804688 C 0.542969 -3.675781 3.820312 0.363281 8.601562 0.363281 Z M 8.601562 0.363281 "/></g></g></g><g fill="#000000" fill-opacity="1"><g transform="translate(142.378062, 143.901083)"><g><path d="M 3.875 0.078125 C 3.207031 0.078125 2.628906 -0.0664062 2.140625 -0.359375 C 1.648438 -0.648438 1.269531 -1.066406 1 -1.609375 C 0.738281 -2.148438 0.609375 -2.789062 0.609375 -3.53125 C 0.609375 -4.269531 0.738281 -4.90625 1 -5.4375 C 1.269531 -5.976562 1.648438 -6.394531 2.140625 -6.6875 C 2.628906 -6.976562 3.207031 -7.125 3.875 -7.125 C 4.363281 -7.125 4.8125 -7.046875 5.21875 -6.890625 C 5.625 -6.742188 5.972656 -6.523438 6.265625 -6.234375 L 5.96875 -5.609375 C 5.625 -5.898438 5.289062 -6.109375 4.96875 -6.234375 C 4.644531 -6.359375 4.285156 -6.421875 3.890625 -6.421875 C 3.117188 -6.421875 2.519531 -6.171875 2.09375 -5.671875 C 1.664062 -5.171875 1.453125 -4.457031 1.453125 -3.53125 C 1.453125 -2.601562 1.660156 -1.882812 2.078125 -1.375 C 2.503906 -0.875 3.109375 -0.625 3.890625 -0.625 C 4.285156 -0.625 4.644531 -0.6875 4.96875 -0.8125 C 5.289062 -0.9375 5.625 -1.144531 5.96875 -1.4375 L 6.265625 -0.8125 C 5.972656 -0.507812 5.625 -0.285156 5.21875 -0.140625 C 4.8125 0.00390625 4.363281 0.078125 3.875 0.078125 Z M 3.875 0.078125 "/></g></g></g><g fill="#000000" fill-opacity="1"><g transform="translate(152.109958, 143.901083)"><g><path d="M 3.8125 0.078125 C 3.164062 0.078125 2.597656 -0.0664062 2.109375 -0.359375 C 1.628906 -0.648438 1.257812 -1.066406 1 -1.609375 C 0.738281 -2.148438 0.609375 -2.785156 0.609375 -3.515625 C 0.609375 -4.253906 0.738281 -4.894531 1 -5.4375 C 1.257812 -5.976562 1.628906 -6.394531 2.109375 -6.6875 C 2.585938 -6.976562 3.15625 -7.125 3.8125 -7.125 C 4.476562 -7.125 5.050781 -6.976562 5.53125 -6.6875 C 6.007812 -6.394531 6.375 -5.976562 6.625 -5.4375 C 6.882812 -4.894531 7.015625 -4.257812 7.015625 -3.53125 C 7.015625 -2.789062 6.882812 -2.148438 6.625 -1.609375 C 6.363281 -1.066406 5.992188 -0.648438 5.515625 -0.359375 C 5.035156 -0.0664062 4.46875 0.078125 3.8125 0.078125 Z M 3.8125 -0.609375 C 4.5625 -0.609375 5.144531 -0.863281 5.5625 -1.375 C 5.976562 -1.882812 6.1875 -2.601562 6.1875 -3.53125 C 6.1875 -4.457031 5.976562 -5.171875 5.5625 -5.671875 C 5.144531 -6.171875 4.5625 -6.421875 3.8125 -6.421875 C 3.0625 -6.421875 2.476562 -6.171875 2.0625 -5.671875 C 1.644531 -5.171875 1.4375 -4.457031 1.4375 -3.53125 C 1.4375 -2.601562 1.644531 -1.882812 2.0625 -1.375 C 2.476562 -0.863281 3.0625 -0.609375 3.8125 -0.609375 Z M 3.8125 -0.609375 "/></g></g></g><g fill="#000000" fill-opacity="1"><g transform="translate(162.712194, 143.901083)"><g><path d="M 3.625 0.078125 C 2.695312 0.078125 2 -0.160156 1.53125 -0.640625 C 1.0625 -1.117188 0.828125 -1.828125 0.828125 -2.765625 L 0.828125 -7.046875 L 1.625 -7.046875 L 1.625 -2.6875 C 1.625 -2 1.789062 -1.476562 2.125 -1.125 C 2.457031 -0.78125 2.957031 -0.609375 3.625 -0.609375 C 4.269531 -0.609375 4.757812 -0.78125 5.09375 -1.125 C 5.425781 -1.476562 5.59375 -2 5.59375 -2.6875 L 5.59375 -7.046875 L 6.40625 -7.046875 L 6.40625 -2.765625 C 6.40625 -1.828125 6.164062 -1.117188 5.6875 -0.640625 C 5.21875 -0.160156 4.53125 0.078125 3.625 0.078125 Z M 3.625 0.078125 "/></g></g></g><g fill="#000000" fill-opacity="1"><g transform="translate(172.908934, 143.901083)"><g><path d="M 5.75 -7.046875 L 6.515625 -7.046875 L 6.515625 0 L 5.890625 0 L 1.625 -5.671875 L 1.625 0 L 0.875 0 L 0.875 -7.046875 L 1.5 -7.046875 L 5.75 -1.375 Z M 5.75 -7.046875 "/></g></g></g><g fill="#000000" fill-opacity="1"><g transform="translate(183.254016, 143.901083)"><g><path d="M 3.109375 0.078125 C 2.003906 0.078125 1.125 -0.21875 0.46875 -0.8125 L 0.78125 -1.4375 C 1.132812 -1.132812 1.488281 -0.921875 1.84375 -0.796875 C 2.207031 -0.671875 2.628906 -0.609375 3.109375 -0.609375 C 3.679688 -0.609375 4.117188 -0.71875 4.421875 -0.9375 C 4.734375 -1.164062 4.890625 -1.476562 4.890625 -1.875 C 4.890625 -2.113281 4.8125 -2.304688 4.65625 -2.453125 C 4.507812 -2.609375 4.316406 -2.726562 4.078125 -2.8125 C 3.835938 -2.894531 3.515625 -2.984375 3.109375 -3.078125 C 2.566406 -3.191406 2.117188 -3.316406 1.765625 -3.453125 C 1.421875 -3.597656 1.140625 -3.800781 0.921875 -4.0625 C 0.710938 -4.320312 0.609375 -4.660156 0.609375 -5.078125 C 0.609375 -5.484375 0.710938 -5.835938 0.921875 -6.140625 C 1.128906 -6.453125 1.425781 -6.691406 1.8125 -6.859375 C 2.195312 -7.035156 2.648438 -7.125 3.171875 -7.125 C 3.648438 -7.125 4.097656 -7.046875 4.515625 -6.890625 C 4.941406 -6.742188 5.300781 -6.523438 5.59375 -6.234375 L 5.28125 -5.609375 C 4.945312 -5.890625 4.609375 -6.09375 4.265625 -6.21875 C 3.929688 -6.351562 3.566406 -6.421875 3.171875 -6.421875 C 2.617188 -6.421875 2.1875 -6.304688 1.875 -6.078125 C 1.570312 -5.847656 1.421875 -5.523438 1.421875 -5.109375 C 1.421875 -4.753906 1.550781 -4.488281 1.8125 -4.3125 C 2.082031 -4.132812 2.5 -3.976562 3.0625 -3.84375 C 3.664062 -3.695312 4.140625 -3.5625 4.484375 -3.4375 C 4.835938 -3.320312 5.128906 -3.140625 5.359375 -2.890625 C 5.585938 -2.640625 5.703125 -2.3125 5.703125 -1.90625 C 5.703125 -1.507812 5.597656 -1.160156 5.390625 -0.859375 C 5.179688 -0.566406 4.878906 -0.335938 4.484375 -0.171875 C 4.085938 -0.00390625 3.628906 0.078125 3.109375 0.078125 Z M 3.109375 0.078125 "/></g></g></g><g fill="#000000" fill-opacity="1"><g transform="translate(192.382619, 143.901083)"><g><path d="M 0.875 0 L 0.875 -7.046875 L 5.328125 -7.046875 L 5.328125 -6.375 L 1.671875 -6.375 L 1.671875 -3.921875 L 5.125 -3.921875 L 5.125 -3.234375 L 1.671875 -3.234375 L 1.671875 -0.671875 L 5.328125 -0.671875 L 5.328125 0 Z M 0.875 0 "/></g></g></g><g fill="#000000" fill-opacity="1"><g transform="translate(201.165058, 143.901083)"><g><path d="M 0.875 0 L 0.875 -7.046875 L 1.6875 -7.046875 L 1.6875 -0.6875 L 5.21875 -0.6875 L 5.21875 0 Z M 0.875 0 "/></g></g></g><g fill="#000000" fill-opacity="1"><g transform="translate(209.522217, 143.901083)"><g><path d="M 0.875 0 L 0.875 -7.046875 L 1.6875 -7.046875 L 1.6875 0 Z M 0.875 0 "/></g></g></g><g fill="#000000" fill-opacity="1"><g transform="translate(215.040906, 143.901083)"><g><path d="M 5.75 -7.046875 L 6.515625 -7.046875 L 6.515625 0 L 5.890625 0 L 1.625 -5.671875 L 1.625 0 L 0.875 0 L 0.875 -7.046875 L 1.5 -7.046875 L 5.75 -1.375 Z M 5.75 -7.046875 "/></g></g></g><g fill="#000000" fill-opacity="1"><g transform="translate(225.385989, 143.901083)"><g><path d="M 6.4375 -3.671875 L 6.4375 -0.40625 C 6.15625 -0.257812 5.789062 -0.140625 5.34375 -0.046875 C 4.894531 0.0351562 4.441406 0.078125 3.984375 0.078125 C 3.285156 0.078125 2.679688 -0.0625 2.171875 -0.34375 C 1.671875 -0.632812 1.285156 -1.050781 1.015625 -1.59375 C 0.742188 -2.132812 0.609375 -2.78125 0.609375 -3.53125 C 0.609375 -4.28125 0.742188 -4.921875 1.015625 -5.453125 C 1.285156 -5.992188 1.664062 -6.40625 2.15625 -6.6875 C 2.65625 -6.976562 3.242188 -7.125 3.921875 -7.125 C 4.421875 -7.125 4.875 -7.046875 5.28125 -6.890625 C 5.695312 -6.742188 6.050781 -6.523438 6.34375 -6.234375 L 6.03125 -5.609375 C 5.6875 -5.898438 5.351562 -6.109375 5.03125 -6.234375 C 4.707031 -6.359375 4.335938 -6.421875 3.921875 -6.421875 C 3.128906 -6.421875 2.519531 -6.171875 2.09375 -5.671875 C 1.664062 -5.179688 1.453125 -4.46875 1.453125 -3.53125 C 1.453125 -2.570312 1.671875 -1.84375 2.109375 -1.34375 C 2.546875 -0.851562 3.175781 -0.609375 4 -0.609375 C 4.59375 -0.609375 5.160156 -0.695312 5.703125 -0.875 L 5.703125 -3.03125 L 3.953125 -3.03125 L 3.953125 -3.671875 Z M 6.4375 -3.671875 "/></g></g></g></svg>